G04 Layer_Color=8388736*
%FSLAX25Y25*%
%MOIN*%
G70*
G01*
G75*
%ADD13C,0.00800*%
%ADD16C,0.01000*%
%ADD17C,0.00799*%
%ADD48R,0.07687X0.05524*%
%ADD49R,0.06902X0.03162*%
%ADD50R,0.05131X0.04737*%
%ADD51C,0.06100*%
%ADD52R,0.06100X0.06100*%
%ADD53R,0.06706X0.06706*%
%ADD54C,0.14579*%
%ADD55R,0.09687X0.09687*%
%ADD56R,0.09607X0.09607*%
%ADD57R,0.07600X0.07600*%
%ADD58C,0.06706*%
%ADD59R,0.06706X0.06706*%
%ADD60C,0.25800*%
%ADD61R,0.07600X0.07600*%
%ADD62C,0.29200*%
%ADD63C,0.01500*%
%ADD64C,0.03800*%
D13*
X264500Y-123500D02*
G03*
X274500Y-113500I0J10000D01*
G01*
X274500Y209500D02*
G03*
X264500Y219500I-10000J0D01*
G01*
X10000Y219500D02*
G03*
X0Y209500I0J-10000D01*
G01*
Y-113500D02*
G03*
X10000Y-123500I10000J0D01*
G01*
X0Y178300D02*
G03*
X3400Y174900I3400J0D01*
G01*
X9800Y171500D02*
G03*
X6400Y174900I-3400J0D01*
G01*
X4000Y66700D02*
G03*
X0Y62700I0J-4000D01*
G01*
X7000Y66700D02*
G03*
X9800Y69500I0J2800D01*
G01*
X274500Y-113500D02*
Y209500D01*
X10000Y-123500D02*
X264500D01*
X0Y-113500D02*
Y62700D01*
X9800Y69500D02*
Y171500D01*
X0Y178300D02*
Y209500D01*
D16*
X312725Y159841D02*
X316723D01*
X314724D01*
Y153843D01*
X319722D02*
X321722D01*
X322722Y154842D01*
Y156842D01*
X321722Y157841D01*
X319722D01*
X318723Y156842D01*
Y154842D01*
X319722Y153843D01*
X324721Y151843D02*
Y157841D01*
X327720D01*
X328719Y156842D01*
Y154842D01*
X327720Y153843D01*
X324721D01*
X340716Y158841D02*
X339716Y159841D01*
X337717D01*
X336717Y158841D01*
Y157841D01*
X337717Y156842D01*
X339716D01*
X340716Y155842D01*
Y154842D01*
X339716Y153843D01*
X337717D01*
X336717Y154842D01*
X343715Y153843D02*
X345714D01*
X346714Y154842D01*
Y156842D01*
X345714Y157841D01*
X343715D01*
X342715Y156842D01*
Y154842D01*
X343715Y153843D01*
X348713D02*
X350712D01*
X349713D01*
Y159841D01*
X348713D01*
X357710D02*
Y153843D01*
X354711D01*
X353711Y154842D01*
Y156842D01*
X354711Y157841D01*
X357710D01*
X362708Y153843D02*
X360709D01*
X359710Y154842D01*
Y156842D01*
X360709Y157841D01*
X362708D01*
X363708Y156842D01*
Y155842D01*
X359710D01*
X365708Y157841D02*
Y153843D01*
Y155842D01*
X366707Y156842D01*
X367707Y157841D01*
X368707D01*
D17*
X10000Y219500D02*
X264500D01*
X3400Y174900D02*
X6400D01*
X4000Y66700D02*
X7000D01*
D48*
X4472Y26476D02*
D03*
Y48524D02*
D03*
D49*
X19628Y43406D02*
D03*
Y39469D02*
D03*
Y35531D02*
D03*
Y31594D02*
D03*
D50*
X89346Y45500D02*
D03*
X82653D02*
D03*
X82653Y38500D02*
D03*
X89346D02*
D03*
D51*
X205539Y203500D02*
D03*
X212134D02*
D03*
X225224D02*
D03*
X175224D02*
D03*
X162134D02*
D03*
X155539D02*
D03*
X105539D02*
D03*
X112134D02*
D03*
X125224D02*
D03*
X75224D02*
D03*
X62134D02*
D03*
X55539D02*
D03*
D52*
X218630D02*
D03*
X168630D02*
D03*
X118630D02*
D03*
X68630D02*
D03*
D53*
X75500Y-12500D02*
D03*
Y9000D02*
D03*
Y-22500D02*
D03*
Y-1000D02*
D03*
X194000Y185500D02*
D03*
X234000D02*
D03*
X262000Y142500D02*
D03*
Y97500D02*
D03*
X144000Y55500D02*
D03*
X154000D02*
D03*
X164000D02*
D03*
X184000D02*
D03*
X194000D02*
D03*
X204000D02*
D03*
X214000D02*
D03*
X244000Y155500D02*
D03*
Y175500D02*
D03*
Y115500D02*
D03*
Y95500D02*
D03*
X124000Y55500D02*
D03*
X174000Y185500D02*
D03*
X184000D02*
D03*
X244000Y85500D02*
D03*
Y165500D02*
D03*
D54*
X256063Y-74713D02*
D03*
X92677D02*
D03*
Y23713D02*
D03*
X256063D02*
D03*
X69500Y-39500D02*
D03*
Y-109500D02*
D03*
X14500Y-39500D02*
D03*
Y-109500D02*
D03*
D55*
X260000Y9500D02*
D03*
Y-500D02*
D03*
Y-10500D02*
D03*
Y-20500D02*
D03*
Y-30500D02*
D03*
Y-40500D02*
D03*
Y-50500D02*
D03*
Y-60500D02*
D03*
D56*
X14500Y-64500D02*
D03*
Y-54500D02*
D03*
Y-84500D02*
D03*
Y-94500D02*
D03*
Y-74500D02*
D03*
D57*
X237598Y-111000D02*
D03*
X212402D02*
D03*
X132402D02*
D03*
X157598D02*
D03*
X92402D02*
D03*
X117598D02*
D03*
X197598D02*
D03*
X172402D02*
D03*
D58*
X262000Y162500D02*
D03*
Y152500D02*
D03*
Y87500D02*
D03*
Y77500D02*
D03*
Y67500D02*
D03*
X244000Y55500D02*
D03*
Y185500D02*
D03*
D59*
X174000Y55500D02*
D03*
X244000Y65500D02*
D03*
Y75500D02*
D03*
X114000Y55500D02*
D03*
X134000D02*
D03*
X164000Y185500D02*
D03*
X154000D02*
D03*
X224000Y55500D02*
D03*
X144000Y185500D02*
D03*
X244000Y145500D02*
D03*
Y135500D02*
D03*
Y125500D02*
D03*
Y105500D02*
D03*
X234000Y55500D02*
D03*
X204000Y185500D02*
D03*
X214000D02*
D03*
X224000D02*
D03*
D60*
X17000Y-500D02*
D03*
Y202500D02*
D03*
X257500Y-106500D02*
D03*
Y202500D02*
D03*
D61*
X60000Y23902D02*
D03*
Y49098D02*
D03*
X42000Y49098D02*
D03*
Y23902D02*
D03*
D62*
X54000Y-1500D02*
D03*
D63*
X199000Y191500D02*
D03*
X105000Y134500D02*
D03*
X66000Y-65500D02*
D03*
X188500Y62000D02*
D03*
X249300Y-45900D02*
D03*
X250000Y-15000D02*
D03*
X110000Y170500D02*
D03*
X135500Y72000D02*
D03*
X140000D02*
D03*
X100000Y112500D02*
D03*
X104500Y154500D02*
D03*
X139000Y151000D02*
D03*
X143000Y170500D02*
D03*
X127500Y161000D02*
D03*
Y151500D02*
D03*
X227000Y95500D02*
D03*
X229500Y82000D02*
D03*
X216000Y167500D02*
D03*
X198000Y157500D02*
D03*
X109000Y152500D02*
D03*
X126000Y178500D02*
D03*
X119000D02*
D03*
X24000Y-72500D02*
D03*
X31000Y-85500D02*
D03*
X71000Y-65500D02*
D03*
X70000Y-74500D02*
D03*
X65000D02*
D03*
X250000Y-35000D02*
D03*
X197500Y22000D02*
D03*
X201000Y19500D02*
D03*
X226500D02*
D03*
D64*
X49000Y93000D02*
D03*
X50500Y97000D02*
D03*
X49000Y101000D02*
D03*
X42500Y75000D02*
D03*
X81000Y106500D02*
D03*
Y99000D02*
D03*
Y74500D02*
D03*
Y84500D02*
D03*
Y91500D02*
D03*
Y171500D02*
D03*
X28000Y147000D02*
D03*
X51500Y161500D02*
D03*
X49500Y148500D02*
D03*
X47000Y73000D02*
D03*
X51309Y157100D02*
D03*
X50000Y153000D02*
D03*
X51000Y167000D02*
D03*
X23500Y49000D02*
D03*
X20500Y53000D02*
D03*
X26000Y39500D02*
D03*
X50500Y201000D02*
D03*
X191000Y47500D02*
D03*
X232000D02*
D03*
X248500Y39000D02*
D03*
X224000Y47500D02*
D03*
X214000D02*
D03*
X183000D02*
D03*
X201000D02*
D03*
X174000D02*
D03*
X139000D02*
D03*
X96500Y187000D02*
D03*
X257500Y112000D02*
D03*
X14000Y61500D02*
D03*
X17500Y59000D02*
D03*
X109000Y186500D02*
D03*
X86000Y50500D02*
D03*
X200600Y210600D02*
D03*
X225000Y193500D02*
D03*
M02*
