G04 Layer_Color=16711935*
%FSLAX25Y25*%
%MOIN*%
G70*
G01*
G75*
%ADD13C,0.00800*%
%ADD16C,0.01000*%
%ADD17C,0.00799*%
%ADD50R,0.05131X0.04737*%
%ADD51C,0.06100*%
%ADD52R,0.06100X0.06100*%
%ADD53R,0.06706X0.06706*%
%ADD54C,0.14579*%
%ADD55R,0.09687X0.09687*%
%ADD56R,0.09607X0.09607*%
%ADD57R,0.07600X0.07600*%
%ADD58C,0.06706*%
%ADD59R,0.06706X0.06706*%
%ADD60C,0.25800*%
%ADD61R,0.07600X0.07600*%
%ADD62C,0.29200*%
%ADD63C,0.01500*%
%ADD64C,0.03800*%
%ADD65R,0.05524X0.01981*%
%ADD66R,0.04147X0.03162*%
%ADD67R,0.05328X0.05603*%
%ADD68R,0.04343X0.06706*%
%ADD69R,0.08280X0.04343*%
%ADD70R,0.08280X0.04343*%
%ADD71R,0.24422X0.24422*%
%ADD72R,0.07690X0.05131*%
%ADD73R,0.07690X0.05131*%
%ADD74R,0.07690X0.14579*%
G04:AMPARAMS|DCode=75|XSize=47.37mil|YSize=51.31mil|CornerRadius=0mil|HoleSize=0mil|Usage=FLASHONLY|Rotation=135.000|XOffset=0mil|YOffset=0mil|HoleType=Round|Shape=Rectangle|*
%AMROTATEDRECTD75*
4,1,4,0.03489,0.00139,-0.00139,-0.03489,-0.03489,-0.00139,0.00139,0.03489,0.03489,0.00139,0.0*
%
%ADD75ROTATEDRECTD75*%

%ADD76R,0.04737X0.05131*%
G36*
X35752Y71878D02*
X32602D01*
Y68728D01*
X25516D01*
Y78965D01*
X35752D01*
Y71878D01*
D02*
G37*
G36*
X32602Y169122D02*
X35752D01*
Y162035D01*
X25516D01*
Y172272D01*
X32602D01*
Y169122D01*
D02*
G37*
D13*
X264500Y-123500D02*
G03*
X274500Y-113500I0J10000D01*
G01*
X274500Y209500D02*
G03*
X264500Y219500I-10000J0D01*
G01*
X10000Y219500D02*
G03*
X0Y209500I0J-10000D01*
G01*
Y-113500D02*
G03*
X10000Y-123500I10000J0D01*
G01*
X0Y178300D02*
G03*
X3400Y174900I3400J0D01*
G01*
X9800Y171500D02*
G03*
X6400Y174900I-3400J0D01*
G01*
X4000Y66700D02*
G03*
X0Y62700I0J-4000D01*
G01*
X7000Y66700D02*
G03*
X9800Y69500I0J2800D01*
G01*
X274500Y-113500D02*
Y209500D01*
X10000Y-123500D02*
X264500D01*
X0Y-113500D02*
Y62700D01*
X9800Y69500D02*
Y171500D01*
X0Y178300D02*
Y209500D01*
D16*
X312725Y126841D02*
Y120843D01*
X315724D01*
X316723Y121842D01*
Y122842D01*
X315724Y123842D01*
X312725D01*
X315724D01*
X316723Y124841D01*
Y125841D01*
X315724Y126841D01*
X312725D01*
X319722Y120843D02*
X321722D01*
X322722Y121842D01*
Y123842D01*
X321722Y124841D01*
X319722D01*
X318723Y123842D01*
Y121842D01*
X319722Y120843D01*
X325721Y125841D02*
Y124841D01*
X324721D01*
X326720D01*
X325721D01*
Y121842D01*
X326720Y120843D01*
X330719Y125841D02*
Y124841D01*
X329719D01*
X331719D01*
X330719D01*
Y121842D01*
X331719Y120843D01*
X335717D02*
X337717D01*
X338716Y121842D01*
Y123842D01*
X337717Y124841D01*
X335717D01*
X334718Y123842D01*
Y121842D01*
X335717Y120843D01*
X340716D02*
Y124841D01*
X341715D01*
X342715Y123842D01*
Y120843D01*
Y123842D01*
X343715Y124841D01*
X344714Y123842D01*
Y120843D01*
X356711Y125841D02*
X355711Y126841D01*
X353711D01*
X352712Y125841D01*
Y124841D01*
X353711Y123842D01*
X355711D01*
X356711Y122842D01*
Y121842D01*
X355711Y120843D01*
X353711D01*
X352712Y121842D01*
X359710Y120843D02*
X361709D01*
X362708Y121842D01*
Y123842D01*
X361709Y124841D01*
X359710D01*
X358710Y123842D01*
Y121842D01*
X359710Y120843D01*
X364708D02*
X366707D01*
X365708D01*
Y126841D01*
X364708D01*
X373705D02*
Y120843D01*
X370706D01*
X369706Y121842D01*
Y123842D01*
X370706Y124841D01*
X373705D01*
X378703Y120843D02*
X376704D01*
X375704Y121842D01*
Y123842D01*
X376704Y124841D01*
X378703D01*
X379703Y123842D01*
Y122842D01*
X375704D01*
X381702Y124841D02*
Y120843D01*
Y122842D01*
X382702Y123842D01*
X383702Y124841D01*
X384701D01*
D17*
X10000Y219500D02*
X264500D01*
X3400Y174900D02*
X6400D01*
X4000Y66700D02*
X7000D01*
D50*
X103347Y-98500D02*
D03*
X96653D02*
D03*
X73535Y168500D02*
D03*
X66843D02*
D03*
X73535Y175500D02*
D03*
X66843D02*
D03*
X141347Y-98500D02*
D03*
X134653D02*
D03*
X142654Y165500D02*
D03*
X149346D02*
D03*
X85347Y56500D02*
D03*
X78654D02*
D03*
X85347Y62500D02*
D03*
X78654D02*
D03*
X66843Y77500D02*
D03*
X73535D02*
D03*
X73535Y182500D02*
D03*
X66843D02*
D03*
X73535Y188500D02*
D03*
X66843D02*
D03*
X73535Y84500D02*
D03*
X66843D02*
D03*
X73535Y91500D02*
D03*
X66843D02*
D03*
X73535Y98500D02*
D03*
X66843D02*
D03*
X73535Y105500D02*
D03*
X66843D02*
D03*
Y133500D02*
D03*
X73535D02*
D03*
Y147500D02*
D03*
X66843D02*
D03*
X73535Y154500D02*
D03*
X66843D02*
D03*
X73535Y161500D02*
D03*
X66843D02*
D03*
X66843Y70500D02*
D03*
X73535D02*
D03*
X66843Y112500D02*
D03*
X73535D02*
D03*
X66843Y119500D02*
D03*
X73535D02*
D03*
X66843Y126500D02*
D03*
X73535D02*
D03*
X66843Y140500D02*
D03*
X73535D02*
D03*
X149346Y158500D02*
D03*
X142654D02*
D03*
X47346Y-54500D02*
D03*
X40653D02*
D03*
X47346Y-94500D02*
D03*
X40653D02*
D03*
X174653Y-98500D02*
D03*
X181346D02*
D03*
X223847D02*
D03*
X217154D02*
D03*
D51*
X205539Y203500D02*
D03*
X212134D02*
D03*
X225224D02*
D03*
X175224D02*
D03*
X162134D02*
D03*
X155539D02*
D03*
X105539D02*
D03*
X112134D02*
D03*
X125224D02*
D03*
X75224D02*
D03*
X62134D02*
D03*
X55539D02*
D03*
D52*
X218630D02*
D03*
X168630D02*
D03*
X118630D02*
D03*
X68630D02*
D03*
D53*
X75500Y-12500D02*
D03*
Y9000D02*
D03*
Y-22500D02*
D03*
Y-1000D02*
D03*
X194000Y185500D02*
D03*
X234000D02*
D03*
X262000Y142500D02*
D03*
Y97500D02*
D03*
X144000Y55500D02*
D03*
X154000D02*
D03*
X164000D02*
D03*
X184000D02*
D03*
X194000D02*
D03*
X204000D02*
D03*
X214000D02*
D03*
X244000Y155500D02*
D03*
Y175500D02*
D03*
Y115500D02*
D03*
Y95500D02*
D03*
X124000Y55500D02*
D03*
X174000Y185500D02*
D03*
X184000D02*
D03*
X244000Y85500D02*
D03*
Y165500D02*
D03*
D54*
X256063Y-74713D02*
D03*
X92677D02*
D03*
Y23713D02*
D03*
X256063D02*
D03*
X69500Y-39500D02*
D03*
Y-109500D02*
D03*
X14500Y-39500D02*
D03*
Y-109500D02*
D03*
D55*
X260000Y9500D02*
D03*
Y-500D02*
D03*
Y-10500D02*
D03*
Y-20500D02*
D03*
Y-30500D02*
D03*
Y-40500D02*
D03*
Y-50500D02*
D03*
Y-60500D02*
D03*
D56*
X14500Y-64500D02*
D03*
Y-54500D02*
D03*
Y-84500D02*
D03*
Y-94500D02*
D03*
Y-74500D02*
D03*
D57*
X237598Y-111000D02*
D03*
X212402D02*
D03*
X132402D02*
D03*
X157598D02*
D03*
X92402D02*
D03*
X117598D02*
D03*
X197598D02*
D03*
X172402D02*
D03*
D58*
X262000Y162500D02*
D03*
Y152500D02*
D03*
Y87500D02*
D03*
Y77500D02*
D03*
Y67500D02*
D03*
X244000Y55500D02*
D03*
Y185500D02*
D03*
D59*
X174000Y55500D02*
D03*
X244000Y65500D02*
D03*
Y75500D02*
D03*
X114000Y55500D02*
D03*
X134000D02*
D03*
X164000Y185500D02*
D03*
X154000D02*
D03*
X224000Y55500D02*
D03*
X144000Y185500D02*
D03*
X244000Y145500D02*
D03*
Y135500D02*
D03*
Y125500D02*
D03*
Y105500D02*
D03*
X234000Y55500D02*
D03*
X204000Y185500D02*
D03*
X214000D02*
D03*
X224000D02*
D03*
D60*
X17000Y-500D02*
D03*
Y202500D02*
D03*
X257500Y-106500D02*
D03*
Y202500D02*
D03*
D61*
X60000Y23902D02*
D03*
Y49098D02*
D03*
X42000Y49098D02*
D03*
Y23902D02*
D03*
D62*
X54000Y-1500D02*
D03*
D63*
X188500Y62000D02*
D03*
X227000Y95500D02*
D03*
X229500Y82000D02*
D03*
D64*
X199000Y191500D02*
D03*
X49000Y93000D02*
D03*
X50500Y97000D02*
D03*
X49000Y101000D02*
D03*
X42500Y75000D02*
D03*
X81000Y106500D02*
D03*
Y99000D02*
D03*
Y74500D02*
D03*
Y84500D02*
D03*
Y91500D02*
D03*
Y171500D02*
D03*
X105000Y134500D02*
D03*
X28000Y147000D02*
D03*
X51500Y161500D02*
D03*
X49500Y148500D02*
D03*
X47000Y73000D02*
D03*
X51309Y157100D02*
D03*
X50000Y153000D02*
D03*
X51000Y167000D02*
D03*
X23500Y49000D02*
D03*
X20500Y53000D02*
D03*
X26000Y39500D02*
D03*
X66000Y-65500D02*
D03*
X50500Y201000D02*
D03*
X191000Y47500D02*
D03*
X232000D02*
D03*
X249300Y-45900D02*
D03*
X248500Y39000D02*
D03*
X224000Y47500D02*
D03*
X214000D02*
D03*
X183000D02*
D03*
X201000D02*
D03*
X174000D02*
D03*
X250000Y-15000D02*
D03*
X139000Y47500D02*
D03*
X110000Y170500D02*
D03*
X96500Y187000D02*
D03*
X135500Y72000D02*
D03*
X140000D02*
D03*
X100000Y112500D02*
D03*
X104500Y154500D02*
D03*
X139000Y151000D02*
D03*
X143000Y170500D02*
D03*
X127500Y161000D02*
D03*
Y151500D02*
D03*
X257500Y112000D02*
D03*
X14000Y61500D02*
D03*
X17500Y59000D02*
D03*
X216000Y167500D02*
D03*
X198000Y157500D02*
D03*
X109000Y186500D02*
D03*
Y152500D02*
D03*
X86000Y50500D02*
D03*
X126000Y178500D02*
D03*
X119000D02*
D03*
X24000Y-72500D02*
D03*
X31000Y-85500D02*
D03*
X71000Y-65500D02*
D03*
X70000Y-74500D02*
D03*
X65000D02*
D03*
X250000Y-35000D02*
D03*
X200600Y210600D02*
D03*
X225000Y193500D02*
D03*
X197500Y22000D02*
D03*
X201000Y19500D02*
D03*
X226500D02*
D03*
D65*
X41264Y82114D02*
D03*
Y84083D02*
D03*
Y86051D02*
D03*
Y88020D02*
D03*
Y89988D02*
D03*
Y91957D02*
D03*
Y93925D02*
D03*
Y95894D02*
D03*
Y97862D02*
D03*
Y99831D02*
D03*
Y101799D02*
D03*
Y103768D02*
D03*
Y105736D02*
D03*
Y107705D02*
D03*
Y109673D02*
D03*
Y111642D02*
D03*
Y113610D02*
D03*
Y115579D02*
D03*
Y117547D02*
D03*
Y119516D02*
D03*
Y121484D02*
D03*
Y123453D02*
D03*
Y125421D02*
D03*
Y127390D02*
D03*
Y129358D02*
D03*
Y131327D02*
D03*
Y133295D02*
D03*
Y135264D02*
D03*
Y137232D02*
D03*
Y139201D02*
D03*
Y141169D02*
D03*
Y143138D02*
D03*
Y145106D02*
D03*
Y147075D02*
D03*
Y149043D02*
D03*
Y151012D02*
D03*
Y152980D02*
D03*
Y154949D02*
D03*
Y156917D02*
D03*
Y158886D02*
D03*
D66*
X95768Y182500D02*
D03*
X104232Y178760D02*
D03*
Y186240D02*
D03*
Y146240D02*
D03*
Y138760D02*
D03*
X95768Y142500D02*
D03*
X104232Y166240D02*
D03*
Y158760D02*
D03*
X95768Y162500D02*
D03*
D67*
X100000Y118398D02*
D03*
Y130602D02*
D03*
D68*
X145658Y147914D02*
D03*
X150658D02*
D03*
X155658D02*
D03*
X160658D02*
D03*
X165658D02*
D03*
X170658D02*
D03*
X175658D02*
D03*
X180658D02*
D03*
X185658D02*
D03*
X190658D02*
D03*
X195658D02*
D03*
X200658D02*
D03*
X205658D02*
D03*
X210658D02*
D03*
Y75044D02*
D03*
X205658D02*
D03*
X200658D02*
D03*
X195658D02*
D03*
X190658D02*
D03*
X185658D02*
D03*
X180658D02*
D03*
X175658D02*
D03*
X170658D02*
D03*
X165658D02*
D03*
X160658D02*
D03*
X155658D02*
D03*
X150658D02*
D03*
X145658D02*
D03*
D69*
X217410Y139036D02*
D03*
Y134036D02*
D03*
Y129036D02*
D03*
Y124036D02*
D03*
Y119036D02*
D03*
Y114036D02*
D03*
Y109036D02*
D03*
Y104036D02*
D03*
Y99036D02*
D03*
Y94036D02*
D03*
D70*
Y89036D02*
D03*
Y84036D02*
D03*
D71*
X176000Y117500D02*
D03*
D72*
X56992Y-65445D02*
D03*
D73*
Y-74500D02*
D03*
Y-83555D02*
D03*
D74*
X31008Y-74500D02*
D03*
D75*
X240366Y-84134D02*
D03*
X235634Y-88866D02*
D03*
D76*
X119000Y184153D02*
D03*
Y190847D02*
D03*
X126000Y184153D02*
D03*
Y190847D02*
D03*
X133000Y190847D02*
D03*
Y184153D02*
D03*
M02*
