G04 Layer_Color=32896*
%FSLAX25Y25*%
%MOIN*%
G70*
G01*
G75*
%ADD13C,0.00800*%
%ADD15C,0.01500*%
%ADD16C,0.01000*%
%ADD17C,0.00799*%
%ADD44C,0.00984*%
%ADD45C,0.00787*%
%ADD46C,0.00500*%
%ADD75C,0.01700*%
%ADD76R,0.00800X0.01600*%
%ADD77R,0.00800X0.01200*%
%ADD78R,0.00800X0.08800*%
%ADD79R,0.02400X0.00800*%
%ADD80R,0.00800X0.00800*%
%ADD81R,0.01200X0.01200*%
%ADD82R,0.01000X0.01600*%
%ADD83R,0.01400X0.01200*%
%ADD84R,0.01600X0.01200*%
%ADD85R,0.00400X0.01200*%
%ADD86R,0.00800X0.01000*%
%ADD87R,0.00800X0.01400*%
%ADD88R,0.01600X0.00800*%
%ADD89R,0.01200X0.01600*%
%ADD90R,0.00600X0.00800*%
%ADD91R,0.01000X0.00800*%
%ADD92R,0.00400X0.00800*%
%ADD93R,0.01600X0.00400*%
%ADD94R,0.01200X0.00800*%
%ADD95R,0.00400X0.01000*%
%ADD96R,0.00800X0.01800*%
%ADD97R,0.00800X0.02000*%
%ADD98R,0.00400X0.01600*%
%ADD99R,0.00600X0.01200*%
%ADD100R,0.01200X0.01000*%
%ADD101R,0.00800X0.02400*%
%ADD102R,0.00800X0.03200*%
%ADD103R,0.01000X0.01200*%
%ADD104R,0.01000X0.04000*%
%ADD105R,0.01000X0.02400*%
%ADD106R,0.05600X0.00800*%
%ADD107R,0.00800X0.04000*%
%ADD108R,0.02400X0.01000*%
%ADD109R,0.01600X0.02200*%
%ADD110R,0.02800X0.00800*%
%ADD111R,0.00450X0.00800*%
%ADD112R,0.00750X0.00600*%
%ADD113R,0.01200X0.00600*%
%ADD114R,0.01200X0.02000*%
G36*
X150200Y-31700D02*
X149400D01*
Y-30900D01*
X150200D01*
Y-31700D01*
D02*
G37*
G36*
X145400Y-46900D02*
X144600D01*
Y-45300D01*
X145400D01*
Y-46900D01*
D02*
G37*
G36*
X226200Y-47700D02*
X224600D01*
Y-46900D01*
X226200D01*
Y-47700D01*
D02*
G37*
G36*
X237400Y-46100D02*
X238200D01*
Y-47700D01*
X237400D01*
Y-48500D01*
X236600D01*
Y-49300D01*
X235800D01*
Y-48500D01*
X232600D01*
Y-47700D01*
X231800D01*
Y-46900D01*
X234200D01*
Y-47700D01*
X236600D01*
Y-45300D01*
X237400D01*
Y-46100D01*
D02*
G37*
G36*
X149400Y-32500D02*
X148600D01*
Y-31700D01*
X149400D01*
Y-32500D01*
D02*
G37*
G36*
X235000Y-46900D02*
X234200D01*
Y-45300D01*
X235000D01*
Y-46900D01*
D02*
G37*
G36*
X229400Y-44500D02*
X230200D01*
Y-45300D01*
X229400D01*
Y-46100D01*
X227800D01*
Y-45300D01*
X228600D01*
Y-42900D01*
X229400D01*
Y-44500D01*
D02*
G37*
G36*
X203800Y-46900D02*
X204600D01*
Y-47700D01*
X205400D01*
Y-48500D01*
X209400D01*
Y-47700D01*
X210200D01*
Y-48500D01*
X211000D01*
Y-49300D01*
X216600D01*
Y-47700D01*
X217400D01*
Y-48500D01*
X218200D01*
Y-49300D01*
X219800D01*
Y-50100D01*
X219000D01*
Y-50900D01*
X218200D01*
Y-50100D01*
X211000D01*
Y-50900D01*
X210200D01*
Y-50100D01*
X209400D01*
Y-49300D01*
X205400D01*
Y-48500D01*
X204600D01*
Y-49300D01*
X205400D01*
Y-50900D01*
X206200D01*
Y-52500D01*
X207000D01*
Y-53300D01*
X207800D01*
Y-54100D01*
X209400D01*
Y-54900D01*
X211000D01*
Y-55700D01*
X213400D01*
Y-56500D01*
X211000D01*
Y-55700D01*
X209400D01*
Y-54900D01*
X207800D01*
Y-54100D01*
X206200D01*
Y-53300D01*
X205400D01*
Y-52500D01*
X204600D01*
Y-51700D01*
X203800D01*
Y-50900D01*
X204600D01*
Y-49300D01*
X203800D01*
Y-48500D01*
X203000D01*
Y-47700D01*
X202200D01*
Y-46900D01*
X200600D01*
Y-47700D01*
X199800D01*
Y-46100D01*
X199000D01*
Y-44500D01*
X199800D01*
Y-45300D01*
X200600D01*
Y-46100D01*
X202200D01*
Y-46900D01*
X203000D01*
Y-44500D01*
X203800D01*
Y-46900D01*
D02*
G37*
G36*
X227800D02*
X226200D01*
Y-46100D01*
X227800D01*
Y-46900D01*
D02*
G37*
G36*
X202200Y-23700D02*
X205400D01*
Y-24500D01*
X202200D01*
Y-27700D01*
X201400D01*
Y-24500D01*
X200600D01*
Y-23700D01*
X201400D01*
Y-22900D01*
X202200D01*
Y-23700D01*
D02*
G37*
G36*
X231000Y-50900D02*
X230200D01*
Y-50100D01*
X231000D01*
Y-50900D01*
D02*
G37*
G36*
X234200Y-27700D02*
X233400D01*
Y-26100D01*
X234200D01*
Y-27700D01*
D02*
G37*
G36*
X221400Y-24500D02*
X223800D01*
Y-25300D01*
X227000D01*
Y-26100D01*
X228600D01*
Y-26900D01*
X230200D01*
Y-27700D01*
X228600D01*
Y-26900D01*
X227000D01*
Y-27700D01*
X226200D01*
Y-26100D01*
X223800D01*
Y-25300D01*
X221400D01*
Y-24500D01*
X220600D01*
Y-28500D01*
X219800D01*
Y-24500D01*
X216600D01*
Y-23700D01*
X220600D01*
Y-22100D01*
X221400D01*
Y-24500D01*
D02*
G37*
G36*
X231800Y-50100D02*
X231000D01*
Y-49300D01*
X231800D01*
Y-50100D01*
D02*
G37*
G36*
X223800Y-47700D02*
X224600D01*
Y-48500D01*
X222200D01*
Y-47700D01*
X223000D01*
Y-46100D01*
X223800D01*
Y-47700D01*
D02*
G37*
G36*
X152600Y-30100D02*
X151800D01*
Y-30900D01*
X150200D01*
Y-30100D01*
X151000D01*
Y-29300D01*
X152600D01*
Y-30100D01*
D02*
G37*
G36*
X222200Y-49300D02*
X219800D01*
Y-48500D01*
X222200D01*
Y-49300D01*
D02*
G37*
G36*
X232600D02*
X231800D01*
Y-48500D01*
X232600D01*
Y-49300D01*
D02*
G37*
G36*
X235800Y-45300D02*
X235000D01*
Y-44500D01*
X235800D01*
Y-45300D01*
D02*
G37*
G36*
X231800Y-43700D02*
X231000D01*
Y-42900D01*
X231800D01*
Y-43700D01*
D02*
G37*
G36*
X138200Y-42900D02*
X137400D01*
Y-42100D01*
X138200D01*
Y-42900D01*
D02*
G37*
G36*
X139800Y-41300D02*
X139000D01*
Y-40500D01*
X139800D01*
Y-41300D01*
D02*
G37*
G36*
X233400Y-42100D02*
X232600D01*
Y-41300D01*
X233400D01*
Y-42100D01*
D02*
G37*
G36*
X151800D02*
X149400D01*
Y-41300D01*
X151800D01*
Y-42100D01*
D02*
G37*
G36*
X232600Y-42900D02*
X231800D01*
Y-42100D01*
X232600D01*
Y-42900D01*
D02*
G37*
G36*
X143000D02*
X141400D01*
Y-42100D01*
X143000D01*
Y-42900D01*
D02*
G37*
G36*
X145400Y-42100D02*
X143000D01*
Y-41300D01*
X145400D01*
Y-42100D01*
D02*
G37*
G36*
X139000D02*
X138200D01*
Y-41300D01*
X139000D01*
Y-42100D01*
D02*
G37*
G36*
X231000Y-44500D02*
X230200D01*
Y-43700D01*
X231000D01*
Y-44500D01*
D02*
G37*
G36*
X141400Y-43700D02*
X139000D01*
Y-42900D01*
X141400D01*
Y-43700D01*
D02*
G37*
G36*
X144600Y-36500D02*
X143800D01*
Y-35700D01*
X144600D01*
Y-36500D01*
D02*
G37*
G36*
X232600Y-38100D02*
X231000D01*
Y-37300D01*
X232600D01*
Y-38100D01*
D02*
G37*
G36*
X231000Y-38900D02*
X229400D01*
Y-38100D01*
X231000D01*
Y-38900D01*
D02*
G37*
G36*
X207800Y-40500D02*
X208600D01*
Y-41300D01*
X214200D01*
Y-38900D01*
X215000D01*
Y-41300D01*
X220600D01*
Y-40500D01*
X223800D01*
Y-41300D01*
X221400D01*
Y-42100D01*
X208600D01*
Y-44500D01*
X207800D01*
Y-42100D01*
X207000D01*
Y-41300D01*
X202200D01*
Y-42100D01*
X201400D01*
Y-40500D01*
X199800D01*
Y-39700D01*
X201400D01*
Y-36500D01*
X202200D01*
Y-40500D01*
X207000D01*
Y-34900D01*
X207800D01*
Y-40500D01*
D02*
G37*
G36*
X141400D02*
X140600D01*
Y-39700D01*
X141400D01*
Y-40500D01*
D02*
G37*
G36*
X229400Y-39700D02*
X227800D01*
Y-38900D01*
X229400D01*
Y-39700D01*
D02*
G37*
G36*
X142200D02*
X141400D01*
Y-38900D01*
X142200D01*
Y-39700D01*
D02*
G37*
G36*
X203000Y-15700D02*
X202200D01*
Y-14900D01*
X203000D01*
Y-15700D01*
D02*
G37*
G36*
X139800D02*
X139000D01*
Y-17300D01*
X138200D01*
Y-14900D01*
X139000D01*
Y-14100D01*
X139800D01*
Y-15700D01*
D02*
G37*
G36*
X227000Y-14900D02*
X226200D01*
Y-14100D01*
X227000D01*
Y-14900D01*
D02*
G37*
G36*
X226200Y-15700D02*
X225400D01*
Y-14900D01*
X226200D01*
Y-15700D01*
D02*
G37*
G36*
X223000Y-8500D02*
X226200D01*
Y-9300D01*
X228600D01*
Y-10100D01*
X229400D01*
Y-10900D01*
X231000D01*
Y-11700D01*
X232600D01*
Y-12500D01*
X233400D01*
Y-13300D01*
X234200D01*
Y-14100D01*
X235000D01*
Y-14900D01*
X235800D01*
Y-15700D01*
X236600D01*
Y-16500D01*
X237400D01*
Y-17300D01*
X238200D01*
Y-18900D01*
X239000D01*
Y-20500D01*
X238200D01*
Y-18900D01*
X237400D01*
Y-18100D01*
X236600D01*
Y-18900D01*
X237400D01*
Y-20500D01*
X238200D01*
Y-22900D01*
X239000D01*
Y-23700D01*
X239800D01*
Y-22100D01*
X240600D01*
Y-23700D01*
X241400D01*
Y-26900D01*
X242200D01*
Y-38900D01*
X241400D01*
Y-41300D01*
X240600D01*
Y-43700D01*
X239800D01*
Y-42100D01*
X239000D01*
Y-42900D01*
X238200D01*
Y-44500D01*
X239000D01*
Y-43700D01*
X239800D01*
Y-45300D01*
X239000D01*
Y-46100D01*
X238200D01*
Y-45300D01*
X237400D01*
Y-42900D01*
X236600D01*
Y-44500D01*
X235800D01*
Y-42100D01*
X235000D01*
Y-41300D01*
X233400D01*
Y-37300D01*
X232600D01*
Y-34100D01*
X233400D01*
Y-34900D01*
X234200D01*
Y-38900D01*
X235000D01*
Y-37300D01*
X235800D01*
Y-36500D01*
X236600D01*
Y-35700D01*
X235000D01*
Y-34900D01*
X235800D01*
Y-34100D01*
X235000D01*
Y-33300D01*
X226200D01*
Y-37300D01*
X227000D01*
Y-39700D01*
X227800D01*
Y-42100D01*
X227000D01*
Y-40500D01*
X224600D01*
Y-39700D01*
X226200D01*
Y-37300D01*
X225400D01*
Y-33300D01*
X219800D01*
Y-34900D01*
X219000D01*
Y-33300D01*
X214200D01*
Y-37300D01*
X213400D01*
Y-33300D01*
X207000D01*
Y-34100D01*
X206200D01*
Y-33300D01*
X201400D01*
Y-35700D01*
X200600D01*
Y-33300D01*
X196600D01*
Y-34100D01*
X195800D01*
Y-32500D01*
X200600D01*
Y-29300D01*
X201400D01*
Y-32500D01*
X206200D01*
Y-30100D01*
X207000D01*
Y-32500D01*
X213400D01*
Y-26100D01*
X214200D01*
Y-32500D01*
X219000D01*
Y-29300D01*
X219800D01*
Y-32500D01*
X225400D01*
Y-27700D01*
X226200D01*
Y-32500D01*
X232600D01*
Y-29300D01*
X231800D01*
Y-28500D01*
X231000D01*
Y-27700D01*
X233400D01*
Y-32500D01*
X235800D01*
Y-30900D01*
X235000D01*
Y-30100D01*
X235800D01*
Y-29300D01*
X236600D01*
Y-27700D01*
X237400D01*
Y-25300D01*
X236600D01*
Y-23700D01*
X235800D01*
Y-21300D01*
X236600D01*
Y-22100D01*
X237400D01*
Y-20500D01*
X236600D01*
Y-18900D01*
X235000D01*
Y-19700D01*
X234200D01*
Y-18900D01*
X232600D01*
Y-18100D01*
X233400D01*
Y-17300D01*
X234200D01*
Y-18100D01*
X235800D01*
Y-17300D01*
X235000D01*
Y-15700D01*
X234200D01*
Y-14900D01*
X233400D01*
Y-14100D01*
X232600D01*
Y-13300D01*
X231800D01*
Y-12500D01*
X231000D01*
Y-11700D01*
X229400D01*
Y-10900D01*
X227800D01*
Y-10100D01*
X225400D01*
Y-9300D01*
X224600D01*
Y-10100D01*
X225400D01*
Y-10900D01*
X227000D01*
Y-11700D01*
X228600D01*
Y-12500D01*
X229400D01*
Y-13300D01*
X227800D01*
Y-12500D01*
X227000D01*
Y-11700D01*
X225400D01*
Y-10900D01*
X223800D01*
Y-10100D01*
X222200D01*
Y-10900D01*
X221400D01*
Y-11700D01*
X220600D01*
Y-12500D01*
X219800D01*
Y-10900D01*
X220600D01*
Y-10100D01*
X221400D01*
Y-9300D01*
X219800D01*
Y-8500D01*
X216600D01*
Y-9300D01*
X215000D01*
Y-10100D01*
X214200D01*
Y-10900D01*
X213400D01*
Y-9300D01*
X211800D01*
Y-8500D01*
X215000D01*
Y-7700D01*
X223000D01*
Y-8500D01*
D02*
G37*
G36*
X138200Y-18900D02*
X137400D01*
Y-17300D01*
X138200D01*
Y-18900D01*
D02*
G37*
G36*
X232600Y-19700D02*
X231000D01*
Y-18900D01*
X232600D01*
Y-19700D01*
D02*
G37*
G36*
X155000Y-14900D02*
X155800D01*
Y-15700D01*
X156600D01*
Y-16500D01*
X157400D01*
Y-18100D01*
X156600D01*
Y-17300D01*
X155800D01*
Y-16500D01*
X155000D01*
Y-15700D01*
X154200D01*
Y-14100D01*
X155000D01*
Y-14900D01*
D02*
G37*
G36*
X207000Y-12500D02*
X206200D01*
Y-14100D01*
X205400D01*
Y-14900D01*
X204600D01*
Y-17300D01*
X205400D01*
Y-18100D01*
X203800D01*
Y-19700D01*
X203000D01*
Y-22900D01*
X202200D01*
Y-19700D01*
X200600D01*
Y-18900D01*
X199800D01*
Y-17300D01*
X200600D01*
Y-16500D01*
X201400D01*
Y-15700D01*
X202200D01*
Y-17300D01*
X201400D01*
Y-18100D01*
X200600D01*
Y-18900D01*
X202200D01*
Y-18100D01*
X203000D01*
Y-17300D01*
X203800D01*
Y-14900D01*
X203000D01*
Y-14100D01*
X203800D01*
Y-13300D01*
X204600D01*
Y-12500D01*
X205400D01*
Y-11700D01*
X207000D01*
Y-12500D01*
D02*
G37*
G36*
X213400Y-11700D02*
X212600D01*
Y-10900D01*
X213400D01*
Y-11700D01*
D02*
G37*
G36*
X208600D02*
X207000D01*
Y-10900D01*
X208600D01*
Y-11700D01*
D02*
G37*
G36*
X211800Y-10100D02*
X210200D01*
Y-9300D01*
X211800D01*
Y-10100D01*
D02*
G37*
G36*
X210200Y-10900D02*
X208600D01*
Y-10100D01*
X210200D01*
Y-10900D01*
D02*
G37*
G36*
X151000Y-11700D02*
X152600D01*
Y-12500D01*
X151000D01*
Y-11700D01*
X143000D01*
Y-10900D01*
X151000D01*
Y-11700D01*
D02*
G37*
G36*
X219000Y-14100D02*
X218200D01*
Y-13300D01*
X219000D01*
Y-14100D01*
D02*
G37*
G36*
X211800D02*
X211000D01*
Y-13300D01*
X211800D01*
Y-14100D01*
D02*
G37*
G36*
X219800Y-13300D02*
X219000D01*
Y-12500D01*
X219800D01*
Y-13300D01*
D02*
G37*
G36*
X212600D02*
X211800D01*
Y-11700D01*
X212600D01*
Y-13300D01*
D02*
G37*
G36*
X223000Y-19700D02*
X222200D01*
Y-18100D01*
X223000D01*
Y-19700D01*
D02*
G37*
G36*
X227000Y-54100D02*
X225400D01*
Y-53300D01*
X227000D01*
Y-54100D01*
D02*
G37*
G36*
X140600Y-25300D02*
X139000D01*
Y-24500D01*
X140600D01*
Y-25300D01*
D02*
G37*
G36*
X200600D02*
X198200D01*
Y-24500D01*
X200600D01*
Y-25300D01*
D02*
G37*
G36*
X235800Y-24500D02*
X235000D01*
Y-25300D01*
X234200D01*
Y-24500D01*
X233400D01*
Y-23700D01*
X235800D01*
Y-24500D01*
D02*
G37*
G36*
X227800Y-25300D02*
X227000D01*
Y-23700D01*
X227800D01*
Y-25300D01*
D02*
G37*
G36*
X230200Y-51700D02*
X229400D01*
Y-50900D01*
X230200D01*
Y-51700D01*
D02*
G37*
G36*
X137400Y-21300D02*
X136600D01*
Y-22100D01*
X137400D01*
Y-22900D01*
X135800D01*
Y-42900D01*
X137400D01*
Y-46100D01*
X138200D01*
Y-47700D01*
X139000D01*
Y-49300D01*
X139800D01*
Y-50900D01*
X139000D01*
Y-50100D01*
X138200D01*
Y-48500D01*
X137400D01*
Y-46900D01*
X136600D01*
Y-45300D01*
X135800D01*
Y-44500D01*
X135000D01*
Y-21300D01*
X135800D01*
Y-19700D01*
X136600D01*
Y-18900D01*
X137400D01*
Y-21300D01*
D02*
G37*
G36*
X235800Y-50900D02*
X235000D01*
Y-51700D01*
X234200D01*
Y-52500D01*
X232600D01*
Y-53300D01*
X231800D01*
Y-54100D01*
X230200D01*
Y-53300D01*
X227000D01*
Y-50900D01*
X227800D01*
Y-51700D01*
X229400D01*
Y-52500D01*
X231800D01*
Y-51700D01*
X233400D01*
Y-50900D01*
X234200D01*
Y-50100D01*
X235000D01*
Y-49300D01*
X235800D01*
Y-50900D01*
D02*
G37*
G36*
X191800Y-26100D02*
X190200D01*
Y-25300D01*
X191800D01*
Y-26100D01*
D02*
G37*
G36*
X144600Y-49300D02*
X143800D01*
Y-50900D01*
X143000D01*
Y-51700D01*
X144600D01*
Y-52500D01*
X143800D01*
Y-53300D01*
X152600D01*
Y-54100D01*
X140600D01*
Y-53300D01*
X139800D01*
Y-51700D01*
X140600D01*
Y-52500D01*
X141400D01*
Y-51700D01*
X142200D01*
Y-50100D01*
X143000D01*
Y-48500D01*
X143800D01*
Y-46900D01*
X144600D01*
Y-49300D01*
D02*
G37*
G36*
X228600Y-23700D02*
X227800D01*
Y-22100D01*
X228600D01*
Y-23700D01*
D02*
G37*
G36*
X230200Y-54900D02*
X228600D01*
Y-55700D01*
X227000D01*
Y-56500D01*
X224600D01*
Y-57300D01*
X214200D01*
Y-55700D01*
X213400D01*
Y-54100D01*
X214200D01*
Y-54900D01*
X215000D01*
Y-55700D01*
X215800D01*
Y-56500D01*
X221400D01*
Y-55700D01*
X222200D01*
Y-54900D01*
X221400D01*
Y-54100D01*
X225400D01*
Y-54900D01*
X227800D01*
Y-54100D01*
X230200D01*
Y-54900D01*
D02*
G37*
G36*
X211000Y-15700D02*
X220600D01*
Y-16500D01*
X223800D01*
Y-15700D01*
X225400D01*
Y-16500D01*
X224600D01*
Y-17300D01*
X225400D01*
Y-18100D01*
X227000D01*
Y-18900D01*
X228600D01*
Y-19700D01*
X231000D01*
Y-21300D01*
X229400D01*
Y-22100D01*
X228600D01*
Y-19700D01*
X227000D01*
Y-18900D01*
X225400D01*
Y-18100D01*
X223000D01*
Y-17300D01*
X220600D01*
Y-16500D01*
X210200D01*
Y-17300D01*
X209400D01*
Y-19700D01*
X208600D01*
Y-17300D01*
X206200D01*
Y-16500D01*
X208600D01*
Y-15700D01*
X210200D01*
Y-14100D01*
X211000D01*
Y-15700D01*
D02*
G37*
G36*
X222200Y-21300D02*
X221400D01*
Y-19700D01*
X222200D01*
Y-21300D01*
D02*
G37*
G36*
X141400Y-12500D02*
X143800D01*
Y-13300D01*
X144600D01*
Y-14100D01*
X146200D01*
Y-14900D01*
X147000D01*
Y-15700D01*
X148600D01*
Y-16500D01*
X149400D01*
Y-17300D01*
X151000D01*
Y-18100D01*
X151800D01*
Y-18900D01*
X153400D01*
Y-19700D01*
X154200D01*
Y-20500D01*
X155800D01*
Y-21300D01*
X159000D01*
Y-19700D01*
X159800D01*
Y-20500D01*
X160600D01*
Y-21300D01*
X198200D01*
Y-20500D01*
X199000D01*
Y-18900D01*
X199800D01*
Y-19700D01*
X200600D01*
Y-20500D01*
X199800D01*
Y-21300D01*
X199000D01*
Y-22100D01*
X198200D01*
Y-23700D01*
X197400D01*
Y-25300D01*
X198200D01*
Y-26100D01*
X196600D01*
Y-31700D01*
X195800D01*
Y-30900D01*
X195000D01*
Y-30100D01*
X195800D01*
Y-28500D01*
X195000D01*
Y-27700D01*
X195800D01*
Y-26100D01*
X195000D01*
Y-25300D01*
X192600D01*
Y-24500D01*
X191800D01*
Y-23700D01*
X190200D01*
Y-24500D01*
X189400D01*
Y-22900D01*
X188600D01*
Y-22100D01*
X180600D01*
Y-22900D01*
X181400D01*
Y-23700D01*
X185400D01*
Y-24500D01*
X184600D01*
Y-25300D01*
X186200D01*
Y-26100D01*
X187800D01*
Y-25300D01*
X188600D01*
Y-24500D01*
X189400D01*
Y-26900D01*
X188600D01*
Y-27700D01*
X192600D01*
Y-28500D01*
X191800D01*
Y-29300D01*
X191000D01*
Y-30900D01*
X191800D01*
Y-31700D01*
X192600D01*
Y-32500D01*
X193400D01*
Y-31700D01*
X194200D01*
Y-30900D01*
X195000D01*
Y-32500D01*
X194200D01*
Y-34100D01*
X193400D01*
Y-33300D01*
X192600D01*
Y-34100D01*
X191800D01*
Y-34900D01*
X191000D01*
Y-36500D01*
X188600D01*
Y-38100D01*
X191000D01*
Y-37300D01*
X191800D01*
Y-38100D01*
X195800D01*
Y-35700D01*
X195000D01*
Y-34900D01*
X196600D01*
Y-38100D01*
X197400D01*
Y-38900D01*
X199000D01*
Y-39700D01*
X197400D01*
Y-41300D01*
X198200D01*
Y-43700D01*
X197400D01*
Y-42900D01*
X196600D01*
Y-42100D01*
X193400D01*
Y-42900D01*
X191800D01*
Y-42100D01*
X192600D01*
Y-40500D01*
X191000D01*
Y-39700D01*
X192600D01*
Y-40500D01*
X195800D01*
Y-39700D01*
X196600D01*
Y-38900D01*
X190200D01*
Y-39700D01*
X189400D01*
Y-41300D01*
X190200D01*
Y-42100D01*
X191000D01*
Y-42900D01*
X191800D01*
Y-43700D01*
X197400D01*
Y-44500D01*
X161400D01*
Y-45300D01*
X159800D01*
Y-46100D01*
X159000D01*
Y-46900D01*
X158200D01*
Y-48500D01*
X157400D01*
Y-49300D01*
X156600D01*
Y-50100D01*
X155800D01*
Y-50900D01*
X155000D01*
Y-51700D01*
X154200D01*
Y-52500D01*
X153400D01*
Y-53300D01*
X152600D01*
Y-51700D01*
X153400D01*
Y-50900D01*
X154200D01*
Y-50100D01*
X155000D01*
Y-49300D01*
X155800D01*
Y-48500D01*
X156600D01*
Y-47700D01*
X157400D01*
Y-46100D01*
X158200D01*
Y-45300D01*
X159000D01*
Y-44500D01*
X155800D01*
Y-45300D01*
X154200D01*
Y-46100D01*
X153400D01*
Y-46900D01*
X151800D01*
Y-47700D01*
X151000D01*
Y-48500D01*
X149400D01*
Y-49300D01*
X148600D01*
Y-50100D01*
X147000D01*
Y-50900D01*
X146200D01*
Y-51700D01*
X144600D01*
Y-50900D01*
X145400D01*
Y-50100D01*
X146200D01*
Y-49300D01*
X147800D01*
Y-48500D01*
X148600D01*
Y-47700D01*
X150200D01*
Y-46900D01*
X151000D01*
Y-46100D01*
X152600D01*
Y-45300D01*
X153400D01*
Y-44500D01*
X146200D01*
Y-45300D01*
X145400D01*
Y-43700D01*
X146200D01*
Y-42900D01*
X149400D01*
Y-43700D01*
X155800D01*
Y-42900D01*
X152600D01*
Y-42100D01*
X155000D01*
Y-41300D01*
X154200D01*
Y-39700D01*
X153400D01*
Y-38900D01*
X151800D01*
Y-39700D01*
X149400D01*
Y-40500D01*
X148600D01*
Y-41300D01*
X145400D01*
Y-40500D01*
X147000D01*
Y-39700D01*
X148600D01*
Y-38900D01*
X151000D01*
Y-38100D01*
X152600D01*
Y-37300D01*
X153400D01*
Y-29300D01*
X152600D01*
Y-28500D01*
X146200D01*
Y-30900D01*
X147000D01*
Y-32500D01*
X148600D01*
Y-33300D01*
X149400D01*
Y-34100D01*
X150200D01*
Y-34900D01*
X148600D01*
Y-34100D01*
X147000D01*
Y-34900D01*
X146200D01*
Y-36500D01*
X145400D01*
Y-35700D01*
X144600D01*
Y-34100D01*
X145400D01*
Y-30900D01*
X144600D01*
Y-30100D01*
X143800D01*
Y-28500D01*
X143000D01*
Y-27700D01*
X151000D01*
Y-26900D01*
X149400D01*
Y-26100D01*
X147800D01*
Y-25300D01*
X145400D01*
Y-24500D01*
X143000D01*
Y-23700D01*
X141400D01*
Y-22900D01*
X143000D01*
Y-23700D01*
X145400D01*
Y-24500D01*
X147800D01*
Y-25300D01*
X149400D01*
Y-26100D01*
X151800D01*
Y-26900D01*
X153400D01*
Y-26100D01*
X154200D01*
Y-24500D01*
X155000D01*
Y-23700D01*
X152600D01*
Y-22900D01*
X155000D01*
Y-22100D01*
X145400D01*
Y-20500D01*
X146200D01*
Y-21300D01*
X153400D01*
Y-20500D01*
X152600D01*
Y-19700D01*
X151800D01*
Y-18900D01*
X150200D01*
Y-18100D01*
X148600D01*
Y-17300D01*
X147800D01*
Y-16500D01*
X147000D01*
Y-15700D01*
X145400D01*
Y-14900D01*
X143800D01*
Y-14100D01*
X143000D01*
Y-15700D01*
X143800D01*
Y-16500D01*
X144600D01*
Y-18900D01*
X143800D01*
Y-17300D01*
X143000D01*
Y-15700D01*
X142200D01*
Y-14100D01*
X141400D01*
Y-13300D01*
X140600D01*
Y-14100D01*
X139800D01*
Y-12500D01*
X140600D01*
Y-11700D01*
X141400D01*
Y-12500D01*
D02*
G37*
G36*
X188600Y-23700D02*
X186200D01*
Y-22900D01*
X188600D01*
Y-23700D01*
D02*
G37*
G36*
X151800Y-24500D02*
X149400D01*
Y-23700D01*
X151800D01*
Y-24500D01*
D02*
G37*
G36*
X208600Y-22900D02*
X214200D01*
Y-22100D01*
X215000D01*
Y-22900D01*
X215800D01*
Y-23700D01*
X215000D01*
Y-24500D01*
X214200D01*
Y-23700D01*
X208600D01*
Y-24500D01*
X207800D01*
Y-30100D01*
X207000D01*
Y-23700D01*
X206200D01*
Y-22900D01*
X207800D01*
Y-19700D01*
X208600D01*
Y-22900D01*
D02*
G37*
%LPC*%
G36*
X239000Y-23700D02*
X238200D01*
Y-24500D01*
X239000D01*
Y-26900D01*
X239800D01*
Y-24500D01*
X239000D01*
Y-23700D01*
D02*
G37*
G36*
X237400Y-37300D02*
X236600D01*
Y-38100D01*
X235800D01*
Y-39700D01*
X235000D01*
Y-40500D01*
X235800D01*
Y-41300D01*
X237400D01*
Y-37300D01*
D02*
G37*
G36*
X175800Y-38900D02*
X167000D01*
Y-40500D01*
X167800D01*
Y-42100D01*
X168600D01*
Y-42900D01*
X169400D01*
Y-43700D01*
X178200D01*
Y-42900D01*
X175800D01*
Y-42100D01*
X177400D01*
Y-41300D01*
X176600D01*
Y-40500D01*
X175800D01*
Y-38900D01*
D02*
G37*
G36*
X187000D02*
X178200D01*
Y-40500D01*
X179000D01*
Y-42100D01*
X179800D01*
Y-42900D01*
X180600D01*
Y-43700D01*
X190200D01*
Y-42900D01*
X189400D01*
Y-41300D01*
X188600D01*
Y-40500D01*
X186200D01*
Y-39700D01*
X187000D01*
Y-38900D01*
D02*
G37*
G36*
X164600D02*
X155800D01*
Y-40500D01*
X156600D01*
Y-42100D01*
X157400D01*
Y-42900D01*
X159000D01*
Y-43700D01*
X167000D01*
Y-42900D01*
X165400D01*
Y-42100D01*
X166200D01*
Y-41300D01*
X165400D01*
Y-39700D01*
X164600D01*
Y-38900D01*
D02*
G37*
G36*
X189400Y-30100D02*
X188600D01*
Y-35700D01*
X189400D01*
Y-34900D01*
X190200D01*
Y-30900D01*
X189400D01*
Y-30100D01*
D02*
G37*
G36*
X163800Y-27700D02*
X159000D01*
Y-28500D01*
X157400D01*
Y-30900D01*
X158200D01*
Y-31700D01*
X160600D01*
Y-32500D01*
X159800D01*
Y-33300D01*
X158200D01*
Y-34100D01*
X157400D01*
Y-34900D01*
X156600D01*
Y-30900D01*
X155800D01*
Y-29300D01*
X155000D01*
Y-35700D01*
X155800D01*
Y-36500D01*
X155000D01*
Y-38100D01*
X156600D01*
Y-36500D01*
X157400D01*
Y-38100D01*
X164600D01*
Y-37300D01*
X163000D01*
Y-36500D01*
X164600D01*
Y-29300D01*
X163000D01*
Y-28500D01*
X163800D01*
Y-27700D01*
D02*
G37*
G36*
X169400Y-31700D02*
X168600D01*
Y-34100D01*
X169400D01*
Y-35700D01*
X168600D01*
Y-37300D01*
X169400D01*
Y-38100D01*
X175000D01*
Y-37300D01*
X174200D01*
Y-36500D01*
X173400D01*
Y-35700D01*
X172600D01*
Y-34900D01*
X171800D01*
Y-34100D01*
X171000D01*
Y-33300D01*
X170200D01*
Y-32500D01*
X169400D01*
Y-31700D01*
D02*
G37*
G36*
X181400Y-23700D02*
X179000D01*
Y-24500D01*
X178200D01*
Y-26100D01*
X177400D01*
Y-27700D01*
X181400D01*
Y-28500D01*
X179800D01*
Y-30900D01*
X180600D01*
Y-32500D01*
X182200D01*
Y-31700D01*
X183000D01*
Y-30900D01*
X183800D01*
Y-30100D01*
X185400D01*
Y-30900D01*
X184600D01*
Y-31700D01*
X183800D01*
Y-32500D01*
X183000D01*
Y-33300D01*
X183800D01*
Y-34100D01*
X184600D01*
Y-35700D01*
X183800D01*
Y-34900D01*
X183000D01*
Y-34100D01*
X182200D01*
Y-33300D01*
X181400D01*
Y-34100D01*
X180600D01*
Y-33300D01*
X179800D01*
Y-31700D01*
X179000D01*
Y-30900D01*
X178200D01*
Y-30100D01*
X177400D01*
Y-35700D01*
X178200D01*
Y-36500D01*
X177400D01*
Y-37300D01*
X176600D01*
Y-28500D01*
X175800D01*
Y-37300D01*
X176600D01*
Y-38100D01*
X179000D01*
Y-35700D01*
X178200D01*
Y-34900D01*
X179000D01*
Y-34100D01*
X180600D01*
Y-34900D01*
X179800D01*
Y-38100D01*
X187000D01*
Y-37300D01*
X186200D01*
Y-36500D01*
X187000D01*
Y-29300D01*
X186200D01*
Y-28500D01*
X187000D01*
Y-26900D01*
X186200D01*
Y-26100D01*
X184600D01*
Y-25300D01*
X180600D01*
Y-24500D01*
X181400D01*
Y-23700D01*
D02*
G37*
G36*
X175000Y-27700D02*
X174200D01*
Y-28500D01*
X171800D01*
Y-27700D01*
X169400D01*
Y-28500D01*
X168600D01*
Y-30100D01*
X169400D01*
Y-30900D01*
X170200D01*
Y-32500D01*
X171800D01*
Y-34100D01*
X173400D01*
Y-34900D01*
X174200D01*
Y-35700D01*
X175000D01*
Y-30100D01*
X174200D01*
Y-29300D01*
X175000D01*
Y-27700D01*
D02*
G37*
G36*
X178200Y-22100D02*
X168600D01*
Y-22900D01*
X170200D01*
Y-23700D01*
X174200D01*
Y-24500D01*
X172600D01*
Y-25300D01*
X169400D01*
Y-24500D01*
X170200D01*
Y-23700D01*
X167800D01*
Y-25300D01*
X169400D01*
Y-26100D01*
X167800D01*
Y-25300D01*
X167000D01*
Y-26100D01*
X166200D01*
Y-26900D01*
X175000D01*
Y-26100D01*
X176600D01*
Y-24500D01*
X177400D01*
Y-23700D01*
X174200D01*
Y-22900D01*
X178200D01*
Y-22100D01*
D02*
G37*
G36*
X197400D02*
X191000D01*
Y-22900D01*
X191800D01*
Y-23700D01*
X196600D01*
Y-22900D01*
X197400D01*
Y-22100D01*
D02*
G37*
G36*
X167000D02*
X158200D01*
Y-22900D01*
X157400D01*
Y-23700D01*
X156600D01*
Y-25300D01*
X155800D01*
Y-26900D01*
X164600D01*
Y-26100D01*
X165400D01*
Y-24500D01*
X166200D01*
Y-23700D01*
X165400D01*
Y-22900D01*
X167000D01*
Y-22100D01*
D02*
G37*
G36*
X166200Y-28500D02*
X165400D01*
Y-36500D01*
X166200D01*
Y-37300D01*
X165400D01*
Y-38100D01*
X168600D01*
Y-37300D01*
X167800D01*
Y-36500D01*
X166200D01*
Y-35700D01*
X167000D01*
Y-34900D01*
X167800D01*
Y-30900D01*
X167000D01*
Y-30100D01*
X166200D01*
Y-28500D01*
D02*
G37*
%LPD*%
G36*
X174200Y-41300D02*
X175000D01*
Y-42100D01*
X171800D01*
Y-42900D01*
X170200D01*
Y-42100D01*
X171000D01*
Y-41300D01*
X170200D01*
Y-40500D01*
X174200D01*
Y-41300D01*
D02*
G37*
G36*
X169400Y-40500D02*
X167800D01*
Y-39700D01*
X169400D01*
Y-40500D01*
D02*
G37*
G36*
X188600Y-42900D02*
X187000D01*
Y-42100D01*
X188600D01*
Y-42900D01*
D02*
G37*
G36*
X183000D02*
X181400D01*
Y-42100D01*
X183000D01*
Y-42900D01*
D02*
G37*
G36*
X185400Y-41300D02*
X186200D01*
Y-42100D01*
X183000D01*
Y-41300D01*
X181400D01*
Y-40500D01*
X185400D01*
Y-41300D01*
D02*
G37*
G36*
X180600Y-40500D02*
X179000D01*
Y-39700D01*
X180600D01*
Y-40500D01*
D02*
G37*
G36*
X163000Y-41300D02*
X164600D01*
Y-42100D01*
X160600D01*
Y-41300D01*
X159000D01*
Y-40500D01*
X163000D01*
Y-41300D01*
D02*
G37*
G36*
X159800Y-42900D02*
X159000D01*
Y-42100D01*
X159800D01*
Y-42900D01*
D02*
G37*
G36*
X163000Y-30100D02*
X162200D01*
Y-29300D01*
X163000D01*
Y-30100D01*
D02*
G37*
G36*
X156600Y-35700D02*
X155800D01*
Y-34900D01*
X156600D01*
Y-35700D01*
D02*
G37*
G36*
X162200Y-30900D02*
X161400D01*
Y-30100D01*
X162200D01*
Y-30900D01*
D02*
G37*
G36*
X161400Y-31700D02*
X160600D01*
Y-30900D01*
X161400D01*
Y-31700D01*
D02*
G37*
G36*
X170200Y-34100D02*
X169400D01*
Y-33300D01*
X170200D01*
Y-34100D01*
D02*
G37*
G36*
X186200Y-30100D02*
X185400D01*
Y-29300D01*
X186200D01*
Y-30100D01*
D02*
G37*
G36*
X180600Y-26100D02*
X179000D01*
Y-25300D01*
X180600D01*
Y-26100D01*
D02*
G37*
G36*
X174200Y-30900D02*
X173400D01*
Y-30100D01*
X174200D01*
Y-30900D01*
D02*
G37*
G36*
X173400Y-31700D02*
X172600D01*
Y-30900D01*
X173400D01*
Y-31700D01*
D02*
G37*
G36*
X172600Y-32500D02*
X171800D01*
Y-31700D01*
X172600D01*
Y-32500D01*
D02*
G37*
G36*
X163800Y-24500D02*
X162200D01*
Y-25300D01*
X163800D01*
Y-26100D01*
X162200D01*
Y-25300D01*
X159000D01*
Y-23700D01*
X163800D01*
Y-24500D01*
D02*
G37*
D13*
X227000Y-101500D02*
Y-95500D01*
X214000Y-101500D02*
X227000D01*
X214000D02*
Y-95500D01*
X227000D01*
X144500Y-101500D02*
Y-95500D01*
X131500Y-101500D02*
X144500D01*
X131500D02*
Y-95500D01*
X144500D01*
X171500Y-101500D02*
Y-95500D01*
X184500D01*
Y-101500D02*
Y-95500D01*
X171500Y-101500D02*
X184500D01*
X37500Y-91500D02*
X41500D01*
X37500Y-97500D02*
Y-91500D01*
Y-97500D02*
X41500D01*
X46500D02*
X50500D01*
Y-91500D01*
X46500D02*
X50500D01*
X37500Y-51500D02*
X41500D01*
X37500Y-57500D02*
Y-51500D01*
Y-57500D02*
X41500D01*
X46500D02*
X50500D01*
Y-51500D01*
X46500D02*
X50500D01*
X213795Y147028D02*
X216945D01*
X139658Y76028D02*
Y147028D01*
X116158Y76028D02*
Y147028D01*
X142658D01*
X116158Y76028D02*
X142658D01*
X216945Y142303D02*
Y147028D01*
Y76028D02*
Y80886D01*
X97000Y113000D02*
X103000D01*
X103500Y115000D02*
Y134000D01*
X96500Y115000D02*
Y134000D01*
X103500D01*
X96500Y115000D02*
X103500D01*
X75500Y72500D02*
X79500D01*
X75500Y66500D02*
Y72500D01*
Y66500D02*
X79500D01*
X84500D02*
X88500D01*
Y72500D01*
X84500D02*
X88500D01*
X139500Y168500D02*
X143500D01*
X139500Y162500D02*
Y168500D01*
Y162500D02*
X143500D01*
X148500D02*
X152500D01*
Y168500D01*
X148500D02*
X152500D01*
X139500Y161500D02*
X143500D01*
X139500Y155500D02*
Y161500D01*
Y155500D02*
X143500D01*
X148500D02*
X152500D01*
Y161500D01*
X148500D02*
X152500D01*
X130000Y194000D02*
X136000D01*
Y181000D02*
Y194000D01*
X130000Y181000D02*
X136000D01*
X130000D02*
Y194000D01*
X84500Y73500D02*
X88500D01*
Y79500D01*
X84500D02*
X88500D01*
X75500D02*
X79500D01*
X75500Y73500D02*
Y79500D01*
Y73500D02*
X79500D01*
X75500Y107500D02*
X79500D01*
X75500Y101500D02*
Y107500D01*
Y101500D02*
X79500D01*
X84500D02*
X88500D01*
Y107500D01*
X84500D02*
X88500D01*
X75500Y121500D02*
X79500D01*
X75500Y115500D02*
Y121500D01*
Y115500D02*
X79500D01*
X84500D02*
X88500D01*
Y121500D01*
X84500D02*
X88500D01*
X75500Y128500D02*
X79500D01*
X75500Y122500D02*
Y128500D01*
Y122500D02*
X79500D01*
X84500D02*
X88500D01*
Y128500D01*
X84500D02*
X88500D01*
X75500Y135500D02*
X79500D01*
X75500Y129500D02*
Y135500D01*
Y129500D02*
X79500D01*
X84500D02*
X88500D01*
Y135500D01*
X84500D02*
X88500D01*
X75500Y172500D02*
Y178500D01*
X88500D01*
Y172500D02*
Y178500D01*
X75500Y172500D02*
X88500D01*
X84500Y80500D02*
X88500D01*
Y86500D01*
X84500D02*
X88500D01*
X75500D02*
X79500D01*
X75500Y80500D02*
Y86500D01*
Y80500D02*
X79500D01*
X84500Y87500D02*
X88500D01*
Y93500D01*
X84500D02*
X88500D01*
X75500D02*
X79500D01*
X75500Y87500D02*
Y93500D01*
Y87500D02*
X79500D01*
X84500Y94500D02*
X88500D01*
Y100500D01*
X84500D02*
X88500D01*
X75500D02*
X79500D01*
X75500Y94500D02*
Y100500D01*
Y94500D02*
X79500D01*
X75500Y114500D02*
X79500D01*
X75500Y108500D02*
Y114500D01*
Y108500D02*
X79500D01*
X84500D02*
X88500D01*
Y114500D01*
X84500D02*
X88500D01*
X84500Y136500D02*
X88500D01*
Y142500D01*
X84500D02*
X88500D01*
X75500D02*
X79500D01*
X75500Y136500D02*
Y142500D01*
Y136500D02*
X79500D01*
X84500Y143500D02*
X88500D01*
Y149500D01*
X84500D02*
X88500D01*
X75500D02*
X79500D01*
X75500Y143500D02*
Y149500D01*
Y143500D02*
X79500D01*
X123000Y181000D02*
Y185000D01*
Y181000D02*
X129000D01*
Y185000D01*
Y190000D02*
Y194000D01*
X123000D02*
X129000D01*
X123000Y190000D02*
Y194000D01*
X84500Y150500D02*
X88500D01*
Y156500D01*
X84500D02*
X88500D01*
X75500D02*
X79500D01*
X75500Y150500D02*
Y156500D01*
Y150500D02*
X79500D01*
X84500Y157500D02*
X88500D01*
Y163500D01*
X84500D02*
X88500D01*
X75500D02*
X79500D01*
X75500Y157500D02*
Y163500D01*
Y157500D02*
X79500D01*
X88500Y185500D02*
Y191500D01*
X75500Y185500D02*
X88500D01*
X75500D02*
Y191500D01*
X88500D01*
X116000Y181000D02*
Y185000D01*
Y181000D02*
X122000D01*
Y185000D01*
Y190000D02*
Y194000D01*
X116000D02*
X122000D01*
X116000Y190000D02*
Y194000D01*
X88500Y179500D02*
Y185500D01*
X75500Y179500D02*
X88500D01*
X75500D02*
Y185500D01*
X88500D01*
X240475Y-79782D02*
X244718Y-84025D01*
X235525Y-93217D02*
X244718Y-84025D01*
X231282Y-88975D02*
X235525Y-93217D01*
X231282Y-88975D02*
X240475Y-79782D01*
X75500Y170500D02*
X79500D01*
X75500Y164500D02*
Y170500D01*
Y164500D02*
X79500D01*
X84500D02*
X88500D01*
Y170500D01*
X84500D02*
X88500D01*
Y59500D02*
Y65500D01*
X75500Y59500D02*
X88500D01*
X75500D02*
Y65500D01*
X88500D01*
Y53500D02*
Y59500D01*
X75500Y53500D02*
X88500D01*
X75500D02*
Y59500D01*
X88500D01*
X106500Y-101500D02*
Y-95500D01*
X93500Y-101500D02*
X106500D01*
X93500D02*
Y-95500D01*
X106500D01*
X7000Y66700D02*
G03*
X9800Y69500I0J2800D01*
G01*
X4000Y66700D02*
G03*
X0Y62700I0J-4000D01*
G01*
X9800Y171500D02*
G03*
X6400Y174900I-3400J0D01*
G01*
X0Y178300D02*
G03*
X3400Y174900I3400J0D01*
G01*
X0Y-113500D02*
G03*
X10000Y-123500I10000J0D01*
G01*
X10000Y219500D02*
G03*
X0Y209500I0J-10000D01*
G01*
X274500Y209500D02*
G03*
X264500Y219500I-10000J0D01*
G01*
X264500Y-123500D02*
G03*
X274500Y-113500I0J10000D01*
G01*
X0Y178300D02*
Y209500D01*
X9800Y69500D02*
Y171500D01*
X0Y-113500D02*
Y62700D01*
X10000Y-123500D02*
X264500D01*
X274500Y-113500D02*
Y209500D01*
D15*
X99000Y-13751D02*
X106498D01*
X102749Y-17500D01*
Y-12502D01*
X99000Y-22502D02*
Y-27500D01*
X103998Y-22502D01*
X105248D01*
X106498Y-23751D01*
Y-26250D01*
X105248Y-27500D01*
Y-37500D02*
X106498Y-36250D01*
Y-33751D01*
X105248Y-32502D01*
X100250D01*
X99000Y-33751D01*
Y-36250D01*
X100250Y-37500D01*
X105248D01*
X99000Y-42502D02*
Y-47500D01*
X103998Y-42502D01*
X105248D01*
X106498Y-43751D01*
Y-46250D01*
X105248Y-47500D01*
D16*
X115999Y37000D02*
Y39666D01*
Y38333D01*
X112000D01*
Y40999D02*
X115999D01*
Y42998D01*
X115332Y43665D01*
X113999D01*
X113333Y42998D01*
Y40999D01*
X112000Y44997D02*
Y46330D01*
Y45664D01*
X115999D01*
X115332Y44997D01*
X135999Y31000D02*
Y33666D01*
Y32333D01*
X132000D01*
Y34999D02*
X135999D01*
Y36998D01*
X135332Y37664D01*
X133999D01*
X133333Y36998D01*
Y34999D01*
X132000Y41663D02*
Y38997D01*
X134666Y41663D01*
X135332D01*
X135999Y40997D01*
Y39664D01*
X135332Y38997D01*
Y42996D02*
X135999Y43663D01*
Y44995D01*
X135332Y45662D01*
X134666D01*
X133999Y44995D01*
Y44329D01*
Y44995D01*
X133333Y45662D01*
X132667D01*
X132000Y44995D01*
Y43663D01*
X132667Y42996D01*
X166999Y166500D02*
Y169166D01*
Y167833D01*
X163000D01*
Y170499D02*
X166999D01*
Y172498D01*
X166332Y173164D01*
X164999D01*
X164333Y172498D01*
Y170499D01*
X166999Y177163D02*
Y174497D01*
X164999D01*
X165666Y175830D01*
Y176497D01*
X164999Y177163D01*
X163666D01*
X163000Y176497D01*
Y175164D01*
X163666Y174497D01*
X158999Y166500D02*
Y169166D01*
Y167833D01*
X155000D01*
Y170499D02*
X158999D01*
Y172498D01*
X158332Y173164D01*
X156999D01*
X156333Y172498D01*
Y170499D01*
X155000Y176497D02*
X158999D01*
X156999Y174497D01*
Y177163D01*
X225999Y30500D02*
Y33166D01*
Y31833D01*
X222000D01*
Y34499D02*
X225999D01*
Y36498D01*
X225332Y37165D01*
X223999D01*
X223333Y36498D01*
Y34499D01*
X225332Y38497D02*
X225999Y39164D01*
Y40497D01*
X225332Y41163D01*
X224666D01*
X223999Y40497D01*
Y39830D01*
Y40497D01*
X223333Y41163D01*
X222666D01*
X222000Y40497D01*
Y39164D01*
X222666Y38497D01*
X225999Y45162D02*
Y42496D01*
X223999D01*
X224666Y43829D01*
Y44495D01*
X223999Y45162D01*
X222666D01*
X222000Y44495D01*
Y43163D01*
X222666Y42496D01*
X145999Y192500D02*
Y195166D01*
Y193833D01*
X142000D01*
Y196499D02*
X145999D01*
Y198498D01*
X145332Y199164D01*
X143999D01*
X143333Y198498D01*
Y196499D01*
X142000Y203163D02*
Y200497D01*
X144666Y203163D01*
X145332D01*
X145999Y202497D01*
Y201164D01*
X145332Y200497D01*
X142000Y207162D02*
Y204496D01*
X144666Y207162D01*
X145332D01*
X145999Y206495D01*
Y205163D01*
X145332Y204496D01*
X99102Y191166D02*
Y193832D01*
X99768Y194499D01*
X101101D01*
X101768Y193832D01*
Y191166D01*
X101101Y190500D01*
X99768D01*
X100435Y191833D02*
X99102Y190500D01*
X99768D02*
X99102Y191166D01*
X97769Y193832D02*
X97102Y194499D01*
X95770D01*
X95103Y193832D01*
Y193166D01*
X95770Y192499D01*
X96436D01*
X95770D01*
X95103Y191833D01*
Y191166D01*
X95770Y190500D01*
X97102D01*
X97769Y191166D01*
X237000Y67499D02*
X234334D01*
X235667D01*
Y63500D01*
X233001D02*
Y67499D01*
X231002D01*
X230335Y66832D01*
Y65499D01*
X231002Y64833D01*
X233001D01*
X227003Y63500D02*
Y67499D01*
X229003Y65499D01*
X226337D01*
X225004Y66832D02*
X224337Y67499D01*
X223005D01*
X222338Y66832D01*
Y66166D01*
X223005Y65499D01*
X222338Y64833D01*
Y64166D01*
X223005Y63500D01*
X224337D01*
X225004Y64166D01*
Y64833D01*
X224337Y65499D01*
X225004Y66166D01*
Y66832D01*
X224337Y65499D02*
X223005D01*
X237000Y77499D02*
X234334D01*
X235667D01*
Y73500D01*
X233001D02*
Y77499D01*
X231002D01*
X230335Y76832D01*
Y75499D01*
X231002Y74833D01*
X233001D01*
X227003Y73500D02*
Y77499D01*
X229003Y75499D01*
X226337D01*
X225004Y77499D02*
X222338D01*
Y76832D01*
X225004Y74166D01*
Y73500D01*
X237000Y157499D02*
X234334D01*
X235667D01*
Y153500D01*
X233001D02*
Y157499D01*
X231002D01*
X230335Y156832D01*
Y155499D01*
X231002Y154833D01*
X233001D01*
X227003Y153500D02*
Y157499D01*
X229003Y155499D01*
X226337D01*
X222338Y157499D02*
X223671Y156832D01*
X225004Y155499D01*
Y154166D01*
X224337Y153500D01*
X223005D01*
X222338Y154166D01*
Y154833D01*
X223005Y155499D01*
X225004D01*
X245999Y30500D02*
Y33166D01*
Y31833D01*
X242000D01*
Y34499D02*
X245999D01*
Y36498D01*
X245332Y37165D01*
X243999D01*
X243333Y36498D01*
Y34499D01*
X242000Y40497D02*
X245999D01*
X243999Y38497D01*
Y41163D01*
X245999Y45162D02*
Y42496D01*
X243999D01*
X244666Y43829D01*
Y44495D01*
X243999Y45162D01*
X242666D01*
X242000Y44495D01*
Y43163D01*
X242666Y42496D01*
X155999Y31000D02*
Y33666D01*
Y32333D01*
X152000D01*
Y34999D02*
X155999D01*
Y36998D01*
X155332Y37664D01*
X153999D01*
X153333Y36998D01*
Y34999D01*
X152000Y40997D02*
X155999D01*
X153999Y38997D01*
Y41663D01*
X152000Y45662D02*
Y42996D01*
X154666Y45662D01*
X155332D01*
X155999Y44995D01*
Y43663D01*
X155332Y42996D01*
X165999Y31000D02*
Y33666D01*
Y32333D01*
X162000D01*
Y34999D02*
X165999D01*
Y36998D01*
X165332Y37664D01*
X163999D01*
X163333Y36998D01*
Y34999D01*
X162000Y40997D02*
X165999D01*
X163999Y38997D01*
Y41663D01*
X162000Y42996D02*
Y44329D01*
Y43663D01*
X165999D01*
X165332Y42996D01*
X175999Y30500D02*
Y33166D01*
Y31833D01*
X172000D01*
Y34499D02*
X175999D01*
Y36498D01*
X175332Y37165D01*
X173999D01*
X173333Y36498D01*
Y34499D01*
X172000Y40497D02*
X175999D01*
X173999Y38497D01*
Y41163D01*
X175332Y42496D02*
X175999Y43163D01*
Y44495D01*
X175332Y45162D01*
X172667D01*
X172000Y44495D01*
Y43163D01*
X172667Y42496D01*
X175332D01*
X185999Y30500D02*
Y33166D01*
Y31833D01*
X182000D01*
Y34499D02*
X185999D01*
Y36498D01*
X185332Y37165D01*
X183999D01*
X183333Y36498D01*
Y34499D01*
X185332Y38497D02*
X185999Y39164D01*
Y40497D01*
X185332Y41163D01*
X184666D01*
X183999Y40497D01*
Y39830D01*
Y40497D01*
X183333Y41163D01*
X182667D01*
X182000Y40497D01*
Y39164D01*
X182667Y38497D01*
Y42496D02*
X182000Y43163D01*
Y44495D01*
X182667Y45162D01*
X185332D01*
X185999Y44495D01*
Y43163D01*
X185332Y42496D01*
X184666D01*
X183999Y43163D01*
Y45162D01*
X195999Y30500D02*
Y33166D01*
Y31833D01*
X192000D01*
Y34499D02*
X195999D01*
Y36498D01*
X195332Y37165D01*
X193999D01*
X193333Y36498D01*
Y34499D01*
X195332Y38497D02*
X195999Y39164D01*
Y40497D01*
X195332Y41163D01*
X194666D01*
X193999Y40497D01*
Y39830D01*
Y40497D01*
X193333Y41163D01*
X192666D01*
X192000Y40497D01*
Y39164D01*
X192666Y38497D01*
X195332Y42496D02*
X195999Y43163D01*
Y44495D01*
X195332Y45162D01*
X194666D01*
X193999Y44495D01*
X193333Y45162D01*
X192666D01*
X192000Y44495D01*
Y43163D01*
X192666Y42496D01*
X193333D01*
X193999Y43163D01*
X194666Y42496D01*
X195332D01*
X193999Y43163D02*
Y44495D01*
X204999Y30500D02*
Y33166D01*
Y31833D01*
X201000D01*
Y34499D02*
X204999D01*
Y36498D01*
X204332Y37165D01*
X202999D01*
X202333Y36498D01*
Y34499D01*
X204332Y38497D02*
X204999Y39164D01*
Y40497D01*
X204332Y41163D01*
X203666D01*
X202999Y40497D01*
Y39830D01*
Y40497D01*
X202333Y41163D01*
X201666D01*
X201000Y40497D01*
Y39164D01*
X201666Y38497D01*
X204999Y42496D02*
Y45162D01*
X204332D01*
X201666Y42496D01*
X201000D01*
X215999Y30500D02*
Y33166D01*
Y31833D01*
X212000D01*
Y34499D02*
X215999D01*
Y36498D01*
X215332Y37165D01*
X213999D01*
X213333Y36498D01*
Y34499D01*
X215332Y38497D02*
X215999Y39164D01*
Y40497D01*
X215332Y41163D01*
X214666D01*
X213999Y40497D01*
Y39830D01*
Y40497D01*
X213333Y41163D01*
X212666D01*
X212000Y40497D01*
Y39164D01*
X212666Y38497D01*
X215999Y45162D02*
X215332Y43829D01*
X213999Y42496D01*
X212666D01*
X212000Y43163D01*
Y44495D01*
X212666Y45162D01*
X213333D01*
X213999Y44495D01*
Y42496D01*
X145999Y31000D02*
Y33666D01*
Y32333D01*
X142000D01*
Y34999D02*
X145999D01*
Y36998D01*
X145332Y37664D01*
X143999D01*
X143333Y36998D01*
Y34999D01*
X142000Y41663D02*
Y38997D01*
X144666Y41663D01*
X145332D01*
X145999Y40997D01*
Y39664D01*
X145332Y38997D01*
X142000Y44995D02*
X145999D01*
X143999Y42996D01*
Y45662D01*
X266000Y177499D02*
X263334D01*
X264667D01*
Y173500D01*
X262001D02*
Y177499D01*
X260002D01*
X259335Y176832D01*
Y175499D01*
X260002Y174833D01*
X262001D01*
X255337Y173500D02*
X258003D01*
X255337Y176166D01*
Y176832D01*
X256003Y177499D01*
X257336D01*
X258003Y176832D01*
X254004D02*
X253337Y177499D01*
X252005D01*
X251338Y176832D01*
Y174167D01*
X252005Y173500D01*
X253337D01*
X254004Y174167D01*
Y176832D01*
X72500Y187000D02*
Y190999D01*
X70501D01*
X69834Y190332D01*
Y188999D01*
X70501Y188333D01*
X72500D01*
X71167D02*
X69834Y187000D01*
X68501D02*
X67168D01*
X67835D01*
Y190999D01*
X68501Y190332D01*
X62503Y187000D02*
X65169D01*
X62503Y189666D01*
Y190332D01*
X63170Y190999D01*
X64503D01*
X65169Y190332D01*
X72500Y181000D02*
Y184999D01*
X70501D01*
X69834Y184332D01*
Y182999D01*
X70501Y182333D01*
X72500D01*
X71167D02*
X69834Y181000D01*
X68501D02*
X67168D01*
X67835D01*
Y184999D01*
X68501Y184332D01*
X65169Y181000D02*
X63836D01*
X64503D01*
Y184999D01*
X65169Y184332D01*
X70000Y175000D02*
Y178999D01*
X68001D01*
X67334Y178332D01*
Y176999D01*
X68001Y176333D01*
X70000D01*
X68667D02*
X67334Y175000D01*
X66001D02*
X64668D01*
X65335D01*
Y178999D01*
X66001Y178332D01*
X62669D02*
X62003Y178999D01*
X60670D01*
X60003Y178332D01*
Y175666D01*
X60670Y175000D01*
X62003D01*
X62669Y175666D01*
Y178332D01*
X73000Y60500D02*
Y64499D01*
X71001D01*
X70334Y63832D01*
Y62499D01*
X71001Y61833D01*
X73000D01*
X71667D02*
X70334Y60500D01*
X69001Y61166D02*
X68335Y60500D01*
X67002D01*
X66335Y61166D01*
Y63832D01*
X67002Y64499D01*
X68335D01*
X69001Y63832D01*
Y63166D01*
X68335Y62499D01*
X66335D01*
X73000Y54500D02*
Y58499D01*
X71001D01*
X70334Y57832D01*
Y56499D01*
X71001Y55833D01*
X73000D01*
X71667D02*
X70334Y54500D01*
X69001Y57832D02*
X68335Y58499D01*
X67002D01*
X66335Y57832D01*
Y57166D01*
X67002Y56499D01*
X66335Y55833D01*
Y55166D01*
X67002Y54500D01*
X68335D01*
X69001Y55166D01*
Y55833D01*
X68335Y56499D01*
X69001Y57166D01*
Y57832D01*
X68335Y56499D02*
X67002D01*
X103000Y-93000D02*
Y-89001D01*
X101001D01*
X100334Y-89668D01*
Y-91001D01*
X101001Y-91667D01*
X103000D01*
X101667D02*
X100334Y-93000D01*
X99001Y-89001D02*
X96336D01*
Y-89668D01*
X99001Y-92334D01*
Y-93000D01*
X70334Y161832D02*
X71001Y162499D01*
X72334D01*
X73000Y161832D01*
Y159167D01*
X72334Y158500D01*
X71001D01*
X70334Y159167D01*
X66335Y158500D02*
X69001D01*
X66335Y161166D01*
Y161832D01*
X67002Y162499D01*
X68335D01*
X69001Y161832D01*
X65003Y158500D02*
X63670D01*
X64336D01*
Y162499D01*
X65003Y161832D01*
X127332Y168166D02*
X127999Y167499D01*
Y166166D01*
X127332Y165500D01*
X124667D01*
X124000Y166166D01*
Y167499D01*
X124667Y168166D01*
X124000Y172164D02*
Y169499D01*
X126666Y172164D01*
X127332D01*
X127999Y171498D01*
Y170165D01*
X127332Y169499D01*
Y173497D02*
X127999Y174164D01*
Y175497D01*
X127332Y176163D01*
X124667D01*
X124000Y175497D01*
Y174164D01*
X124667Y173497D01*
X127332D01*
X120332Y168166D02*
X120999Y167499D01*
Y166166D01*
X120332Y165500D01*
X117666D01*
X117000Y166166D01*
Y167499D01*
X117666Y168166D01*
X117000Y169499D02*
Y170832D01*
Y170165D01*
X120999D01*
X120332Y169499D01*
X117666Y172831D02*
X117000Y173497D01*
Y174830D01*
X117666Y175497D01*
X120332D01*
X120999Y174830D01*
Y173497D01*
X120332Y172831D01*
X119666D01*
X118999Y173497D01*
Y175497D01*
X70334Y153332D02*
X71001Y153999D01*
X72334D01*
X73000Y153332D01*
Y150666D01*
X72334Y150000D01*
X71001D01*
X70334Y150666D01*
X69001Y150000D02*
X67668D01*
X68335D01*
Y153999D01*
X69001Y153332D01*
X65669D02*
X65003Y153999D01*
X63670D01*
X63003Y153332D01*
Y152666D01*
X63670Y151999D01*
X63003Y151333D01*
Y150666D01*
X63670Y150000D01*
X65003D01*
X65669Y150666D01*
Y151333D01*
X65003Y151999D01*
X65669Y152666D01*
Y153332D01*
X65003Y151999D02*
X63670D01*
X67334Y146832D02*
X68001Y147499D01*
X69334D01*
X70000Y146832D01*
Y144167D01*
X69334Y143500D01*
X68001D01*
X67334Y144167D01*
X66001Y143500D02*
X64668D01*
X65335D01*
Y147499D01*
X66001Y146832D01*
X62669Y147499D02*
X60003D01*
Y146832D01*
X62669Y144167D01*
Y143500D01*
X70334Y137832D02*
X71001Y138499D01*
X72334D01*
X73000Y137832D01*
Y135167D01*
X72334Y134500D01*
X71001D01*
X70334Y135167D01*
X69001Y134500D02*
X67668D01*
X68335D01*
Y138499D01*
X69001Y137832D01*
X63003Y138499D02*
X64336Y137832D01*
X65669Y136499D01*
Y135167D01*
X65003Y134500D01*
X63670D01*
X63003Y135167D01*
Y135833D01*
X63670Y136499D01*
X65669D01*
X70334Y131832D02*
X71001Y132499D01*
X72334D01*
X73000Y131832D01*
Y129166D01*
X72334Y128500D01*
X71001D01*
X70334Y129166D01*
X69001Y128500D02*
X67668D01*
X68335D01*
Y132499D01*
X69001Y131832D01*
X63003Y132499D02*
X65669D01*
Y130499D01*
X64336Y131166D01*
X63670D01*
X63003Y130499D01*
Y129166D01*
X63670Y128500D01*
X65003D01*
X65669Y129166D01*
X64334Y168832D02*
X65001Y169499D01*
X66334D01*
X67000Y168832D01*
Y166166D01*
X66334Y165500D01*
X65001D01*
X64334Y166166D01*
X63001Y165500D02*
X61668D01*
X62335D01*
Y169499D01*
X63001Y168832D01*
X57670Y165500D02*
Y169499D01*
X59669Y167499D01*
X57003D01*
X70334Y125832D02*
X71001Y126499D01*
X72334D01*
X73000Y125832D01*
Y123167D01*
X72334Y122500D01*
X71001D01*
X70334Y123167D01*
X69001Y122500D02*
X67668D01*
X68335D01*
Y126499D01*
X69001Y125832D01*
X65669D02*
X65003Y126499D01*
X63670D01*
X63003Y125832D01*
Y125166D01*
X63670Y124499D01*
X64336D01*
X63670D01*
X63003Y123833D01*
Y123167D01*
X63670Y122500D01*
X65003D01*
X65669Y123167D01*
X70334Y119332D02*
X71001Y119999D01*
X72334D01*
X73000Y119332D01*
Y116666D01*
X72334Y116000D01*
X71001D01*
X70334Y116666D01*
X69001Y116000D02*
X67668D01*
X68335D01*
Y119999D01*
X69001Y119332D01*
X63003Y116000D02*
X65669D01*
X63003Y118666D01*
Y119332D01*
X63670Y119999D01*
X65003D01*
X65669Y119332D01*
X70334Y112332D02*
X71001Y112999D01*
X72334D01*
X73000Y112332D01*
Y109667D01*
X72334Y109000D01*
X71001D01*
X70334Y109667D01*
X69001Y109000D02*
X67668D01*
X68335D01*
Y112999D01*
X69001Y112332D01*
X65669Y109000D02*
X64336D01*
X65003D01*
Y112999D01*
X65669Y112332D01*
X70334Y105332D02*
X71001Y105999D01*
X72334D01*
X73000Y105332D01*
Y102666D01*
X72334Y102000D01*
X71001D01*
X70334Y102666D01*
X69001Y102000D02*
X67668D01*
X68335D01*
Y105999D01*
X69001Y105332D01*
X65669D02*
X65003Y105999D01*
X63670D01*
X63003Y105332D01*
Y102666D01*
X63670Y102000D01*
X65003D01*
X65669Y102666D01*
Y105332D01*
X70334Y98832D02*
X71001Y99499D01*
X72334D01*
X73000Y98832D01*
Y96166D01*
X72334Y95500D01*
X71001D01*
X70334Y96166D01*
X69001D02*
X68335Y95500D01*
X67002D01*
X66335Y96166D01*
Y98832D01*
X67002Y99499D01*
X68335D01*
X69001Y98832D01*
Y98166D01*
X68335Y97499D01*
X66335D01*
X70334Y91832D02*
X71001Y92499D01*
X72334D01*
X73000Y91832D01*
Y89166D01*
X72334Y88500D01*
X71001D01*
X70334Y89166D01*
X69001Y91832D02*
X68335Y92499D01*
X67002D01*
X66335Y91832D01*
Y91166D01*
X67002Y90499D01*
X66335Y89833D01*
Y89166D01*
X67002Y88500D01*
X68335D01*
X69001Y89166D01*
Y89833D01*
X68335Y90499D01*
X69001Y91166D01*
Y91832D01*
X68335Y90499D02*
X67002D01*
X70035Y84832D02*
X70702Y85499D01*
X72035D01*
X72701Y84832D01*
Y82166D01*
X72035Y81500D01*
X70702D01*
X70035Y82166D01*
X68703Y85499D02*
X66037D01*
Y84832D01*
X68703Y82166D01*
Y81500D01*
X70334Y76332D02*
X71001Y76999D01*
X72334D01*
X73000Y76332D01*
Y73666D01*
X72334Y73000D01*
X71001D01*
X70334Y73666D01*
X66335Y76999D02*
X67668Y76332D01*
X69001Y74999D01*
Y73666D01*
X68335Y73000D01*
X67002D01*
X66335Y73666D01*
Y74333D01*
X67002Y74999D01*
X69001D01*
X70334Y69832D02*
X71001Y70499D01*
X72334D01*
X73000Y69832D01*
Y67166D01*
X72334Y66500D01*
X71001D01*
X70334Y67166D01*
X66335Y70499D02*
X69001D01*
Y68499D01*
X67668Y69166D01*
X67002D01*
X66335Y68499D01*
Y67166D01*
X67002Y66500D01*
X68335D01*
X69001Y67166D01*
X224000Y-93000D02*
Y-89001D01*
X222001D01*
X221334Y-89668D01*
Y-91001D01*
X222001Y-91667D01*
X224000D01*
X222667D02*
X221334Y-93000D01*
X220001Y-89668D02*
X219335Y-89001D01*
X218002D01*
X217336Y-89668D01*
Y-90334D01*
X218002Y-91001D01*
X218668D01*
X218002D01*
X217336Y-91667D01*
Y-92334D01*
X218002Y-93000D01*
X219335D01*
X220001Y-92334D01*
X109999Y115500D02*
X106000D01*
Y117499D01*
X106667Y118166D01*
X109332D01*
X109999Y117499D01*
Y115500D01*
X106000Y122164D02*
Y119499D01*
X108666Y122164D01*
X109332D01*
X109999Y121498D01*
Y120165D01*
X109332Y119499D01*
X236000Y-80000D02*
X233172Y-77172D01*
X231759Y-78586D01*
Y-79529D01*
X232701Y-80471D01*
X233644D01*
X235057Y-79058D01*
X234115Y-80000D02*
Y-81885D01*
X228460D02*
X229874Y-81414D01*
X231759Y-81414D01*
X232701Y-82356D01*
Y-83299D01*
X231759Y-84241D01*
X230816D01*
X230345Y-83770D01*
Y-82828D01*
X231759Y-81414D01*
X181346Y-93000D02*
Y-89001D01*
X179347D01*
X178681Y-89668D01*
Y-91001D01*
X179347Y-91667D01*
X181346D01*
X180014D02*
X178681Y-93000D01*
X175348D02*
Y-89001D01*
X177348Y-91001D01*
X174682D01*
X141000Y-93000D02*
Y-89001D01*
X139001D01*
X138334Y-89668D01*
Y-91001D01*
X139001Y-91667D01*
X141000D01*
X139667D02*
X138334Y-93000D01*
X134335Y-89001D02*
X137001D01*
Y-91001D01*
X135668Y-90334D01*
X135002D01*
X134335Y-91001D01*
Y-92334D01*
X135002Y-93000D01*
X136335D01*
X137001Y-92334D01*
X99334Y171167D02*
Y173832D01*
X100001Y174499D01*
X101334D01*
X102000Y173832D01*
Y171167D01*
X101334Y170500D01*
X100001D01*
X100667Y171833D02*
X99334Y170500D01*
X100001D02*
X99334Y171167D01*
X95336Y170500D02*
X98001D01*
X95336Y173166D01*
Y173832D01*
X96002Y174499D01*
X97335D01*
X98001Y173832D01*
X99334Y151166D02*
Y153832D01*
X100001Y154499D01*
X101334D01*
X102000Y153832D01*
Y151166D01*
X101334Y150500D01*
X100001D01*
X100667Y151833D02*
X99334Y150500D01*
X100001D02*
X99334Y151166D01*
X98001Y150500D02*
X96668D01*
X97335D01*
Y154499D01*
X98001Y153832D01*
X113999Y77500D02*
X110667D01*
X110000Y78166D01*
Y79499D01*
X110667Y80166D01*
X113999D01*
X110000Y84165D02*
Y81499D01*
X112666Y84165D01*
X113332D01*
X113999Y83498D01*
Y82165D01*
X113332Y81499D01*
X237000Y117499D02*
X234334D01*
X235667D01*
Y113500D01*
X233001D02*
Y117499D01*
X231002D01*
X230335Y116832D01*
Y115499D01*
X231002Y114833D01*
X233001D01*
X229003Y113500D02*
X227670D01*
X228336D01*
Y117499D01*
X229003Y116832D01*
X223005Y113500D02*
X225670D01*
X223005Y116166D01*
Y116832D01*
X223671Y117499D01*
X225004D01*
X225670Y116832D01*
X237000Y97499D02*
X234334D01*
X235667D01*
Y93500D01*
X233001D02*
Y97499D01*
X231002D01*
X230335Y96832D01*
Y95499D01*
X231002Y94833D01*
X233001D01*
X229003Y93500D02*
X227670D01*
X228336D01*
Y97499D01*
X229003Y96832D01*
X223671Y93500D02*
Y97499D01*
X225670Y95499D01*
X223005D01*
X235999Y30500D02*
Y33166D01*
Y31833D01*
X232000D01*
Y34499D02*
X235999D01*
Y36498D01*
X235332Y37165D01*
X233999D01*
X233333Y36498D01*
Y34499D01*
X235332Y38497D02*
X235999Y39164D01*
Y40497D01*
X235332Y41163D01*
X232666D01*
X232000Y40497D01*
Y39164D01*
X232666Y38497D01*
X235332D01*
X205999Y164500D02*
Y167166D01*
Y165833D01*
X202000D01*
Y168499D02*
X205999D01*
Y170498D01*
X205332Y171165D01*
X203999D01*
X203333Y170498D01*
Y168499D01*
X202000Y172497D02*
Y173830D01*
Y173164D01*
X205999D01*
X205332Y172497D01*
X205999Y178496D02*
X205332Y177163D01*
X203999Y175830D01*
X202666D01*
X202000Y176496D01*
Y177829D01*
X202666Y178496D01*
X203333D01*
X203999Y177829D01*
Y175830D01*
X213499Y164500D02*
Y167166D01*
Y165833D01*
X209500D01*
Y168499D02*
X213499D01*
Y170498D01*
X212832Y171165D01*
X211499D01*
X210833Y170498D01*
Y168499D01*
X209500Y172497D02*
Y173830D01*
Y173164D01*
X213499D01*
X212832Y172497D01*
X213499Y175830D02*
Y178496D01*
X212832D01*
X210166Y175830D01*
X209500D01*
X232499Y193500D02*
Y196166D01*
Y194833D01*
X228500D01*
Y197499D02*
X232499D01*
Y199498D01*
X231832Y200165D01*
X230499D01*
X229833Y199498D01*
Y197499D01*
X228500Y201497D02*
Y202830D01*
Y202164D01*
X232499D01*
X231832Y201497D01*
Y204830D02*
X232499Y205496D01*
Y206829D01*
X231832Y207495D01*
X231166D01*
X230499Y206829D01*
X229833Y207495D01*
X229166D01*
X228500Y206829D01*
Y205496D01*
X229166Y204830D01*
X229833D01*
X230499Y205496D01*
X231166Y204830D01*
X231832D01*
X230499Y205496D02*
Y206829D01*
X266000Y187499D02*
X263334D01*
X264667D01*
Y183500D01*
X262001D02*
Y187499D01*
X260002D01*
X259335Y186832D01*
Y185499D01*
X260002Y184833D01*
X262001D01*
X258003Y183500D02*
X256670D01*
X257336D01*
Y187499D01*
X258003Y186832D01*
X254670Y184167D02*
X254004Y183500D01*
X252671D01*
X252005Y184167D01*
Y186832D01*
X252671Y187499D01*
X254004D01*
X254670Y186832D01*
Y186166D01*
X254004Y185499D01*
X252005D01*
X237000Y87499D02*
X234334D01*
X235667D01*
Y83500D01*
X233001D02*
Y87499D01*
X231002D01*
X230335Y86832D01*
Y85499D01*
X231002Y84833D01*
X233001D01*
X226337Y83500D02*
X229003D01*
X226337Y86166D01*
Y86832D01*
X227003Y87499D01*
X228336D01*
X229003Y86832D01*
X225004Y83500D02*
X223671D01*
X224337D01*
Y87499D01*
X225004Y86832D01*
X237000Y167499D02*
X234334D01*
X235667D01*
Y163500D01*
X233001D02*
Y167499D01*
X231002D01*
X230335Y166832D01*
Y165499D01*
X231002Y164833D01*
X233001D01*
X229003Y166832D02*
X228336Y167499D01*
X227003D01*
X226337Y166832D01*
Y166166D01*
X227003Y165499D01*
X227670D01*
X227003D01*
X226337Y164833D01*
Y164166D01*
X227003Y163500D01*
X228336D01*
X229003Y164166D01*
X125999Y35000D02*
Y37666D01*
Y36333D01*
X122000D01*
Y38999D02*
X125999D01*
Y40998D01*
X125332Y41664D01*
X123999D01*
X123333Y40998D01*
Y38999D01*
X122000Y45663D02*
Y42997D01*
X124666Y45663D01*
X125332D01*
X125999Y44997D01*
Y43664D01*
X125332Y42997D01*
X237000Y147499D02*
X234334D01*
X235667D01*
Y143500D01*
X233001D02*
Y147499D01*
X231002D01*
X230335Y146832D01*
Y145499D01*
X231002Y144833D01*
X233001D01*
X229003Y144167D02*
X228336Y143500D01*
X227003D01*
X226337Y144167D01*
Y146832D01*
X227003Y147499D01*
X228336D01*
X229003Y146832D01*
Y146166D01*
X228336Y145499D01*
X226337D01*
X237000Y137499D02*
X234334D01*
X235667D01*
Y133500D01*
X233001D02*
Y137499D01*
X231002D01*
X230335Y136832D01*
Y135499D01*
X231002Y134833D01*
X233001D01*
X229003Y133500D02*
X227670D01*
X228336D01*
Y137499D01*
X229003Y136832D01*
X225670D02*
X225004Y137499D01*
X223671D01*
X223005Y136832D01*
Y134167D01*
X223671Y133500D01*
X225004D01*
X225670Y134167D01*
Y136832D01*
X237000Y127499D02*
X234334D01*
X235667D01*
Y123500D01*
X233001D02*
Y127499D01*
X231002D01*
X230335Y126832D01*
Y125499D01*
X231002Y124833D01*
X233001D01*
X229003Y123500D02*
X227670D01*
X228336D01*
Y127499D01*
X229003Y126832D01*
X225670Y123500D02*
X224337D01*
X225004D01*
Y127499D01*
X225670Y126832D01*
X175999Y166500D02*
Y169166D01*
Y167833D01*
X172000D01*
Y170499D02*
X175999D01*
Y172498D01*
X175332Y173164D01*
X173999D01*
X173333Y172498D01*
Y170499D01*
X175999Y177163D02*
X175332Y175830D01*
X173999Y174497D01*
X172667D01*
X172000Y175164D01*
Y176497D01*
X172667Y177163D01*
X173333D01*
X173999Y176497D01*
Y174497D01*
X185999Y193500D02*
Y196166D01*
Y194833D01*
X182000D01*
Y197499D02*
X185999D01*
Y199498D01*
X185332Y200165D01*
X183999D01*
X183333Y199498D01*
Y197499D01*
X185999Y201497D02*
Y204163D01*
X185332D01*
X182667Y201497D01*
X182000D01*
X237000Y107499D02*
X234334D01*
X235667D01*
Y103500D01*
X233001D02*
Y107499D01*
X231002D01*
X230335Y106832D01*
Y105499D01*
X231002Y104833D01*
X233001D01*
X229003Y103500D02*
X227670D01*
X228336D01*
Y107499D01*
X229003Y106832D01*
X225670D02*
X225004Y107499D01*
X223671D01*
X223005Y106832D01*
Y106166D01*
X223671Y105499D01*
X224337D01*
X223671D01*
X223005Y104833D01*
Y104166D01*
X223671Y103500D01*
X225004D01*
X225670Y104166D01*
X195999Y193500D02*
Y196166D01*
Y194833D01*
X192000D01*
Y197499D02*
X195999D01*
Y199498D01*
X195332Y200165D01*
X193999D01*
X193333Y199498D01*
Y197499D01*
X192000Y201497D02*
Y202830D01*
Y202164D01*
X195999D01*
X195332Y201497D01*
X195999Y207495D02*
Y204830D01*
X193999D01*
X194666Y206163D01*
Y206829D01*
X193999Y207495D01*
X192666D01*
X192000Y206829D01*
Y205496D01*
X192666Y204830D01*
X33999Y-64000D02*
X30666D01*
X30000Y-63334D01*
Y-62001D01*
X30666Y-61334D01*
X33999D01*
X30000Y-60001D02*
Y-58668D01*
Y-59335D01*
X33999D01*
X33332Y-60001D01*
X57334Y-53168D02*
X58001Y-52501D01*
X59334D01*
X60000Y-53168D01*
Y-55834D01*
X59334Y-56500D01*
X58001D01*
X57334Y-55834D01*
X53335Y-56500D02*
X56001D01*
X53335Y-53834D01*
Y-53168D01*
X54002Y-52501D01*
X55335D01*
X56001Y-53168D01*
X56334Y-93168D02*
X57001Y-92501D01*
X58334D01*
X59000Y-93168D01*
Y-95834D01*
X58334Y-96500D01*
X57001D01*
X56334Y-95834D01*
X55001Y-96500D02*
X53668D01*
X54335D01*
Y-92501D01*
X55001Y-93168D01*
X131000Y170500D02*
X134999D01*
Y172499D01*
X134332Y173166D01*
X132999D01*
X132333Y172499D01*
Y170500D01*
Y171833D02*
X131000Y173166D01*
Y174499D02*
Y175832D01*
Y175165D01*
X134999D01*
X134332Y174499D01*
X134834Y159832D02*
X135501Y160499D01*
X136834D01*
X137500Y159832D01*
Y157167D01*
X136834Y156500D01*
X135501D01*
X134834Y157167D01*
X133501Y159832D02*
X132835Y160499D01*
X131502D01*
X130835Y159832D01*
Y159166D01*
X131502Y158499D01*
X132168D01*
X131502D01*
X130835Y157833D01*
Y157167D01*
X131502Y156500D01*
X132835D01*
X133501Y157167D01*
X134834Y166832D02*
X135501Y167499D01*
X136834D01*
X137500Y166832D01*
Y164166D01*
X136834Y163500D01*
X135501D01*
X134834Y164166D01*
X131502Y163500D02*
Y167499D01*
X133501Y165499D01*
X130835D01*
X238999Y193500D02*
Y196166D01*
Y194833D01*
X235000D01*
Y197499D02*
X238999D01*
Y199498D01*
X238332Y200165D01*
X236999D01*
X236333Y199498D01*
Y197499D01*
X238332Y201497D02*
X238999Y202164D01*
Y203497D01*
X238332Y204163D01*
X237666D01*
X236999Y203497D01*
X236333Y204163D01*
X235666D01*
X235000Y203497D01*
Y202164D01*
X235666Y201497D01*
X236333D01*
X236999Y202164D01*
X237666Y201497D01*
X238332D01*
X236999Y202164D02*
Y203497D01*
X52000Y172500D02*
Y176499D01*
X50001D01*
X49334Y175832D01*
Y174499D01*
X50001Y173833D01*
X52000D01*
X48001Y175832D02*
X47335Y176499D01*
X46002D01*
X45336Y175832D01*
Y175166D01*
X46002Y174499D01*
X46668D01*
X46002D01*
X45336Y173833D01*
Y173167D01*
X46002Y172500D01*
X47335D01*
X48001Y173167D01*
X312725Y116841D02*
Y110843D01*
X315724D01*
X316723Y111842D01*
Y112842D01*
X315724Y113842D01*
X312725D01*
X315724D01*
X316723Y114841D01*
Y115841D01*
X315724Y116841D01*
X312725D01*
X319722Y110843D02*
X321722D01*
X322722Y111842D01*
Y113842D01*
X321722Y114841D01*
X319722D01*
X318723Y113842D01*
Y111842D01*
X319722Y110843D01*
X325721Y115841D02*
Y114841D01*
X324721D01*
X326720D01*
X325721D01*
Y111842D01*
X326720Y110843D01*
X330719Y115841D02*
Y114841D01*
X329719D01*
X331719D01*
X330719D01*
Y111842D01*
X331719Y110843D01*
X335717D02*
X337717D01*
X338716Y111842D01*
Y113842D01*
X337717Y114841D01*
X335717D01*
X334718Y113842D01*
Y111842D01*
X335717Y110843D01*
X340716D02*
Y114841D01*
X341715D01*
X342715Y113842D01*
Y110843D01*
Y113842D01*
X343715Y114841D01*
X344714Y113842D01*
Y110843D01*
X355711Y116841D02*
X353711D01*
X352712Y115841D01*
Y111842D01*
X353711Y110843D01*
X355711D01*
X356711Y111842D01*
Y115841D01*
X355711Y116841D01*
X358710Y114841D02*
X360709Y110843D01*
X362708Y114841D01*
X367707Y110843D02*
X365708D01*
X364708Y111842D01*
Y113842D01*
X365708Y114841D01*
X367707D01*
X368707Y113842D01*
Y112842D01*
X364708D01*
X370706Y114841D02*
Y110843D01*
Y112842D01*
X371706Y113842D01*
X372705Y114841D01*
X373705D01*
X376704Y110843D02*
X378703D01*
X377704D01*
Y116841D01*
X376704D01*
X382702Y114841D02*
X384701D01*
X385701Y113842D01*
Y110843D01*
X382702D01*
X381702Y111842D01*
X382702Y112842D01*
X385701D01*
X387700Y114841D02*
Y111842D01*
X388700Y110843D01*
X391699D01*
Y109843D01*
X390700Y108843D01*
X389700D01*
X391699Y110843D02*
Y114841D01*
D17*
X213795Y76028D02*
X216945D01*
X4000Y66700D02*
X7000D01*
X3400Y174900D02*
X6400D01*
X10000Y219500D02*
X264500D01*
D44*
X104724Y169587D02*
G03*
X104724Y169587I-492J0D01*
G01*
X63095Y-65445D02*
G03*
X63095Y-65445I-492J0D01*
G01*
X104724Y149587D02*
G03*
X104724Y149587I-492J0D01*
G01*
Y189587D02*
G03*
X104724Y189587I-492J0D01*
G01*
D45*
X58390Y82114D02*
G03*
X58390Y82114I-394J0D01*
G01*
X239000Y170500D02*
X249000D01*
Y160500D02*
Y170500D01*
X239000Y160500D02*
X249000D01*
X239000D02*
Y170500D01*
Y90500D02*
X249000D01*
Y80500D02*
Y90500D01*
X239000Y80500D02*
X249000D01*
X239000D02*
Y90500D01*
Y180500D02*
Y190500D01*
X249000D01*
Y180500D02*
Y190500D01*
X239000Y180500D02*
X249000D01*
X219000D02*
Y190500D01*
X229000D01*
Y180500D02*
Y190500D01*
X219000Y180500D02*
X229000D01*
X209000D02*
Y190500D01*
X219000D01*
Y180500D02*
Y190500D01*
X209000Y180500D02*
X219000D01*
X199000D02*
Y190500D01*
X209000D01*
Y180500D02*
Y190500D01*
X199000Y180500D02*
X209000D01*
X239000Y50500D02*
Y60500D01*
X229000Y50500D02*
X239000D01*
X229000D02*
Y60500D01*
X239000D01*
X229000Y180500D02*
Y190500D01*
Y180500D02*
X239000D01*
Y190500D01*
X229000D02*
X239000D01*
X189000Y180500D02*
Y190500D01*
Y180500D02*
X199000D01*
Y190500D01*
X189000D02*
X199000D01*
X239000Y100500D02*
X249000D01*
Y110500D01*
X239000D02*
X249000D01*
X239000Y100500D02*
Y110500D01*
X179000Y190500D02*
X189000D01*
Y180500D02*
Y190500D01*
X179000Y180500D02*
X189000D01*
X179000D02*
Y190500D01*
X169000D02*
X179000D01*
Y180500D02*
Y190500D01*
X169000Y180500D02*
X179000D01*
X169000D02*
Y190500D01*
X239000Y120500D02*
Y130500D01*
X249000D01*
Y120500D02*
Y130500D01*
X239000Y120500D02*
X249000D01*
Y130500D02*
Y140500D01*
X239000Y130500D02*
X249000D01*
X239000D02*
Y140500D01*
X249000D01*
Y150500D01*
X239000Y140500D02*
X249000D01*
X239000D02*
Y150500D01*
X249000D01*
X119000Y50500D02*
Y60500D01*
Y50500D02*
X129000D01*
Y60500D01*
X119000D02*
X129000D01*
X239000Y90500D02*
Y100500D01*
Y90500D02*
X249000D01*
Y100500D01*
X239000D02*
X249000D01*
Y110500D02*
Y120500D01*
X239000D02*
X249000D01*
X239000Y110500D02*
Y120500D01*
Y110500D02*
X249000D01*
X149000Y180500D02*
Y190500D01*
X139000Y180500D02*
X149000D01*
X139000D02*
Y190500D01*
X149000D01*
X219000Y50500D02*
Y60500D01*
X229000D01*
Y50500D02*
Y60500D01*
X219000Y50500D02*
X229000D01*
X159000Y180500D02*
Y190500D01*
X149000Y180500D02*
X159000D01*
X149000D02*
Y190500D01*
X159000D01*
X169000Y180500D02*
Y190500D01*
X159000Y180500D02*
X169000D01*
X159000D02*
Y190500D01*
X169000D01*
X139000Y50500D02*
Y60500D01*
X129000Y50500D02*
X139000D01*
X129000D02*
Y60500D01*
X139000D01*
X119000Y50500D02*
Y60500D01*
X109000Y50500D02*
X119000D01*
X109000D02*
Y60500D01*
X119000D01*
X97244Y156595D02*
Y159744D01*
Y156595D02*
X101181D01*
X97244Y165256D02*
Y168405D01*
X101181D01*
X51284Y-87689D02*
Y-61311D01*
X36716Y-87689D02*
X51284D01*
X36716D02*
Y-61311D01*
X51284D01*
X97244Y136594D02*
Y139744D01*
Y136594D02*
X101181D01*
X97244Y145256D02*
Y148406D01*
X101181D01*
X239000Y170500D02*
Y180500D01*
Y170500D02*
X249000D01*
Y180500D01*
X239000D02*
X249000D01*
X239000Y150500D02*
Y160500D01*
Y150500D02*
X249000D01*
Y160500D01*
X239000D02*
X249000D01*
X239000Y80500D02*
X249000D01*
X239000Y70500D02*
Y80500D01*
Y70500D02*
X249000D01*
Y80500D01*
X239000Y70500D02*
X249000D01*
X239000Y60500D02*
Y70500D01*
Y60500D02*
X249000D01*
Y70500D01*
X239000Y50500D02*
Y60500D01*
Y50500D02*
X249000D01*
Y60500D01*
X239000D02*
X249000D01*
X209000Y50500D02*
Y60500D01*
Y50500D02*
X219000D01*
Y60500D01*
X209000D02*
X219000D01*
X209000Y50500D02*
Y60500D01*
X199000D02*
X209000D01*
X199000Y50500D02*
Y60500D01*
Y50500D02*
X209000D01*
X189000D02*
Y60500D01*
Y50500D02*
X199000D01*
Y60500D01*
X189000D02*
X199000D01*
X189000Y50500D02*
Y60500D01*
X179000D02*
X189000D01*
X179000Y50500D02*
Y60500D01*
Y50500D02*
X189000D01*
X169000D02*
X179000D01*
Y60500D01*
X169000D02*
X179000D01*
X169000Y50500D02*
Y60500D01*
X159000Y50500D02*
Y60500D01*
Y50500D02*
X169000D01*
Y60500D01*
X159000D02*
X169000D01*
X149000Y50500D02*
Y60500D01*
Y50500D02*
X159000D01*
Y60500D01*
X149000D02*
X159000D01*
X139000Y50500D02*
Y60500D01*
Y50500D02*
X149000D01*
Y60500D01*
X139000D02*
X149000D01*
X97244Y188406D02*
X101181D01*
X97244Y185256D02*
Y188406D01*
Y176594D02*
X101181D01*
X97244D02*
Y179744D01*
D46*
X32209Y70303D02*
Y170697D01*
X45673Y70303D02*
X51894D01*
X45673Y170697D02*
X51894D01*
X32209D02*
X36067D01*
X32209Y70303D02*
X36067D01*
X51894D02*
Y80264D01*
Y160736D02*
Y170697D01*
D75*
X126198Y-80051D02*
Y-82550D01*
X124948Y-83800D01*
X119950D01*
X118700Y-82550D01*
Y-80051D01*
X119950Y-78802D01*
X124948D01*
X126198Y-80051D01*
X118700Y-75053D02*
X124948D01*
X122449D01*
Y-76302D01*
Y-73803D01*
Y-75053D01*
X124948D01*
X126198Y-73803D01*
X118700Y-68805D02*
X124948D01*
X122449D01*
Y-70054D01*
Y-67555D01*
Y-68805D01*
X124948D01*
X126198Y-67555D01*
X118700Y-60058D02*
Y-62557D01*
X119950Y-63806D01*
X122449D01*
X123698Y-62557D01*
Y-60058D01*
X122449Y-58808D01*
X121199D01*
Y-63806D01*
X118700Y-56309D02*
X123698D01*
Y-52560D01*
X122449Y-51310D01*
X118700D01*
Y-48811D02*
Y-45063D01*
X119950Y-43813D01*
X121199Y-45063D01*
Y-47562D01*
X122449Y-48811D01*
X123698Y-47562D01*
Y-43813D01*
X118700Y-41314D02*
Y-38814D01*
Y-40064D01*
X123698D01*
Y-41314D01*
Y-35066D02*
X118700Y-32567D01*
X123698Y-30067D01*
X118700Y-23819D02*
Y-26319D01*
X119950Y-27568D01*
X122449D01*
X123698Y-26319D01*
Y-23819D01*
X122449Y-22570D01*
X121199D01*
Y-27568D01*
X124948Y-7575D02*
X126198Y-8824D01*
Y-11323D01*
X124948Y-12573D01*
X123698D01*
X122449Y-11323D01*
Y-8824D01*
X121199Y-7575D01*
X119950D01*
X118700Y-8824D01*
Y-11323D01*
X119950Y-12573D01*
X123698Y-5075D02*
X119950D01*
X118700Y-3826D01*
Y-77D01*
X123698D01*
X118700Y2422D02*
X123698D01*
Y3672D01*
X122449Y4921D01*
X118700D01*
X122449D01*
X123698Y6171D01*
X122449Y7421D01*
X118700D01*
Y9920D02*
X123698D01*
Y11169D01*
X122449Y12419D01*
X118700D01*
X122449D01*
X123698Y13668D01*
X122449Y14918D01*
X118700D01*
Y17417D02*
Y19917D01*
Y18667D01*
X123698D01*
Y17417D01*
X124948Y24915D02*
X123698D01*
Y23665D01*
Y26164D01*
Y24915D01*
X119950D01*
X118700Y26164D01*
D76*
X239400Y-21300D02*
D03*
X233000Y-33300D02*
D03*
X198600Y-44500D02*
D03*
X201000Y-28500D02*
D03*
X214600Y-25300D02*
D03*
Y-38100D02*
D03*
X216600Y-16900D02*
D03*
D77*
X194600Y-34700D02*
D03*
X141000Y-25900D02*
D03*
X231400Y-21900D02*
D03*
X199400Y-39500D02*
D03*
X201800Y-49500D02*
D03*
X201000Y-48300D02*
D03*
X214600Y-21500D02*
D03*
X227400Y-13900D02*
D03*
D78*
X196200Y-36100D02*
D03*
D79*
X193800Y-28100D02*
D03*
X185000Y-28500D02*
D03*
X182600D02*
D03*
X138600Y-22900D02*
D03*
D80*
X139800Y-51300D02*
D03*
X140200Y-40500D02*
D03*
X235400Y-20900D02*
D03*
Y-20100D02*
D03*
X231400Y-47300D02*
D03*
X229800Y-46500D02*
D03*
X205800Y-23700D02*
D03*
X224200Y-40500D02*
D03*
X228200Y-42500D02*
D03*
X201800Y-36100D02*
D03*
X213800Y-25700D02*
D03*
Y-37700D02*
D03*
X216600Y-18100D02*
D03*
X152200Y-37300D02*
D03*
X153800Y-13700D02*
D03*
X153000Y-12900D02*
D03*
X205800Y-17300D02*
D03*
D81*
X162400Y-36700D02*
D03*
X212800Y-53500D02*
D03*
D82*
X161300Y-35300D02*
D03*
D83*
X160100Y-33900D02*
D03*
D84*
X185400Y-36300D02*
D03*
X142200Y-27100D02*
D03*
D85*
X138800Y-23900D02*
D03*
X215200Y-21500D02*
D03*
X221200Y-53500D02*
D03*
D86*
X142600Y-38400D02*
D03*
X226600Y-50400D02*
D03*
X211800Y-52400D02*
D03*
X220600D02*
D03*
X225800Y-49400D02*
D03*
X231800Y-15400D02*
D03*
X231000Y-14400D02*
D03*
D87*
X143400Y-37200D02*
D03*
X219400Y-28600D02*
D03*
D88*
X140600Y-22900D02*
D03*
X203000Y-50500D02*
D03*
X142200Y-12100D02*
D03*
X230200D02*
D03*
D89*
X144800Y-19700D02*
D03*
D90*
X233100Y-23700D02*
D03*
D91*
X232300Y-22900D02*
D03*
X151300Y-36500D02*
D03*
D92*
X234000Y-25700D02*
D03*
X158800Y-19300D02*
D03*
D93*
X231000Y-47100D02*
D03*
D94*
X158000Y-18500D02*
D03*
X216000Y-23300D02*
D03*
D95*
X211200Y-51400D02*
D03*
D96*
X206600Y-35000D02*
D03*
D97*
X219400Y-35900D02*
D03*
X157000Y-35500D02*
D03*
D98*
X214800Y-42900D02*
D03*
X221600D02*
D03*
D99*
X216500Y-47100D02*
D03*
X223100Y-45500D02*
D03*
X150500Y-35500D02*
D03*
D100*
X219600Y-51400D02*
D03*
D101*
X202600Y-43300D02*
D03*
X215800Y-19700D02*
D03*
D102*
X209000Y-46100D02*
D03*
D103*
X222300Y-44300D02*
D03*
X216300Y-45900D02*
D03*
D104*
X220300Y-38500D02*
D03*
D105*
X215300Y-44100D02*
D03*
D106*
X148200Y-38500D02*
D03*
D107*
X145800Y-36900D02*
D03*
D108*
X144200Y-38400D02*
D03*
D109*
X144600Y-36800D02*
D03*
D110*
X137600Y-43300D02*
D03*
D111*
X233175Y-16900D02*
D03*
D112*
X232575Y-16200D02*
D03*
D113*
X230000Y-13600D02*
D03*
D114*
X217600Y-15100D02*
D03*
M02*
