G04 Layer_Physical_Order=2*
G04 Layer_Color=16711680*
%FSLAX25Y25*%
%MOIN*%
G70*
G01*
G75*
%ADD10R,0.04331X0.03937*%
%ADD13C,0.00800*%
%ADD14C,0.02000*%
%ADD15C,0.01500*%
%ADD16C,0.01000*%
%ADD17C,0.00799*%
%ADD18C,0.13780*%
%ADD19R,0.08887X0.08887*%
%ADD20R,0.08807X0.08807*%
%ADD21C,0.05905*%
%ADD22R,0.05905X0.05905*%
%ADD23R,0.05905X0.05905*%
%ADD24C,0.28400*%
%ADD25R,0.06800X0.06800*%
%ADD26R,0.06800X0.06800*%
%ADD27C,0.25000*%
%ADD28C,0.04000*%
%ADD29C,0.03000*%
%ADD30R,0.03347X0.02362*%
%ADD31R,0.06890X0.13780*%
%ADD32R,0.06890X0.04331*%
%ADD33R,0.06890X0.04331*%
%ADD34R,0.03543X0.05905*%
%ADD35R,0.23622X0.23622*%
%ADD36R,0.07480X0.03543*%
%ADD37R,0.07480X0.03543*%
%ADD38R,0.04528X0.04803*%
%ADD39R,0.03937X0.04331*%
G04:AMPARAMS|DCode=40|XSize=39.37mil|YSize=43.31mil|CornerRadius=0mil|HoleSize=0mil|Usage=FLASHONLY|Rotation=135.000|XOffset=0mil|YOffset=0mil|HoleType=Round|Shape=Rectangle|*
%AMROTATEDRECTD40*
4,1,4,0.02923,0.00139,-0.00139,-0.02923,-0.02923,-0.00139,0.00139,0.02923,0.02923,0.00139,0.0*
%
%ADD40ROTATEDRECTD40*%

%ADD41R,0.04724X0.01181*%
%ADD42R,0.05512X0.05512*%
%ADD43C,0.00950*%
G36*
X264500Y218480D02*
Y218480D01*
X264985Y218445D01*
X266254Y218321D01*
X267942Y217809D01*
X269496Y216978D01*
X270859Y215859D01*
X271978Y214496D01*
X272809Y212942D01*
X273321Y211255D01*
X273446Y209986D01*
X273480Y209500D01*
X273480Y209003D01*
X273480Y209002D01*
Y-113500D01*
X273489Y-113543D01*
X273321Y-115254D01*
X272809Y-116942D01*
X271978Y-118496D01*
X270859Y-119859D01*
X269496Y-120978D01*
X267942Y-121809D01*
X266254Y-122320D01*
X264986Y-122445D01*
X264500Y-122480D01*
X264003Y-122480D01*
X264002Y-122480D01*
X10000D01*
X9957Y-122489D01*
X8246Y-122320D01*
X6558Y-121809D01*
X5004Y-120978D01*
X3641Y-119859D01*
X2522Y-118496D01*
X1691Y-116942D01*
X1180Y-115254D01*
X1011Y-113543D01*
X1020Y-113500D01*
Y62700D01*
X1025D01*
X1126Y63470D01*
X1423Y64188D01*
X1896Y64804D01*
X2512Y65277D01*
X3230Y65574D01*
X4000Y65675D01*
Y65680D01*
X4002Y65681D01*
X6998D01*
X7000Y65680D01*
Y65667D01*
X7992Y65798D01*
X8916Y66181D01*
X9710Y66790D01*
X10319Y67584D01*
X10702Y68508D01*
X10833Y69500D01*
X10820D01*
Y171500D01*
X10838D01*
X10687Y172649D01*
X10243Y173719D01*
X9538Y174638D01*
X8619Y175343D01*
X7549Y175787D01*
X6400Y175938D01*
Y175920D01*
X6398Y175919D01*
X3402D01*
X3400Y175920D01*
Y175920D01*
X2932Y175997D01*
X2483Y176086D01*
X1706Y176606D01*
X1186Y177383D01*
X1012Y178261D01*
X1020Y178300D01*
Y209500D01*
X1011Y209543D01*
X1180Y211255D01*
X1691Y212942D01*
X2522Y214496D01*
X3641Y215859D01*
X5004Y216978D01*
X6558Y217809D01*
X8246Y218320D01*
X9514Y218445D01*
X10000Y218480D01*
Y218480D01*
X10002Y218481D01*
X264498D01*
X264500Y218480D01*
D02*
G37*
%LPC*%
G36*
X256063Y31239D02*
X254595Y31094D01*
X253183Y30666D01*
X251882Y29970D01*
X250741Y29034D01*
X249805Y27894D01*
X249110Y26593D01*
X248682Y25181D01*
X248537Y23713D01*
X248682Y22244D01*
X249110Y20832D01*
X249805Y19531D01*
X250741Y18391D01*
X251882Y17455D01*
X253183Y16759D01*
X254595Y16331D01*
X256063Y16187D01*
X257531Y16331D01*
X258943Y16759D01*
X260244Y17455D01*
X261385Y18391D01*
X262321Y19531D01*
X263016Y20832D01*
X263444Y22244D01*
X263589Y23713D01*
X263444Y25181D01*
X263016Y26593D01*
X262321Y27894D01*
X261385Y29034D01*
X260244Y29970D01*
X258943Y30666D01*
X257531Y31094D01*
X256063Y31239D01*
D02*
G37*
G36*
X264443Y14963D02*
X260500D01*
Y10000D01*
X265463D01*
Y13943D01*
X265385Y14333D01*
X265164Y14664D01*
X264833Y14885D01*
X264443Y14963D01*
D02*
G37*
G36*
X259500D02*
X255557D01*
X255167Y14885D01*
X254836Y14664D01*
X254615Y14333D01*
X254537Y13943D01*
Y10000D01*
X259500D01*
Y14963D01*
D02*
G37*
G36*
X59500Y23402D02*
X55580D01*
Y20502D01*
X55658Y20111D01*
X55879Y19781D01*
X56210Y19560D01*
X56600Y19482D01*
X59500D01*
Y23402D01*
D02*
G37*
G36*
Y28321D02*
X56600D01*
X56210Y28243D01*
X55879Y28023D01*
X55658Y27692D01*
X55580Y27302D01*
Y24401D01*
X59500D01*
Y28321D01*
D02*
G37*
G36*
X63400D02*
X60500D01*
Y24401D01*
X64420D01*
Y27302D01*
X64342Y27692D01*
X64121Y28023D01*
X63790Y28243D01*
X63400Y28321D01*
D02*
G37*
G36*
X64420Y23402D02*
X60500D01*
Y19482D01*
X63400D01*
X63790Y19560D01*
X64121Y19781D01*
X64342Y20111D01*
X64420Y20502D01*
Y23402D01*
D02*
G37*
G36*
X45400Y27951D02*
X38600D01*
X38141Y27761D01*
X37951Y27302D01*
Y20502D01*
X38141Y20042D01*
X38600Y19852D01*
X45400D01*
X45859Y20042D01*
X46049Y20502D01*
Y27302D01*
X45859Y27761D01*
X45400Y27951D01*
D02*
G37*
G36*
X17000Y12641D02*
X14944Y12479D01*
X12939Y11997D01*
X11034Y11208D01*
X9276Y10131D01*
X7708Y8792D01*
X6369Y7224D01*
X5292Y5466D01*
X4503Y3561D01*
X4021Y1556D01*
X3859Y-500D01*
X4021Y-2556D01*
X4503Y-4561D01*
X5292Y-6466D01*
X6369Y-8224D01*
X7708Y-9792D01*
X9276Y-11131D01*
X11034Y-12208D01*
X12939Y-12997D01*
X14944Y-13479D01*
X17000Y-13641D01*
X19056Y-13479D01*
X21061Y-12997D01*
X22966Y-12208D01*
X24724Y-11131D01*
X26292Y-9792D01*
X27631Y-8224D01*
X28708Y-6466D01*
X29497Y-4561D01*
X29979Y-2556D01*
X30141Y-500D01*
X29979Y1556D01*
X29497Y3561D01*
X28708Y5466D01*
X27631Y7224D01*
X26292Y8792D01*
X24724Y10131D01*
X22966Y11208D01*
X21061Y11997D01*
X19056Y12479D01*
X17000Y12641D01*
D02*
G37*
G36*
X40154Y-55000D02*
X37469D01*
Y-56468D01*
X37546Y-56859D01*
X37767Y-57189D01*
X38098Y-57411D01*
X38488Y-57488D01*
X40154D01*
Y-55000D01*
D02*
G37*
G36*
X43839D02*
X41154D01*
Y-57488D01*
X42819D01*
X43209Y-57411D01*
X43540Y-57189D01*
X43761Y-56859D01*
X43839Y-56468D01*
Y-55000D01*
D02*
G37*
G36*
X70000Y-49351D02*
X47000D01*
X46541Y-49541D01*
X45941Y-50141D01*
X45751Y-50600D01*
Y-51512D01*
X45503Y-51882D01*
X45181D01*
X44722Y-52072D01*
X44532Y-52531D01*
Y-56468D01*
X44722Y-56928D01*
X45181Y-57118D01*
X45503D01*
X45751Y-57488D01*
Y-67200D01*
X45941Y-67659D01*
X48441Y-70159D01*
X48900Y-70349D01*
X73400D01*
X73859Y-70159D01*
X74049Y-69700D01*
Y-53400D01*
X73859Y-52941D01*
X70459Y-49541D01*
X70000Y-49351D01*
D02*
G37*
G36*
X18903Y-49447D02*
X10097D01*
X9638Y-49637D01*
X9447Y-50097D01*
Y-58903D01*
X9585Y-59236D01*
X9376Y-59376D01*
X9155Y-59706D01*
X9077Y-60097D01*
Y-64000D01*
X14500D01*
X19923D01*
Y-60097D01*
X19845Y-59706D01*
X19624Y-59376D01*
X19415Y-59236D01*
X19553Y-58903D01*
Y-50097D01*
X19363Y-49637D01*
X18903Y-49447D01*
D02*
G37*
G36*
X40154Y-51512D02*
X38488D01*
X38098Y-51590D01*
X37767Y-51810D01*
X37546Y-52141D01*
X37469Y-52531D01*
Y-54000D01*
X40154D01*
Y-51512D01*
D02*
G37*
G36*
X69500Y-31974D02*
X68032Y-32119D01*
X66620Y-32547D01*
X65319Y-33242D01*
X64178Y-34178D01*
X63242Y-35319D01*
X62547Y-36620D01*
X62119Y-38032D01*
X61974Y-39500D01*
X62119Y-40968D01*
X62547Y-42380D01*
X63242Y-43681D01*
X64178Y-44822D01*
X65319Y-45758D01*
X66620Y-46453D01*
X68032Y-46881D01*
X69500Y-47026D01*
X70968Y-46881D01*
X72380Y-46453D01*
X73681Y-45758D01*
X74822Y-44822D01*
X75758Y-43681D01*
X76453Y-42380D01*
X76881Y-40968D01*
X77026Y-39500D01*
X76881Y-38032D01*
X76453Y-36620D01*
X75758Y-35319D01*
X74822Y-34178D01*
X73681Y-33242D01*
X72380Y-32547D01*
X70968Y-32119D01*
X69500Y-31974D01*
D02*
G37*
G36*
X54000Y13346D02*
X51678Y13163D01*
X49412Y12619D01*
X47260Y11728D01*
X45274Y10510D01*
X43503Y8997D01*
X41989Y7226D01*
X40772Y5240D01*
X39881Y3088D01*
X39337Y822D01*
X39154Y-1500D01*
X39337Y-3822D01*
X39881Y-6088D01*
X40772Y-8240D01*
X41989Y-10226D01*
X43503Y-11998D01*
X45274Y-13510D01*
X47260Y-14728D01*
X49412Y-15619D01*
X51678Y-16163D01*
X54000Y-16346D01*
X56322Y-16163D01*
X58588Y-15619D01*
X60740Y-14728D01*
X62726Y-13510D01*
X64498Y-11998D01*
X66010Y-10226D01*
X67228Y-8240D01*
X68119Y-6088D01*
X68663Y-3822D01*
X68846Y-1500D01*
X68663Y822D01*
X68119Y3088D01*
X67228Y5240D01*
X66010Y7226D01*
X64498Y8997D01*
X62726Y10510D01*
X60740Y11728D01*
X58588Y12619D01*
X56322Y13163D01*
X54000Y13346D01*
D02*
G37*
G36*
X42819Y-51512D02*
X41154D01*
Y-54000D01*
X43839D01*
Y-52531D01*
X43761Y-52141D01*
X43540Y-51810D01*
X43209Y-51590D01*
X42819Y-51512D01*
D02*
G37*
G36*
X14500Y-31974D02*
X13032Y-32119D01*
X11620Y-32547D01*
X10319Y-33242D01*
X9178Y-34178D01*
X8242Y-35319D01*
X7547Y-36620D01*
X7119Y-38032D01*
X6974Y-39500D01*
X7119Y-40968D01*
X7547Y-42380D01*
X8242Y-43681D01*
X9178Y-44822D01*
X10319Y-45758D01*
X11620Y-46453D01*
X13032Y-46881D01*
X14500Y-47026D01*
X15968Y-46881D01*
X17380Y-46453D01*
X18681Y-45758D01*
X19822Y-44822D01*
X20758Y-43681D01*
X21453Y-42380D01*
X21881Y-40968D01*
X22026Y-39500D01*
X21881Y-38032D01*
X21453Y-36620D01*
X20758Y-35319D01*
X19822Y-34178D01*
X18681Y-33242D01*
X17380Y-32547D01*
X15968Y-32119D01*
X14500Y-31974D01*
D02*
G37*
G36*
X145158Y74544D02*
X142867D01*
Y72091D01*
X142944Y71701D01*
X143165Y71370D01*
X143496Y71149D01*
X143886Y71071D01*
X145158D01*
Y74544D01*
D02*
G37*
G36*
X139658Y147677D02*
X116158D01*
X115699Y147487D01*
X115509Y147028D01*
Y76028D01*
X115699Y75568D01*
X116158Y75378D01*
X139658D01*
X140117Y75568D01*
X140308Y76028D01*
Y147028D01*
X140117Y147487D01*
X139658Y147677D01*
D02*
G37*
G36*
X84847Y72488D02*
X83181D01*
X82791Y72411D01*
X82460Y72189D01*
X82239Y71859D01*
X82161Y71469D01*
Y70000D01*
X84847D01*
Y72488D01*
D02*
G37*
G36*
X87512D02*
X85847D01*
Y70000D01*
X88531D01*
Y71469D01*
X88454Y71859D01*
X88233Y72189D01*
X87902Y72411D01*
X87512Y72488D01*
D02*
G37*
G36*
X145158Y79016D02*
X143886D01*
X143496Y78939D01*
X143165Y78718D01*
X142944Y78387D01*
X142867Y77997D01*
Y75544D01*
X145158D01*
Y79016D01*
D02*
G37*
G36*
X261500Y91421D02*
X260968Y91351D01*
X260007Y90953D01*
X259181Y90319D01*
X258547Y89493D01*
X258149Y88532D01*
X258079Y88000D01*
X261500D01*
Y91421D01*
D02*
G37*
G36*
X262500Y91421D02*
Y88000D01*
X265921D01*
X265851Y88532D01*
X265453Y89493D01*
X264819Y90319D01*
X263993Y90953D01*
X263032Y91351D01*
X262500Y91421D01*
D02*
G37*
G36*
X265921Y87000D02*
X262500D01*
Y83579D01*
X263032Y83649D01*
X263993Y84047D01*
X264819Y84681D01*
X265453Y85507D01*
X265851Y86468D01*
X265921Y87000D01*
D02*
G37*
G36*
X261500D02*
X258079D01*
X258149Y86468D01*
X258547Y85507D01*
X259181Y84681D01*
X260007Y84047D01*
X260968Y83649D01*
X261500Y83579D01*
Y87000D01*
D02*
G37*
G36*
X63400Y53148D02*
X56600D01*
X56141Y52958D01*
X55951Y52498D01*
Y45698D01*
X56141Y45239D01*
X56600Y45049D01*
X63400D01*
X63859Y45239D01*
X64049Y45698D01*
Y52498D01*
X63859Y52958D01*
X63400Y53148D01*
D02*
G37*
G36*
X41500Y53518D02*
X38600D01*
X38210Y53440D01*
X37879Y53219D01*
X37658Y52889D01*
X37580Y52498D01*
Y49599D01*
X41500D01*
Y53518D01*
D02*
G37*
G36*
Y48599D02*
X37580D01*
Y45698D01*
X37658Y45308D01*
X37879Y44978D01*
X38210Y44756D01*
X38600Y44679D01*
X41500D01*
Y48599D01*
D02*
G37*
G36*
X46420D02*
X42500D01*
Y44679D01*
X45400D01*
X45790Y44756D01*
X46121Y44978D01*
X46342Y45308D01*
X46420Y45698D01*
Y48599D01*
D02*
G37*
G36*
X45400Y53518D02*
X42500D01*
Y49599D01*
X46420D01*
Y52498D01*
X46342Y52889D01*
X46121Y53219D01*
X45790Y53440D01*
X45400Y53518D01*
D02*
G37*
G36*
X84847Y69000D02*
X82161D01*
Y67532D01*
X82239Y67141D01*
X82460Y66811D01*
X82791Y66589D01*
X83181Y66512D01*
X84847D01*
Y69000D01*
D02*
G37*
G36*
X88531D02*
X85847D01*
Y66512D01*
X87512D01*
X87902Y66589D01*
X88233Y66811D01*
X88454Y67141D01*
X88531Y67532D01*
Y69000D01*
D02*
G37*
G36*
X264047Y82472D02*
X258953D01*
X258563Y82395D01*
X258232Y82174D01*
X253059Y77001D01*
X252838Y76670D01*
X252760Y76280D01*
Y51702D01*
X238578Y37520D01*
X155422D01*
X145020Y47922D01*
Y51898D01*
X146953D01*
X147412Y52088D01*
X147602Y52547D01*
Y58453D01*
X147412Y58912D01*
X146953Y59102D01*
X146558D01*
X146309Y59602D01*
X146443Y59780D01*
X156300D01*
X156690Y59858D01*
X157021Y60079D01*
X166379Y69437D01*
X166600Y69768D01*
X166677Y70158D01*
Y71442D01*
X167429D01*
X167886Y71631D01*
X167889Y71632D01*
X168427D01*
X168430Y71631D01*
X168820Y71469D01*
X169038Y70980D01*
X157879Y59821D01*
X157658Y59490D01*
X157630Y59348D01*
X157165Y59058D01*
X157080Y59049D01*
X156953Y59102D01*
X151047D01*
X150588Y58912D01*
X150398Y58453D01*
Y52547D01*
X150588Y52088D01*
X151047Y51898D01*
X156953D01*
X157412Y52088D01*
X157602Y52547D01*
Y54480D01*
X158000D01*
X158390Y54558D01*
X158721Y54779D01*
X159321Y55379D01*
X159542Y55710D01*
X159620Y56100D01*
Y58678D01*
X171379Y70437D01*
X171600Y70768D01*
X171677Y71158D01*
Y71442D01*
X172430D01*
X172886Y71631D01*
X172889Y71632D01*
X173427D01*
X173430Y71631D01*
X173886Y71442D01*
X174304D01*
X174500Y70942D01*
X163279Y59721D01*
X163058Y59390D01*
X163001Y59102D01*
X161047D01*
X160588Y58912D01*
X160398Y58453D01*
Y52547D01*
X160588Y52088D01*
X161047Y51898D01*
X166953D01*
X167412Y52088D01*
X167602Y52547D01*
Y58453D01*
X167412Y58912D01*
X166953Y59102D01*
X166197D01*
X166006Y59564D01*
X176379Y69937D01*
X176600Y70268D01*
X176677Y70658D01*
Y71442D01*
X177429D01*
X177886Y71631D01*
X177889Y71632D01*
X178427D01*
X178429Y71631D01*
X178886Y71442D01*
X179638D01*
Y66580D01*
X173279Y60221D01*
X173058Y59890D01*
X172980Y59500D01*
Y59102D01*
X171047D01*
X170588Y58912D01*
X170398Y58453D01*
Y52547D01*
X170588Y52088D01*
X171047Y51898D01*
X176953D01*
X177412Y52088D01*
X177602Y52547D01*
Y58453D01*
X177412Y58912D01*
X176953Y59102D01*
X175697D01*
X175506Y59564D01*
X181379Y65437D01*
X181600Y65768D01*
X181677Y66158D01*
Y71442D01*
X182430D01*
X182886Y71631D01*
X182889Y71632D01*
X183427D01*
X183430Y71631D01*
X183886Y71442D01*
X184638D01*
Y64580D01*
X183279Y63221D01*
X183058Y62890D01*
X182980Y62500D01*
Y59102D01*
X181047D01*
X180588Y58912D01*
X180398Y58453D01*
Y52547D01*
X180588Y52088D01*
X181047Y51898D01*
X186953D01*
X187412Y52088D01*
X187602Y52547D01*
Y58453D01*
X187412Y58912D01*
X186953Y59102D01*
X185020D01*
Y62078D01*
X186379Y63437D01*
X186600Y63768D01*
X186677Y64158D01*
Y71442D01*
X187429D01*
X187886Y71631D01*
X187889Y71632D01*
X188427D01*
X188429Y71631D01*
X188886Y71442D01*
X189638D01*
Y65842D01*
X189716Y65452D01*
X189937Y65121D01*
X192980Y62078D01*
Y59102D01*
X191047D01*
X190588Y58912D01*
X190398Y58453D01*
Y52547D01*
X190588Y52088D01*
X191047Y51898D01*
X196953D01*
X197412Y52088D01*
X197602Y52547D01*
Y58453D01*
X197412Y58912D01*
X196953Y59102D01*
X195020D01*
Y62500D01*
X194942Y62890D01*
X194721Y63221D01*
X191677Y66264D01*
Y71442D01*
X192429D01*
X192886Y71631D01*
X192889Y71632D01*
X193427D01*
X193430Y71631D01*
X193886Y71442D01*
X194638D01*
Y68842D01*
X194716Y68452D01*
X194937Y68121D01*
X202980Y60078D01*
Y59102D01*
X201047D01*
X200588Y58912D01*
X200398Y58453D01*
Y52547D01*
X200588Y52088D01*
X201047Y51898D01*
X206953D01*
X207412Y52088D01*
X207602Y52547D01*
Y58453D01*
X207412Y58912D01*
X206953Y59102D01*
X205020D01*
Y60500D01*
X204942Y60890D01*
X204721Y61221D01*
X196677Y69265D01*
Y71442D01*
X197430D01*
X197886Y71631D01*
X197889Y71632D01*
X198427D01*
X198430Y71631D01*
X198886Y71442D01*
X199638D01*
Y69842D01*
X199716Y69452D01*
X199937Y69121D01*
X209279Y59779D01*
X209610Y59558D01*
X210000Y59480D01*
X210654D01*
X210753Y58980D01*
X210588Y58912D01*
X210398Y58453D01*
Y52547D01*
X210588Y52088D01*
X211047Y51898D01*
X216953D01*
X217412Y52088D01*
X217602Y52547D01*
Y58453D01*
X217412Y58912D01*
X216953Y59102D01*
X215020D01*
Y59500D01*
X214942Y59890D01*
X214721Y60221D01*
X213721Y61221D01*
X213390Y61442D01*
X213000Y61520D01*
X210422D01*
X201677Y70265D01*
Y71442D01*
X202430D01*
X202886Y71631D01*
X202889Y71632D01*
X203427D01*
X203430Y71631D01*
X203886Y71442D01*
X204698D01*
X204716Y71352D01*
X204937Y71021D01*
X214179Y61779D01*
X214510Y61558D01*
X214900Y61480D01*
X221578D01*
X222980Y60078D01*
Y59102D01*
X221047D01*
X220588Y58912D01*
X220398Y58453D01*
Y52547D01*
X220588Y52088D01*
X221047Y51898D01*
X226953D01*
X227412Y52088D01*
X227602Y52547D01*
Y58453D01*
X227412Y58912D01*
X226953Y59102D01*
X225020D01*
Y60500D01*
X224942Y60890D01*
X224721Y61221D01*
X222721Y63221D01*
X222390Y63442D01*
X222000Y63520D01*
X215322D01*
X207791Y71050D01*
X207889Y71632D01*
X208427D01*
X208430Y71631D01*
X208886Y71442D01*
X209698D01*
X209716Y71352D01*
X209937Y71021D01*
X216579Y64379D01*
X216910Y64158D01*
X217300Y64080D01*
X227278D01*
X231794Y59564D01*
X231603Y59102D01*
X231047D01*
X230588Y58912D01*
X230398Y58453D01*
Y52547D01*
X230588Y52088D01*
X231047Y51898D01*
X236953D01*
X237412Y52088D01*
X237602Y52547D01*
Y58453D01*
X237412Y58912D01*
X236953Y59102D01*
X234960D01*
X234942Y59190D01*
X234721Y59521D01*
X228421Y65821D01*
X228090Y66042D01*
X227700Y66120D01*
X217722D01*
X212791Y71050D01*
X212889Y71632D01*
X213079Y72091D01*
Y77997D01*
X212889Y78456D01*
X212429Y78646D01*
X208886D01*
X208430Y78457D01*
X208427Y78456D01*
X207889D01*
X207886Y78457D01*
X207430Y78646D01*
X203886D01*
X203430Y78457D01*
X203427Y78456D01*
X202889D01*
X202886Y78457D01*
X202430Y78646D01*
X198886D01*
X198430Y78457D01*
X198427Y78456D01*
X197889D01*
X197886Y78457D01*
X197430Y78646D01*
X193886D01*
X193430Y78457D01*
X193427Y78456D01*
X192889D01*
X192886Y78457D01*
X192429Y78646D01*
X188886D01*
X188429Y78457D01*
X188427Y78456D01*
X187889D01*
X187886Y78457D01*
X187429Y78646D01*
X183886D01*
X183430Y78457D01*
X183427Y78456D01*
X182889D01*
X182886Y78457D01*
X182430Y78646D01*
X178886D01*
X178429Y78457D01*
X178427Y78456D01*
X177889D01*
X177886Y78457D01*
X177429Y78646D01*
X173886D01*
X173430Y78457D01*
X173427Y78456D01*
X172889D01*
X172886Y78457D01*
X172430Y78646D01*
X168886D01*
X168430Y78457D01*
X168427Y78456D01*
X167889D01*
X167886Y78457D01*
X167429Y78646D01*
X163886D01*
X163427Y78456D01*
X162889Y78456D01*
X162429Y78646D01*
X158886D01*
X158430Y78457D01*
X158427Y78456D01*
X157889D01*
X157886Y78457D01*
X157430Y78646D01*
X153886D01*
X153429Y78457D01*
X153427Y78456D01*
X152889D01*
X152886Y78457D01*
X152429Y78646D01*
X148886D01*
X148427Y78456D01*
X148150Y78718D01*
X147820Y78939D01*
X147430Y79016D01*
X146158D01*
Y75044D01*
Y71071D01*
X147430D01*
X147820Y71149D01*
X148151Y71370D01*
X148427Y71632D01*
X148886Y71442D01*
X149638D01*
Y70580D01*
X149178Y70120D01*
X122600D01*
X122210Y70042D01*
X121879Y69821D01*
X113279Y61221D01*
X113058Y60890D01*
X112980Y60500D01*
Y59102D01*
X111047D01*
X110588Y58912D01*
X110398Y58453D01*
Y52547D01*
X110588Y52088D01*
X111047Y51898D01*
X116953D01*
X117412Y52088D01*
X117602Y52547D01*
Y58453D01*
X117412Y58912D01*
X116953Y59102D01*
X115020D01*
Y60078D01*
X123022Y68080D01*
X149600D01*
X149990Y68158D01*
X150321Y68379D01*
X151379Y69437D01*
X151600Y69768D01*
X151677Y70158D01*
Y71442D01*
X152429D01*
X152886Y71631D01*
X152889Y71632D01*
X153427D01*
X153429Y71631D01*
X153886Y71442D01*
X154638D01*
Y69580D01*
X152578Y67520D01*
X130000D01*
X129610Y67442D01*
X129279Y67221D01*
X123279Y61221D01*
X123058Y60890D01*
X122980Y60500D01*
Y59102D01*
X121047D01*
X120588Y58912D01*
X120398Y58453D01*
Y52547D01*
X120588Y52088D01*
X121047Y51898D01*
X126953D01*
X127412Y52088D01*
X127602Y52547D01*
Y58453D01*
X127412Y58912D01*
X126953Y59102D01*
X125020D01*
Y60078D01*
X130422Y65480D01*
X153000D01*
X153390Y65558D01*
X153721Y65779D01*
X156379Y68437D01*
X156600Y68768D01*
X156677Y69158D01*
Y71442D01*
X157430D01*
X157886Y71631D01*
X157889Y71632D01*
X158427D01*
X158430Y71631D01*
X158886Y71442D01*
X159638D01*
Y70080D01*
X154378Y64820D01*
X138300D01*
X137910Y64742D01*
X137579Y64521D01*
X133279Y60221D01*
X133058Y59890D01*
X132980Y59500D01*
Y59102D01*
X131047D01*
X130588Y58912D01*
X130398Y58453D01*
Y52547D01*
X130588Y52088D01*
X131047Y51898D01*
X132980D01*
Y47500D01*
X133058Y47110D01*
X133279Y46779D01*
X148779Y31279D01*
X149110Y31058D01*
X149500Y30980D01*
X246500D01*
X246890Y31058D01*
X247221Y31279D01*
X258721Y42779D01*
X258942Y43110D01*
X259020Y43500D01*
Y64815D01*
X259029Y64818D01*
X259520Y64925D01*
X260208Y64397D01*
X261073Y64039D01*
X262000Y63917D01*
X262927Y64039D01*
X263792Y64397D01*
X264534Y64966D01*
X265103Y65708D01*
X265461Y66573D01*
X265583Y67500D01*
X265461Y68427D01*
X265142Y69200D01*
X266721Y70779D01*
X266942Y71110D01*
X267020Y71500D01*
Y79500D01*
X266942Y79890D01*
X266721Y80221D01*
X264768Y82174D01*
X264437Y82395D01*
X264047Y82472D01*
D02*
G37*
G36*
X80819Y65118D02*
X76488D01*
X76029Y64928D01*
X75839Y64468D01*
Y63520D01*
X21000D01*
X20610Y63442D01*
X20279Y63221D01*
X18083Y61025D01*
X17500Y61141D01*
X16681Y60978D01*
X16527Y60875D01*
X16077Y61176D01*
X16141Y61500D01*
X15978Y62319D01*
X15514Y63014D01*
X14819Y63478D01*
X14000Y63641D01*
X13181Y63478D01*
X12486Y63014D01*
X12022Y62319D01*
X11859Y61500D01*
X12022Y60681D01*
X12486Y59986D01*
X12980Y59656D01*
Y58500D01*
X13058Y58110D01*
X13279Y57779D01*
X15279Y55779D01*
X15610Y55558D01*
X16000Y55480D01*
X75839D01*
Y54532D01*
X76029Y54072D01*
X76488Y53882D01*
X80819D01*
X81278Y54072D01*
X81468Y54532D01*
Y58469D01*
X81278Y58928D01*
X80819Y59118D01*
X76488D01*
X76029Y58928D01*
X75839Y58469D01*
Y57520D01*
X19567D01*
X19331Y57961D01*
X19478Y58181D01*
X19641Y59000D01*
X19525Y59583D01*
X21422Y61480D01*
X75839D01*
Y60532D01*
X76029Y60072D01*
X76488Y59882D01*
X80819D01*
X81278Y60072D01*
X81468Y60532D01*
Y64468D01*
X81278Y64928D01*
X80819Y65118D01*
D02*
G37*
G36*
X105512Y-95882D02*
X101181D01*
X100722Y-96072D01*
X100532Y-96531D01*
Y-100469D01*
X100722Y-100928D01*
X101181Y-101118D01*
X105512D01*
X105971Y-100928D01*
X106161Y-100469D01*
Y-99520D01*
X115078D01*
X116579Y-101021D01*
Y-106951D01*
X114198D01*
X113739Y-107141D01*
X113549Y-107600D01*
Y-114400D01*
X113739Y-114859D01*
X114198Y-115049D01*
X120998D01*
X121458Y-114859D01*
X121648Y-114400D01*
Y-107600D01*
X121458Y-107141D01*
X120998Y-106951D01*
X118618D01*
Y-100598D01*
X118540Y-100208D01*
X118319Y-99878D01*
X116221Y-97779D01*
X115890Y-97558D01*
X115500Y-97480D01*
X106161D01*
Y-96531D01*
X105971Y-96072D01*
X105512Y-95882D01*
D02*
G37*
G36*
X143512D02*
X139181D01*
X138722Y-96072D01*
X138532Y-96531D01*
Y-100469D01*
X138722Y-100928D01*
X139181Y-101118D01*
X143512D01*
X143971Y-100928D01*
X144161Y-100469D01*
Y-99520D01*
X155078D01*
X156579Y-101021D01*
Y-106951D01*
X154198D01*
X153739Y-107141D01*
X153549Y-107600D01*
Y-114400D01*
X153739Y-114859D01*
X154198Y-115049D01*
X160998D01*
X161458Y-114859D01*
X161648Y-114400D01*
Y-107600D01*
X161458Y-107141D01*
X160998Y-106951D01*
X158618D01*
Y-100598D01*
X158540Y-100208D01*
X158319Y-99878D01*
X156221Y-97779D01*
X155890Y-97558D01*
X155500Y-97480D01*
X144161D01*
Y-96531D01*
X143971Y-96072D01*
X143512Y-95882D01*
D02*
G37*
G36*
X237098Y-111500D02*
X233179D01*
Y-114400D01*
X233257Y-114790D01*
X233477Y-115121D01*
X233808Y-115342D01*
X234198Y-115420D01*
X237098D01*
Y-111500D01*
D02*
G37*
G36*
X242018D02*
X238098D01*
Y-115420D01*
X240998D01*
X241389Y-115342D01*
X241719Y-115121D01*
X241940Y-114790D01*
X242018Y-114400D01*
Y-111500D01*
D02*
G37*
G36*
X176819Y-95882D02*
X172488D01*
X172029Y-96072D01*
X171839Y-96531D01*
Y-100469D01*
X172029Y-100928D01*
X172488Y-101118D01*
X173634D01*
Y-101924D01*
X171681Y-103877D01*
X171460Y-104208D01*
X171382Y-104598D01*
Y-106951D01*
X169002D01*
X168542Y-107141D01*
X168352Y-107600D01*
Y-114400D01*
X168542Y-114859D01*
X169002Y-115049D01*
X175802D01*
X176261Y-114859D01*
X176451Y-114400D01*
Y-107600D01*
X176261Y-107141D01*
X175802Y-106951D01*
X173421D01*
Y-105021D01*
X175374Y-103067D01*
X175595Y-102737D01*
X175673Y-102347D01*
Y-101118D01*
X176819D01*
X177278Y-100928D01*
X177468Y-100469D01*
Y-96531D01*
X177278Y-96072D01*
X176819Y-95882D01*
D02*
G37*
G36*
X135802Y-106580D02*
X132902D01*
Y-110500D01*
X136821D01*
Y-107600D01*
X136744Y-107210D01*
X136522Y-106879D01*
X136192Y-106658D01*
X135802Y-106580D01*
D02*
G37*
G36*
X95802D02*
X92902D01*
Y-110500D01*
X96821D01*
Y-107600D01*
X96744Y-107210D01*
X96522Y-106879D01*
X96192Y-106658D01*
X95802Y-106580D01*
D02*
G37*
G36*
X131902D02*
X129002D01*
X128611Y-106658D01*
X128281Y-106879D01*
X128060Y-107210D01*
X127982Y-107600D01*
Y-110500D01*
X131902D01*
Y-106580D01*
D02*
G37*
G36*
X91902D02*
X89002D01*
X88611Y-106658D01*
X88281Y-106879D01*
X88060Y-107210D01*
X87982Y-107600D01*
Y-110500D01*
X91902D01*
Y-106580D01*
D02*
G37*
G36*
X69500Y-101974D02*
X68032Y-102119D01*
X66620Y-102547D01*
X65319Y-103242D01*
X64178Y-104178D01*
X63242Y-105319D01*
X62547Y-106620D01*
X62119Y-108032D01*
X61974Y-109500D01*
X62119Y-110968D01*
X62547Y-112380D01*
X63242Y-113681D01*
X64178Y-114822D01*
X65319Y-115758D01*
X66620Y-116453D01*
X68032Y-116881D01*
X69500Y-117026D01*
X70968Y-116881D01*
X72380Y-116453D01*
X73681Y-115758D01*
X74822Y-114822D01*
X75758Y-113681D01*
X76453Y-112380D01*
X76881Y-110968D01*
X77026Y-109500D01*
X76881Y-108032D01*
X76453Y-106620D01*
X75758Y-105319D01*
X74822Y-104178D01*
X73681Y-103242D01*
X72380Y-102547D01*
X70968Y-102119D01*
X69500Y-101974D01*
D02*
G37*
G36*
X91902Y-111500D02*
X87982D01*
Y-114400D01*
X88060Y-114790D01*
X88281Y-115121D01*
X88611Y-115342D01*
X89002Y-115420D01*
X91902D01*
Y-111500D01*
D02*
G37*
G36*
X257500Y-93360D02*
X255444Y-93521D01*
X253439Y-94003D01*
X251534Y-94792D01*
X249776Y-95869D01*
X248208Y-97208D01*
X246869Y-98776D01*
X245792Y-100534D01*
X245003Y-102439D01*
X244521Y-104444D01*
X244359Y-106500D01*
X244521Y-108556D01*
X245003Y-110561D01*
X245792Y-112466D01*
X246869Y-114224D01*
X248208Y-115792D01*
X249776Y-117131D01*
X251534Y-118208D01*
X253439Y-118997D01*
X255444Y-119479D01*
X257500Y-119641D01*
X259556Y-119479D01*
X261561Y-118997D01*
X263466Y-118208D01*
X265224Y-117131D01*
X266792Y-115792D01*
X268131Y-114224D01*
X269208Y-112466D01*
X269997Y-110561D01*
X270479Y-108556D01*
X270640Y-106500D01*
X270479Y-104444D01*
X269997Y-102439D01*
X269208Y-100534D01*
X268131Y-98776D01*
X266792Y-97208D01*
X265224Y-95869D01*
X263466Y-94792D01*
X261561Y-94003D01*
X259556Y-93521D01*
X257500Y-93360D01*
D02*
G37*
G36*
X14500Y-101974D02*
X13032Y-102119D01*
X11620Y-102547D01*
X10319Y-103242D01*
X9178Y-104178D01*
X8242Y-105319D01*
X7547Y-106620D01*
X7119Y-108032D01*
X6974Y-109500D01*
X7119Y-110968D01*
X7547Y-112380D01*
X8242Y-113681D01*
X9178Y-114822D01*
X10319Y-115758D01*
X11620Y-116453D01*
X13032Y-116881D01*
X14500Y-117026D01*
X15968Y-116881D01*
X17380Y-116453D01*
X18681Y-115758D01*
X19822Y-114822D01*
X20758Y-113681D01*
X21453Y-112380D01*
X21881Y-110968D01*
X22026Y-109500D01*
X21881Y-108032D01*
X21453Y-106620D01*
X20758Y-105319D01*
X19822Y-104178D01*
X18681Y-103242D01*
X17380Y-102547D01*
X15968Y-102119D01*
X14500Y-101974D01*
D02*
G37*
G36*
X96821Y-111500D02*
X92902D01*
Y-115420D01*
X95802D01*
X96192Y-115342D01*
X96522Y-115121D01*
X96744Y-114790D01*
X96821Y-114400D01*
Y-111500D01*
D02*
G37*
G36*
X197098Y-111500D02*
X193179D01*
Y-114400D01*
X193256Y-114790D01*
X193477Y-115121D01*
X193808Y-115342D01*
X194198Y-115420D01*
X197098D01*
Y-111500D01*
D02*
G37*
G36*
X202018D02*
X198098D01*
Y-115420D01*
X200998D01*
X201389Y-115342D01*
X201719Y-115121D01*
X201940Y-114790D01*
X202018Y-114400D01*
Y-111500D01*
D02*
G37*
G36*
X131902Y-111500D02*
X127982D01*
Y-114400D01*
X128060Y-114790D01*
X128281Y-115121D01*
X128611Y-115342D01*
X129002Y-115420D01*
X131902D01*
Y-111500D01*
D02*
G37*
G36*
X136821D02*
X132902D01*
Y-115420D01*
X135802D01*
X136192Y-115342D01*
X136522Y-115121D01*
X136744Y-114790D01*
X136821Y-114400D01*
Y-111500D01*
D02*
G37*
G36*
X197098Y-106580D02*
X194198D01*
X193808Y-106658D01*
X193477Y-106879D01*
X193256Y-107210D01*
X193179Y-107600D01*
Y-110500D01*
X197098D01*
Y-106580D01*
D02*
G37*
G36*
X256063Y-67187D02*
X254595Y-67331D01*
X253183Y-67760D01*
X251882Y-68455D01*
X250741Y-69391D01*
X249805Y-70531D01*
X249110Y-71833D01*
X248682Y-73244D01*
X248537Y-74713D01*
X248682Y-76181D01*
X249110Y-77593D01*
X249805Y-78894D01*
X250741Y-80034D01*
X251882Y-80970D01*
X253183Y-81666D01*
X254595Y-82094D01*
X256063Y-82239D01*
X257531Y-82094D01*
X258943Y-81666D01*
X260244Y-80970D01*
X261385Y-80034D01*
X262321Y-78894D01*
X263016Y-77593D01*
X263444Y-76181D01*
X263589Y-74713D01*
X263444Y-73244D01*
X263016Y-71833D01*
X262321Y-70531D01*
X261385Y-69391D01*
X260244Y-68455D01*
X258943Y-67760D01*
X257531Y-67331D01*
X256063Y-67187D01*
D02*
G37*
G36*
X56492Y-75000D02*
X52528D01*
Y-76665D01*
X52605Y-77056D01*
X52826Y-77386D01*
X53157Y-77607D01*
X53547Y-77685D01*
X56492D01*
Y-75000D01*
D02*
G37*
G36*
X35472Y-75000D02*
X31508D01*
Y-82409D01*
X34453D01*
X34843Y-82332D01*
X35174Y-82111D01*
X35395Y-81780D01*
X35472Y-81390D01*
Y-75000D01*
D02*
G37*
G36*
X92677Y-67187D02*
X91209Y-67331D01*
X89797Y-67760D01*
X88496Y-68455D01*
X87356Y-69391D01*
X86419Y-70531D01*
X85724Y-71833D01*
X85296Y-73244D01*
X85151Y-74713D01*
X85296Y-76181D01*
X85724Y-77593D01*
X86419Y-78894D01*
X87356Y-80034D01*
X88496Y-80970D01*
X89797Y-81666D01*
X91209Y-82094D01*
X92677Y-82239D01*
X94145Y-82094D01*
X95557Y-81666D01*
X96858Y-80970D01*
X97999Y-80034D01*
X98935Y-78894D01*
X99630Y-77593D01*
X100059Y-76181D01*
X100203Y-74713D01*
X100059Y-73244D01*
X99630Y-71833D01*
X98935Y-70531D01*
X97999Y-69391D01*
X96858Y-68455D01*
X95557Y-67760D01*
X94145Y-67331D01*
X92677Y-67187D01*
D02*
G37*
G36*
X61457Y-75000D02*
X57492D01*
Y-77685D01*
X60437D01*
X60827Y-77607D01*
X61158Y-77386D01*
X61379Y-77056D01*
X61457Y-76665D01*
Y-75000D01*
D02*
G37*
G36*
X30508Y-66591D02*
X27563D01*
X27173Y-66668D01*
X26842Y-66889D01*
X26621Y-67220D01*
X26543Y-67610D01*
Y-74000D01*
X30508D01*
Y-66591D01*
D02*
G37*
G36*
X34453D02*
X31508D01*
Y-74000D01*
X35472D01*
Y-67610D01*
X35395Y-67220D01*
X35174Y-66889D01*
X34843Y-66668D01*
X34453Y-66591D01*
D02*
G37*
G36*
X56492Y-71315D02*
X53547D01*
X53157Y-71393D01*
X52826Y-71614D01*
X52605Y-71944D01*
X52528Y-72335D01*
Y-74000D01*
X56492D01*
Y-71315D01*
D02*
G37*
G36*
X60437D02*
X57492D01*
Y-74000D01*
X61457D01*
Y-72335D01*
X61379Y-71944D01*
X61158Y-71614D01*
X60827Y-71393D01*
X60437Y-71315D01*
D02*
G37*
G36*
X240998Y-106580D02*
X238098D01*
Y-110500D01*
X242018D01*
Y-107600D01*
X241940Y-107210D01*
X241719Y-106879D01*
X241389Y-106658D01*
X240998Y-106580D01*
D02*
G37*
G36*
X226012Y-95882D02*
X221681D01*
X221222Y-96072D01*
X221032Y-96531D01*
Y-100469D01*
X221222Y-100928D01*
X221681Y-101118D01*
X222827D01*
Y-103231D01*
X216913Y-109145D01*
X216451Y-108954D01*
Y-107600D01*
X216261Y-107141D01*
X215802Y-106951D01*
X209002D01*
X208542Y-107141D01*
X208352Y-107600D01*
Y-114400D01*
X208542Y-114859D01*
X209002Y-115049D01*
X215802D01*
X216261Y-114859D01*
X216451Y-114400D01*
Y-112020D01*
X216500D01*
X216890Y-111942D01*
X217221Y-111721D01*
X224567Y-104375D01*
X224788Y-104044D01*
X224866Y-103654D01*
Y-101118D01*
X226012D01*
X226471Y-100928D01*
X226661Y-100469D01*
Y-96531D01*
X226471Y-96072D01*
X226012Y-95882D01*
D02*
G37*
G36*
X200998Y-106580D02*
X198098D01*
Y-110500D01*
X202018D01*
Y-107600D01*
X201940Y-107210D01*
X201719Y-106879D01*
X201389Y-106658D01*
X200998Y-106580D01*
D02*
G37*
G36*
X237098D02*
X234198D01*
X233808Y-106658D01*
X233477Y-106879D01*
X233257Y-107210D01*
X233179Y-107600D01*
Y-110500D01*
X237098D01*
Y-106580D01*
D02*
G37*
G36*
X40154Y-95000D02*
X37469D01*
Y-96469D01*
X37546Y-96859D01*
X37767Y-97189D01*
X38098Y-97411D01*
X38488Y-97488D01*
X40154D01*
Y-95000D01*
D02*
G37*
G36*
X42819Y-91512D02*
X41154D01*
Y-94000D01*
X43839D01*
Y-92532D01*
X43761Y-92141D01*
X43540Y-91811D01*
X43209Y-91589D01*
X42819Y-91512D01*
D02*
G37*
G36*
X30508Y-75000D02*
X26543D01*
Y-81390D01*
X26621Y-81780D01*
X26842Y-82111D01*
X27173Y-82332D01*
X27563Y-82409D01*
X30508D01*
Y-75000D01*
D02*
G37*
G36*
X43839Y-95000D02*
X41154D01*
Y-97488D01*
X42819D01*
X43209Y-97411D01*
X43540Y-97189D01*
X43761Y-96859D01*
X43839Y-96469D01*
Y-95000D01*
D02*
G37*
G36*
X40154Y-91512D02*
X38488D01*
X38098Y-91589D01*
X37767Y-91811D01*
X37546Y-92141D01*
X37469Y-92532D01*
Y-94000D01*
X40154D01*
Y-91512D01*
D02*
G37*
G36*
X142154Y168488D02*
X140488D01*
X140098Y168411D01*
X139767Y168190D01*
X139546Y167859D01*
X139469Y167469D01*
Y166000D01*
X142154D01*
Y168488D01*
D02*
G37*
G36*
X144819D02*
X143154D01*
Y166000D01*
X145838D01*
Y167469D01*
X145761Y167859D01*
X145540Y168190D01*
X145209Y168411D01*
X144819Y168488D01*
D02*
G37*
G36*
X68130Y206460D02*
X67847Y206423D01*
X67117Y206120D01*
X66490Y205640D01*
X66009Y205013D01*
X65707Y204283D01*
X65670Y204000D01*
X68130D01*
Y206460D01*
D02*
G37*
G36*
X225224Y206122D02*
X224546Y206033D01*
X223913Y205771D01*
X223370Y205354D01*
X222953Y204811D01*
X222691Y204179D01*
X222602Y203500D01*
X222691Y202821D01*
X222953Y202189D01*
X223370Y201646D01*
X223913Y201229D01*
X224546Y200967D01*
X225224Y200878D01*
X225903Y200967D01*
X226536Y201229D01*
X227079Y201646D01*
X227496Y202189D01*
X227758Y202821D01*
X227847Y203500D01*
X227758Y204179D01*
X227496Y204811D01*
X227079Y205354D01*
X226536Y205771D01*
X225903Y206033D01*
X225224Y206122D01*
D02*
G37*
G36*
X125500Y183654D02*
X123012D01*
Y181988D01*
X123090Y181598D01*
X123310Y181267D01*
X123641Y181046D01*
X124031Y180969D01*
X125500D01*
Y183654D01*
D02*
G37*
G36*
X128988D02*
X126500D01*
Y180969D01*
X127969D01*
X128359Y181046D01*
X128690Y181267D01*
X128911Y181598D01*
X128988Y181988D01*
Y183654D01*
D02*
G37*
G36*
X118500D02*
X116012D01*
Y181988D01*
X116089Y181598D01*
X116311Y181267D01*
X116641Y181046D01*
X117032Y180969D01*
X118500D01*
Y183654D01*
D02*
G37*
G36*
X121988D02*
X119500D01*
Y180969D01*
X120968D01*
X121359Y181046D01*
X121689Y181267D01*
X121911Y181598D01*
X121988Y181988D01*
Y183654D01*
D02*
G37*
G36*
X145838Y165000D02*
X143154D01*
Y162512D01*
X144819D01*
X145209Y162590D01*
X145540Y162811D01*
X145761Y163141D01*
X145838Y163531D01*
Y165000D01*
D02*
G37*
G36*
X169130Y206460D02*
Y204000D01*
X171590D01*
X171553Y204283D01*
X171250Y205013D01*
X170770Y205640D01*
X170143Y206120D01*
X169413Y206423D01*
X169130Y206460D01*
D02*
G37*
G36*
X218130D02*
X217847Y206423D01*
X217117Y206120D01*
X216490Y205640D01*
X216009Y205013D01*
X215707Y204283D01*
X215670Y204000D01*
X218130D01*
Y206460D01*
D02*
G37*
G36*
X142154Y165000D02*
X139469D01*
Y163531D01*
X139546Y163141D01*
X139767Y162811D01*
X140098Y162590D01*
X140488Y162512D01*
X142154D01*
Y165000D01*
D02*
G37*
G36*
X118130Y206460D02*
X117847Y206423D01*
X117117Y206120D01*
X116490Y205640D01*
X116009Y205013D01*
X115707Y204283D01*
X115670Y204000D01*
X118130D01*
Y206460D01*
D02*
G37*
G36*
X69130D02*
Y204000D01*
X71590D01*
X71553Y204283D01*
X71250Y205013D01*
X70770Y205640D01*
X70143Y206120D01*
X69413Y206423D01*
X69130Y206460D01*
D02*
G37*
G36*
X168130D02*
X167847Y206423D01*
X167117Y206120D01*
X166490Y205640D01*
X166009Y205013D01*
X165707Y204283D01*
X165670Y204000D01*
X168130D01*
Y206460D01*
D02*
G37*
G36*
X119130D02*
Y204000D01*
X121590D01*
X121553Y204283D01*
X121250Y205013D01*
X120770Y205640D01*
X120143Y206120D01*
X119413Y206423D01*
X119130Y206460D01*
D02*
G37*
G36*
X68130Y203000D02*
X65670D01*
X65707Y202717D01*
X66009Y201987D01*
X66490Y201360D01*
X67117Y200880D01*
X67847Y200577D01*
X68130Y200540D01*
Y203000D01*
D02*
G37*
G36*
X71590D02*
X69130D01*
Y200540D01*
X69413Y200577D01*
X70143Y200880D01*
X70770Y201360D01*
X71250Y201987D01*
X71553Y202717D01*
X71590Y203000D01*
D02*
G37*
G36*
X257500Y215640D02*
X255444Y215479D01*
X253439Y214997D01*
X251534Y214208D01*
X249776Y213131D01*
X248208Y211792D01*
X246869Y210224D01*
X245792Y208466D01*
X245003Y206561D01*
X244521Y204556D01*
X244359Y202500D01*
X244521Y200444D01*
X245003Y198439D01*
X245792Y196534D01*
X246869Y194776D01*
X248208Y193208D01*
X249776Y191869D01*
X251534Y190792D01*
X253439Y190003D01*
X255444Y189521D01*
X257500Y189359D01*
X259556Y189521D01*
X261561Y190003D01*
X263466Y190792D01*
X265224Y191869D01*
X266792Y193208D01*
X268131Y194776D01*
X269208Y196534D01*
X269997Y198439D01*
X270479Y200444D01*
X270640Y202500D01*
X270479Y204556D01*
X269997Y206561D01*
X269208Y208466D01*
X268131Y210224D01*
X266792Y211792D01*
X265224Y213131D01*
X263466Y214208D01*
X261561Y214997D01*
X259556Y215479D01*
X257500Y215640D01*
D02*
G37*
G36*
X212134Y206122D02*
X211455Y206033D01*
X210823Y205771D01*
X210279Y205354D01*
X209863Y204811D01*
X209601Y204179D01*
X209511Y203500D01*
X209601Y202821D01*
X209863Y202189D01*
X210279Y201646D01*
X210823Y201229D01*
X211455Y200967D01*
X211545Y200955D01*
Y199491D01*
X210930Y198876D01*
X164298D01*
Y202049D01*
X164405Y202189D01*
X164667Y202821D01*
X164756Y203500D01*
X164667Y204179D01*
X164405Y204811D01*
X163988Y205354D01*
X163445Y205771D01*
X162813Y206033D01*
X162134Y206122D01*
X161455Y206033D01*
X160823Y205771D01*
X160280Y205354D01*
X159863Y204811D01*
X159601Y204179D01*
X159511Y203500D01*
X159601Y202821D01*
X159863Y202189D01*
X160280Y201646D01*
X160823Y201229D01*
X161455Y200967D01*
X161545Y200955D01*
Y198876D01*
X113510D01*
Y201279D01*
X113988Y201646D01*
X114405Y202189D01*
X114667Y202821D01*
X114756Y203500D01*
X114667Y204179D01*
X114405Y204811D01*
X113988Y205354D01*
X113445Y205771D01*
X112813Y206033D01*
X112134Y206122D01*
X111455Y206033D01*
X110823Y205771D01*
X110280Y205354D01*
X109863Y204811D01*
X109601Y204179D01*
X109511Y203500D01*
X109601Y202821D01*
X109863Y202189D01*
X110280Y201646D01*
X110757Y201279D01*
Y198876D01*
X65570D01*
X63617Y200829D01*
X63643Y201381D01*
X63988Y201646D01*
X64405Y202189D01*
X64667Y202821D01*
X64756Y203500D01*
X64667Y204179D01*
X64405Y204811D01*
X63988Y205354D01*
X63445Y205771D01*
X62813Y206033D01*
X62134Y206122D01*
X61455Y206033D01*
X60823Y205771D01*
X60280Y205354D01*
X59863Y204811D01*
X59601Y204179D01*
X59511Y203500D01*
X59601Y202821D01*
X59863Y202189D01*
X60280Y201646D01*
X60757Y201279D01*
Y200366D01*
X60862Y199839D01*
X61161Y199393D01*
X64027Y196527D01*
X64027Y196527D01*
X64473Y196228D01*
X65000Y196124D01*
X110624D01*
Y188542D01*
X110124Y188275D01*
X109819Y188478D01*
X109000Y188641D01*
X108181Y188478D01*
X107486Y188014D01*
X107055Y187369D01*
X106849Y187357D01*
X106735Y187382D01*
X106547Y187440D01*
X106365Y187881D01*
X105905Y188071D01*
X105252D01*
Y189268D01*
X105174Y189658D01*
X104953Y189989D01*
X101721Y193221D01*
X101390Y193442D01*
X101000Y193520D01*
X80000D01*
X79610Y193442D01*
X79279Y193221D01*
X77933Y191875D01*
X77712Y191544D01*
X77634Y191154D01*
Y191118D01*
X76488D01*
X76029Y190928D01*
X75839Y190469D01*
Y186531D01*
X76029Y186072D01*
X76299Y185960D01*
X76248Y185440D01*
X76098Y185410D01*
X75767Y185189D01*
X75546Y184859D01*
X75469Y184468D01*
Y183000D01*
X78654D01*
Y182000D01*
X75469D01*
Y180532D01*
X75528Y180232D01*
X75353Y179900D01*
X75218Y179732D01*
X65321D01*
X65321Y179732D01*
X64892Y179647D01*
X64528Y179403D01*
X48281Y163156D01*
X47819Y163347D01*
Y168728D01*
X47169Y169378D01*
X44669D01*
Y171878D01*
X44020Y172527D01*
X37721D01*
X37071Y171878D01*
Y162429D01*
X37383Y162117D01*
X37393Y162102D01*
X37409Y162092D01*
X37721Y161780D01*
X46251D01*
X46442Y161318D01*
X46207Y161082D01*
X45964Y160719D01*
X45878Y160289D01*
X45878Y160289D01*
Y140500D01*
X45878Y140500D01*
X45964Y140071D01*
X46207Y139707D01*
X47506Y138408D01*
X47870Y138165D01*
X48299Y138079D01*
X48299Y138079D01*
X49892D01*
X50063Y137823D01*
Y136642D01*
X50226Y136248D01*
X50063Y135854D01*
Y134673D01*
X50226Y134280D01*
X50063Y133886D01*
Y132705D01*
X50226Y132311D01*
X50063Y131917D01*
Y130736D01*
X50226Y130342D01*
X50063Y129949D01*
Y128768D01*
X50226Y128374D01*
X50063Y127980D01*
Y126799D01*
X50226Y126406D01*
X50063Y126012D01*
Y124831D01*
X50226Y124437D01*
X50063Y124043D01*
Y122862D01*
X50226Y122468D01*
X50063Y122075D01*
Y120894D01*
X50226Y120500D01*
X50063Y120106D01*
Y118925D01*
X50226Y118532D01*
X50063Y118138D01*
Y116957D01*
X50226Y116563D01*
X50063Y116169D01*
Y114988D01*
X50226Y114594D01*
X50063Y114201D01*
Y113020D01*
X50226Y112626D01*
X50063Y112232D01*
Y111051D01*
X50226Y110658D01*
X50063Y110264D01*
Y109083D01*
X50226Y108689D01*
X50063Y108295D01*
Y107114D01*
X50226Y106720D01*
X50063Y106327D01*
Y105146D01*
X50226Y104752D01*
X50063Y104358D01*
Y103177D01*
X50226Y102784D01*
X50063Y102390D01*
Y101209D01*
X50226Y100815D01*
X50063Y100421D01*
Y99240D01*
X50226Y98847D01*
X50063Y98453D01*
Y97272D01*
X50226Y96878D01*
X50063Y96484D01*
Y95303D01*
X49824Y94945D01*
X36997D01*
X36721Y95221D01*
X36390Y95442D01*
X36000Y95520D01*
X31844D01*
X31514Y96014D01*
X30819Y96478D01*
X30000Y96641D01*
X29181Y96478D01*
X28486Y96014D01*
X28022Y95319D01*
X27859Y94500D01*
X28022Y93681D01*
X28486Y92986D01*
X29181Y92522D01*
X30000Y92359D01*
X30819Y92522D01*
X31514Y92986D01*
X31844Y93480D01*
X35578D01*
X35854Y93204D01*
X36185Y92983D01*
X36575Y92906D01*
X49824D01*
X50063Y92547D01*
Y91366D01*
X49824Y91008D01*
X48988D01*
X48598Y90930D01*
X48267Y90709D01*
X47448Y89890D01*
X47227Y89560D01*
X47150Y89169D01*
Y79220D01*
X37721D01*
X37409Y78908D01*
X37393Y78898D01*
X37383Y78883D01*
X37071Y78571D01*
Y69122D01*
X37721Y68473D01*
X44020D01*
X44669Y69122D01*
Y71622D01*
X47900D01*
Y74505D01*
X48362Y74696D01*
X53279Y69779D01*
X53610Y69558D01*
X54000Y69480D01*
X54156D01*
X54486Y68986D01*
X55181Y68522D01*
X56000Y68359D01*
X56819Y68522D01*
X57514Y68986D01*
X57978Y69681D01*
X58141Y70500D01*
X57978Y71319D01*
X57537Y71980D01*
X57575Y72156D01*
X57695Y72431D01*
X58178Y72448D01*
X58486Y71986D01*
X59181Y71522D01*
X60000Y71359D01*
X60819Y71522D01*
X61514Y71986D01*
X61978Y72681D01*
X62141Y73500D01*
X61978Y74319D01*
X61537Y74980D01*
X61575Y75156D01*
X61716Y75480D01*
X62000D01*
X62390Y75558D01*
X62721Y75779D01*
X63721Y76779D01*
X63942Y77110D01*
X64020Y77500D01*
Y80036D01*
X63942Y80426D01*
X63721Y80756D01*
X59756Y84721D01*
X59426Y84942D01*
X59035Y85020D01*
X56879D01*
X56457Y85461D01*
Y85551D01*
X53075D01*
Y86453D01*
X53961Y86551D01*
X56457D01*
Y86642D01*
X56391Y86970D01*
X56421Y87000D01*
X56358Y87063D01*
X56326Y87111D01*
Y90937D01*
X57000D01*
X69480Y78456D01*
Y72422D01*
X63578Y66520D01*
X62137D01*
X61978Y67319D01*
X61514Y68014D01*
X60819Y68478D01*
X60000Y68641D01*
X59181Y68478D01*
X58486Y68014D01*
X58022Y67319D01*
X57859Y66500D01*
X58022Y65681D01*
X58486Y64986D01*
X59181Y64522D01*
X60000Y64359D01*
X60611Y64480D01*
X64000D01*
X64390Y64558D01*
X64721Y64779D01*
X71221Y71279D01*
X71442Y71610D01*
X71520Y72000D01*
Y77741D01*
X71982Y77932D01*
X72878Y77035D01*
Y71500D01*
X72878Y71500D01*
X72964Y71071D01*
X73207Y70707D01*
X75207Y68707D01*
X75207Y68707D01*
X75571Y68464D01*
X75839Y68410D01*
Y67532D01*
X76029Y67072D01*
X76488Y66882D01*
X80819D01*
X81278Y67072D01*
X81468Y67532D01*
Y71469D01*
X81278Y71928D01*
X80819Y72118D01*
X76488D01*
X76029Y71928D01*
X75985Y71822D01*
X75519Y71722D01*
X75122Y72070D01*
Y76468D01*
X75622Y76744D01*
X75839Y76607D01*
Y74532D01*
X76029Y74072D01*
X76488Y73882D01*
X80819D01*
X81278Y74072D01*
X81468Y74532D01*
Y78447D01*
X82532D01*
Y74532D01*
X82722Y74072D01*
X83181Y73882D01*
X87512D01*
X87971Y74072D01*
X88161Y74532D01*
Y78469D01*
X87971Y78928D01*
X87512Y79118D01*
X86468D01*
Y79154D01*
X86383Y79583D01*
X86140Y79947D01*
X86140Y79947D01*
X85725Y80362D01*
X85694Y80382D01*
X85846Y80882D01*
X87512D01*
X87971Y81072D01*
X88161Y81532D01*
Y85469D01*
X87971Y85928D01*
X87512Y86118D01*
X86468D01*
Y86154D01*
X86383Y86583D01*
X86140Y86947D01*
X86140Y86947D01*
X85725Y87362D01*
X85694Y87382D01*
X85846Y87882D01*
X87512D01*
X87971Y88072D01*
X88161Y88532D01*
Y92469D01*
X87971Y92928D01*
X87512Y93118D01*
X86468D01*
Y93154D01*
X86383Y93583D01*
X86140Y93947D01*
X86140Y93947D01*
X85725Y94362D01*
X85694Y94382D01*
X85846Y94882D01*
X87512D01*
X87971Y95072D01*
X88161Y95531D01*
Y99468D01*
X87971Y99928D01*
X87512Y100118D01*
X86468D01*
Y100154D01*
X86383Y100583D01*
X86140Y100947D01*
X86140Y100947D01*
X85725Y101362D01*
X85694Y101382D01*
X85846Y101882D01*
X87512D01*
X87971Y102072D01*
X88161Y102532D01*
Y106468D01*
X87971Y106928D01*
X87512Y107118D01*
X86946D01*
X86468Y107153D01*
X86383Y107583D01*
X86140Y107947D01*
X85725Y108362D01*
X85694Y108382D01*
X85846Y108882D01*
X87512D01*
X87971Y109072D01*
X88161Y109531D01*
Y113469D01*
X87971Y113928D01*
X87512Y114118D01*
X86946D01*
X86468Y114154D01*
X86383Y114583D01*
X86140Y114947D01*
X85725Y115362D01*
X85694Y115382D01*
X85846Y115882D01*
X87512D01*
X87971Y116072D01*
X88161Y116532D01*
Y120468D01*
X87971Y120928D01*
X87512Y121118D01*
X86462D01*
X86383Y121514D01*
X86140Y121878D01*
X86140Y121878D01*
X85656Y122362D01*
X85625Y122382D01*
X85777Y122882D01*
X87512D01*
X87971Y123072D01*
X88161Y123531D01*
Y127469D01*
X87971Y127928D01*
X87512Y128118D01*
X86946D01*
X86468Y128154D01*
X86383Y128583D01*
X86140Y128947D01*
X85725Y129362D01*
X85694Y129382D01*
X85846Y129882D01*
X87512D01*
X87971Y130072D01*
X88161Y130532D01*
Y134468D01*
X87971Y134928D01*
X87512Y135118D01*
X86946D01*
X86468Y135153D01*
X86383Y135583D01*
X86140Y135947D01*
X86074Y136012D01*
X86281Y136512D01*
X87512D01*
X87902Y136590D01*
X88233Y136811D01*
X88454Y137141D01*
X88531Y137531D01*
Y139000D01*
X85346D01*
Y140000D01*
X88531D01*
Y141447D01*
X93445D01*
Y141319D01*
X93635Y140860D01*
X94095Y140670D01*
X97441D01*
X97463Y140679D01*
X97878Y140401D01*
Y133653D01*
X97736D01*
X97277Y133463D01*
X97087Y133004D01*
Y128201D01*
X97277Y127742D01*
X97736Y127551D01*
X102264D01*
X102723Y127742D01*
X102913Y128201D01*
Y133004D01*
X102723Y133463D01*
X102264Y133653D01*
X100122D01*
Y141725D01*
X100622Y141932D01*
X101127Y141427D01*
X101127Y141427D01*
X101573Y141128D01*
X101622Y141119D01*
X101710Y140933D01*
X101781Y140577D01*
X101617Y140331D01*
X101540Y139941D01*
Y139260D01*
X104232D01*
X106925D01*
Y139941D01*
X106848Y140331D01*
X106719Y140524D01*
X106897Y140973D01*
X106940Y141024D01*
X107869D01*
Y99676D01*
X102847Y94653D01*
X102493Y94124D01*
X102369Y93500D01*
Y64131D01*
X88161D01*
Y64468D01*
X87971Y64928D01*
X87512Y65118D01*
X83181D01*
X82722Y64928D01*
X82532Y64468D01*
Y60532D01*
X82722Y60072D01*
X83181Y59882D01*
X83715D01*
Y59118D01*
X83181D01*
X82722Y58928D01*
X82532Y58469D01*
Y54532D01*
X82722Y54072D01*
X83181Y53882D01*
X87512D01*
X87971Y54072D01*
X88161Y54532D01*
Y58469D01*
X87971Y58928D01*
X87512Y59118D01*
X86978D01*
Y59882D01*
X87512D01*
X87971Y60072D01*
X88161Y60532D01*
Y60869D01*
X102369D01*
Y34376D01*
X62070D01*
X55973Y40473D01*
X55527Y40772D01*
X55000Y40876D01*
X27606D01*
X27514Y41014D01*
X26819Y41478D01*
X26000Y41641D01*
X25181Y41478D01*
X24486Y41014D01*
X24022Y40319D01*
X23859Y39500D01*
X24022Y38681D01*
X24486Y37986D01*
X25181Y37522D01*
X26000Y37359D01*
X26819Y37522D01*
X27514Y37986D01*
X27606Y38124D01*
X54430D01*
X60527Y32027D01*
X60973Y31728D01*
X61500Y31624D01*
X61500Y31624D01*
X91484D01*
X91509Y31124D01*
X91209Y31094D01*
X89797Y30666D01*
X88496Y29970D01*
X87356Y29034D01*
X86419Y27894D01*
X85724Y26593D01*
X85296Y25181D01*
X85151Y23713D01*
X85296Y22244D01*
X85724Y20832D01*
X86419Y19531D01*
X87356Y18391D01*
X88496Y17455D01*
X89797Y16759D01*
X91209Y16331D01*
X92677Y16187D01*
X94145Y16331D01*
X95557Y16759D01*
X96858Y17455D01*
X97999Y18391D01*
X98935Y19531D01*
X99630Y20832D01*
X100059Y22244D01*
X100203Y23713D01*
X100059Y25181D01*
X99630Y26593D01*
X98935Y27894D01*
X97999Y29034D01*
X96858Y29970D01*
X95557Y30666D01*
X94145Y31094D01*
X93845Y31124D01*
X93870Y31624D01*
X102369D01*
Y25500D01*
Y-42324D01*
X77846Y-66847D01*
X77493Y-67376D01*
X77369Y-68000D01*
Y-81924D01*
X61086D01*
Y-81390D01*
X60896Y-80931D01*
X60437Y-80740D01*
X54292D01*
X53970Y-80258D01*
X53308Y-79816D01*
X52528Y-79661D01*
X49400D01*
X48620Y-79816D01*
X47958Y-80258D01*
X44758Y-83458D01*
X44316Y-84120D01*
X44161Y-84900D01*
X44161Y-91512D01*
X44316Y-92292D01*
X44532Y-92615D01*
Y-96385D01*
X44316Y-96708D01*
X44161Y-97488D01*
X44161Y-99046D01*
X44316Y-99827D01*
X44758Y-100488D01*
X45112Y-100842D01*
X45773Y-101284D01*
X46554Y-101439D01*
X53100Y-101439D01*
X53880Y-101284D01*
X54542Y-100842D01*
X59842Y-95542D01*
X60284Y-94880D01*
X60439Y-94100D01*
X60439Y-86740D01*
X60379Y-86440D01*
X60437Y-86370D01*
X60896Y-86180D01*
X61086Y-85720D01*
Y-85186D01*
X77369D01*
Y-87000D01*
X77493Y-87624D01*
X77846Y-88153D01*
X83346Y-93654D01*
X83876Y-94007D01*
X84500Y-94131D01*
X95022D01*
Y-95882D01*
X94488D01*
X94029Y-96072D01*
X93839Y-96531D01*
Y-100469D01*
X94029Y-100928D01*
X94488Y-101118D01*
X98819D01*
X99278Y-100928D01*
X99468Y-100469D01*
Y-96531D01*
X99278Y-96072D01*
X98819Y-95882D01*
X98285D01*
Y-94131D01*
X133277D01*
Y-95882D01*
X132488D01*
X132029Y-96072D01*
X131839Y-96531D01*
Y-100469D01*
X132029Y-100928D01*
X132488Y-101118D01*
X136819D01*
X137278Y-100928D01*
X137468Y-100469D01*
Y-96531D01*
X137278Y-96072D01*
X136819Y-95882D01*
X136030D01*
Y-94131D01*
X179715D01*
Y-95882D01*
X179181D01*
X178722Y-96072D01*
X178532Y-96531D01*
Y-100469D01*
X178722Y-100928D01*
X179181Y-101118D01*
X183512D01*
X183971Y-100928D01*
X184161Y-100469D01*
Y-96531D01*
X183971Y-96072D01*
X183512Y-95882D01*
X182978D01*
Y-94131D01*
X215522D01*
Y-95882D01*
X214988D01*
X214529Y-96072D01*
X214339Y-96531D01*
Y-100469D01*
X214529Y-100928D01*
X214988Y-101118D01*
X219319D01*
X219778Y-100928D01*
X219968Y-100469D01*
Y-96531D01*
X219778Y-96072D01*
X219319Y-95882D01*
X218785D01*
Y-94131D01*
X231192D01*
X231816Y-94007D01*
X232345Y-93654D01*
X234393Y-91606D01*
X235035Y-92249D01*
X235494Y-92439D01*
X235954Y-92249D01*
X239016Y-89186D01*
X239206Y-88727D01*
X239016Y-88268D01*
X236232Y-85484D01*
X235773Y-85294D01*
X235314Y-85484D01*
X232251Y-88546D01*
X232061Y-89006D01*
X232154Y-89230D01*
X230516Y-90869D01*
X85176D01*
X80631Y-86324D01*
Y-83555D01*
Y-68676D01*
X105154Y-44153D01*
X105507Y-43624D01*
X105631Y-43000D01*
Y24124D01*
X199430D01*
X225027Y-1473D01*
X225473Y-1772D01*
X226000Y-1877D01*
X254907D01*
Y-4943D01*
X255098Y-5403D01*
X255023Y-5913D01*
X254947Y-6097D01*
Y-9480D01*
X222422D01*
X196025Y16917D01*
X196141Y17500D01*
X195978Y18319D01*
X195514Y19014D01*
X194819Y19478D01*
X194000Y19641D01*
X193181Y19478D01*
X192486Y19014D01*
X192022Y18319D01*
X191859Y17500D01*
X192022Y16681D01*
X192486Y15986D01*
X193181Y15522D01*
X194000Y15359D01*
X194583Y15475D01*
X195299Y14759D01*
X194980Y14371D01*
X194819Y14478D01*
X194000Y14641D01*
X193181Y14478D01*
X192486Y14014D01*
X192022Y13319D01*
X191859Y12500D01*
X192022Y11681D01*
X192486Y10986D01*
X193181Y10522D01*
X194000Y10359D01*
X194583Y10475D01*
X226279Y-21221D01*
X226610Y-21442D01*
X227000Y-21520D01*
X254947D01*
Y-24903D01*
X255043Y-25135D01*
X255112Y-25500D01*
X255043Y-25865D01*
X254947Y-26097D01*
Y-34903D01*
X255043Y-35135D01*
X255112Y-35500D01*
X255043Y-35865D01*
X254947Y-36097D01*
Y-44903D01*
X255043Y-45135D01*
X255112Y-45500D01*
X255043Y-45865D01*
X254947Y-46097D01*
Y-54903D01*
X255043Y-55135D01*
X255112Y-55500D01*
X255043Y-55865D01*
X254947Y-56097D01*
Y-59480D01*
X250320D01*
Y-47744D01*
X250814Y-47414D01*
X251278Y-46719D01*
X251441Y-45900D01*
X251278Y-45081D01*
X250814Y-44386D01*
X250119Y-43922D01*
X249300Y-43759D01*
X248481Y-43922D01*
X247786Y-44386D01*
X247322Y-45081D01*
X247159Y-45900D01*
X247322Y-46719D01*
X247786Y-47414D01*
X248280Y-47744D01*
Y-60078D01*
X245279Y-63079D01*
X245058Y-63410D01*
X244980Y-63800D01*
Y-78078D01*
X241636Y-81422D01*
X240965Y-80751D01*
X240506Y-80561D01*
X240046Y-80751D01*
X236984Y-83814D01*
X236794Y-84273D01*
X236984Y-84732D01*
X239768Y-87516D01*
X240227Y-87706D01*
X240686Y-87516D01*
X243749Y-84454D01*
X243939Y-83995D01*
X243749Y-83535D01*
X243078Y-82864D01*
X246721Y-79221D01*
X246942Y-78890D01*
X247020Y-78500D01*
Y-64222D01*
X249722Y-61520D01*
X254947D01*
Y-64903D01*
X255137Y-65363D01*
X255597Y-65553D01*
X264403D01*
X264862Y-65363D01*
X265053Y-64903D01*
Y-56097D01*
X264957Y-55865D01*
X264888Y-55500D01*
X264957Y-55135D01*
X265053Y-54903D01*
Y-46097D01*
X264957Y-45865D01*
X264888Y-45500D01*
X264957Y-45135D01*
X265053Y-44903D01*
Y-36097D01*
X264957Y-35865D01*
X264888Y-35500D01*
X264957Y-35135D01*
X265053Y-34903D01*
Y-26097D01*
X264957Y-25865D01*
X264888Y-25500D01*
X264957Y-25135D01*
X265053Y-24903D01*
Y-16097D01*
X264957Y-15865D01*
X264888Y-15500D01*
X264957Y-15135D01*
X265053Y-14903D01*
Y-6097D01*
X264977Y-5913D01*
X264902Y-5403D01*
X265093Y-4943D01*
Y3943D01*
X264981Y4213D01*
X265164Y4336D01*
X265385Y4667D01*
X265463Y5057D01*
Y9000D01*
X260000D01*
X254537D01*
Y5057D01*
X254615Y4667D01*
X254836Y4336D01*
X255019Y4213D01*
X254907Y3943D01*
Y876D01*
X226570D01*
X200973Y26473D01*
X200527Y26772D01*
X200000Y26876D01*
X105631D01*
Y33000D01*
Y62500D01*
Y92824D01*
X110653Y97847D01*
X111007Y98376D01*
X111131Y99000D01*
Y144424D01*
X114553Y147846D01*
X114907Y148376D01*
X115031Y149000D01*
Y163224D01*
X119653Y167847D01*
X124676Y172869D01*
X144324D01*
X147715Y169478D01*
Y168118D01*
X147181D01*
X146722Y167928D01*
X146532Y167469D01*
Y163531D01*
X146722Y163072D01*
X147181Y162882D01*
X147715D01*
Y161118D01*
X147181D01*
X146722Y160928D01*
X146532Y160468D01*
Y156532D01*
X146722Y156072D01*
X147181Y155882D01*
X147715D01*
Y154154D01*
X147839Y153529D01*
X148193Y153000D01*
X149027Y152166D01*
Y151516D01*
X148886D01*
X148427Y151326D01*
X148150Y151588D01*
X147820Y151809D01*
X147430Y151886D01*
X146158D01*
Y147914D01*
Y143942D01*
X147430D01*
X147820Y144019D01*
X148151Y144240D01*
X148427Y144502D01*
X148886Y144312D01*
X152429D01*
X152886Y144501D01*
X152889Y144502D01*
X153427D01*
X153429Y144501D01*
X153886Y144312D01*
X157430D01*
X157886Y144501D01*
X157889Y144502D01*
X158427D01*
X158430Y144501D01*
X158886Y144312D01*
X162429D01*
X162886Y144501D01*
X162889Y144502D01*
X163427D01*
X163429Y144501D01*
X163886Y144312D01*
X167429D01*
X167886Y144501D01*
X167889Y144502D01*
X168427D01*
X168430Y144501D01*
X168886Y144312D01*
X172430D01*
X172886Y144501D01*
X172889Y144502D01*
X173427D01*
X173430Y144501D01*
X173886Y144312D01*
X177429D01*
X177886Y144501D01*
X177889Y144502D01*
X178427D01*
X178429Y144501D01*
X178886Y144312D01*
X182430D01*
X182886Y144501D01*
X182889Y144502D01*
X183427D01*
X183430Y144501D01*
X183886Y144312D01*
X187429D01*
X187886Y144501D01*
X187889Y144502D01*
X188427D01*
X188429Y144501D01*
X188886Y144312D01*
X192429D01*
X192886Y144501D01*
X192889Y144502D01*
X193427D01*
X193430Y144501D01*
X193886Y144312D01*
X197430D01*
X197886Y144501D01*
X197889Y144502D01*
X198427D01*
X198430Y144501D01*
X198886Y144312D01*
X202430D01*
X202889Y144502D01*
X202941Y144629D01*
X203483Y144629D01*
X203503Y144579D01*
X203886Y144420D01*
X207430D01*
X207812Y144579D01*
X207887Y144760D01*
X208428D01*
X208504Y144579D01*
X208886Y144420D01*
X212429D01*
X212812Y144579D01*
X212971Y144961D01*
Y150867D01*
X212812Y151249D01*
X212429Y151408D01*
X211021D01*
X210814Y151908D01*
X212462Y153556D01*
X214978D01*
X215359Y153632D01*
X215681Y153847D01*
X240006Y178172D01*
X240506Y177965D01*
Y172547D01*
X240665Y172165D01*
X241047Y172006D01*
X246953D01*
X247335Y172165D01*
X247494Y172547D01*
Y178453D01*
X247472Y178506D01*
X247806Y179006D01*
X256588D01*
X267881Y167713D01*
Y-82113D01*
X265588Y-84406D01*
X249049D01*
X248669Y-84482D01*
X248346Y-84697D01*
X216988Y-116056D01*
X112512D01*
X99353Y-102897D01*
X99031Y-102682D01*
X98651Y-102606D01*
X89062D01*
X84303Y-97847D01*
X83981Y-97632D01*
X83601Y-97556D01*
X61856D01*
X61475Y-97632D01*
X61153Y-97847D01*
X54944Y-104056D01*
X32462D01*
X26494Y-98088D01*
Y-89594D01*
Y-83500D01*
X26418Y-83120D01*
X26203Y-82797D01*
X25186Y-81780D01*
X24600Y-81194D01*
X20703Y-77297D01*
X20380Y-77082D01*
X20000Y-77006D01*
X19444D01*
Y-70097D01*
X19330Y-69821D01*
X19624Y-69624D01*
X19845Y-69293D01*
X19923Y-68903D01*
Y-65000D01*
X14500D01*
X9077D01*
Y-68903D01*
X9155Y-69293D01*
X9376Y-69624D01*
X9670Y-69821D01*
X9556Y-70097D01*
Y-78903D01*
X9711Y-79279D01*
X9714Y-79286D01*
Y-79714D01*
X9711Y-79721D01*
X9556Y-80097D01*
Y-88903D01*
X9668Y-89175D01*
X9644Y-89544D01*
X9582Y-89772D01*
X9447Y-90097D01*
Y-98903D01*
X9638Y-99362D01*
X10097Y-99553D01*
X18903D01*
X19363Y-99362D01*
X19553Y-98903D01*
Y-90097D01*
X19418Y-89772D01*
X19356Y-89544D01*
X19332Y-89175D01*
X19444Y-88903D01*
Y-81994D01*
X20182D01*
X23056Y-84868D01*
Y-99101D01*
X23132Y-99481D01*
X23347Y-99804D01*
X30746Y-107203D01*
X31069Y-107418D01*
X31449Y-107494D01*
X55956D01*
X56337Y-107418D01*
X56659Y-107203D01*
X62868Y-100994D01*
X82588D01*
X87347Y-105753D01*
X87670Y-105968D01*
X88050Y-106044D01*
X97638D01*
X110797Y-119203D01*
X111120Y-119419D01*
X111500Y-119494D01*
X218000D01*
X218380Y-119418D01*
X218703Y-119203D01*
X250062Y-87844D01*
X266601D01*
X266981Y-87768D01*
X267303Y-87553D01*
X271028Y-83829D01*
X271243Y-83506D01*
X271319Y-83126D01*
Y168726D01*
X271243Y169106D01*
X271028Y169429D01*
X258303Y182153D01*
X257981Y182368D01*
X257601Y182444D01*
X246511D01*
X246341Y182944D01*
X246462Y183037D01*
X247016Y183759D01*
X247364Y184599D01*
X247482Y185500D01*
X247364Y186401D01*
X247016Y187241D01*
X246462Y187962D01*
X245741Y188516D01*
X244901Y188864D01*
X244000Y188982D01*
X243099Y188864D01*
X242259Y188516D01*
X241537Y187962D01*
X240984Y187241D01*
X240636Y186401D01*
X240517Y185500D01*
X240636Y184599D01*
X240984Y183759D01*
X241537Y183037D01*
X241659Y182944D01*
X241489Y182444D01*
X239828D01*
X239447Y182368D01*
X239125Y182153D01*
X213966Y156994D01*
X211449D01*
X211069Y156918D01*
X210747Y156703D01*
X206197Y152154D01*
X205982Y151831D01*
X205906Y151451D01*
Y151408D01*
X203886D01*
X203503Y151249D01*
X203483Y151199D01*
X202941Y151199D01*
X202889Y151326D01*
X202430Y151516D01*
X202165D01*
X201958Y152016D01*
X215417Y165475D01*
X216000Y165359D01*
X216819Y165522D01*
X217514Y165986D01*
X217978Y166681D01*
X218141Y167500D01*
X218025Y168083D01*
X231840Y181898D01*
X236953D01*
X237412Y182088D01*
X237602Y182547D01*
Y188453D01*
X237412Y188912D01*
X236953Y189102D01*
X231047D01*
X230588Y188912D01*
X230398Y188453D01*
Y183340D01*
X216583Y169525D01*
X216000Y169641D01*
X215181Y169478D01*
X214486Y169014D01*
X214022Y168319D01*
X213859Y167500D01*
X213975Y166917D01*
X199937Y152879D01*
X199716Y152548D01*
X199638Y152158D01*
Y151516D01*
X198886D01*
X198430Y151327D01*
X198427Y151326D01*
X197889D01*
X197886Y151327D01*
X197430Y151516D01*
X196677D01*
Y154736D01*
X197417Y155475D01*
X198000Y155359D01*
X198819Y155522D01*
X199514Y155986D01*
X199978Y156681D01*
X200141Y157500D01*
X200025Y158083D01*
X223840Y181898D01*
X226953D01*
X227412Y182088D01*
X227602Y182547D01*
Y188453D01*
X227412Y188912D01*
X226953Y189102D01*
X221047D01*
X220588Y188912D01*
X220398Y188453D01*
Y182547D01*
X220588Y182088D01*
X220681Y181623D01*
X198583Y159525D01*
X198000Y159641D01*
X197181Y159478D01*
X196486Y159014D01*
X196022Y158319D01*
X195859Y157500D01*
X195975Y156917D01*
X194937Y155879D01*
X194716Y155548D01*
X194638Y155158D01*
Y151516D01*
X193886D01*
X193430Y151327D01*
X193427Y151326D01*
X192889D01*
X192886Y151327D01*
X192429Y151516D01*
X191677D01*
Y155736D01*
X214721Y178779D01*
X214942Y179110D01*
X215020Y179500D01*
Y181898D01*
X216953D01*
X217412Y182088D01*
X217602Y182547D01*
Y188453D01*
X217412Y188912D01*
X216953Y189102D01*
X211047D01*
X210588Y188912D01*
X210398Y188453D01*
Y182547D01*
X210588Y182088D01*
X211047Y181898D01*
X212980D01*
Y179922D01*
X189937Y156879D01*
X189716Y156548D01*
X189638Y156158D01*
Y151516D01*
X188886D01*
X188429Y151327D01*
X188427Y151326D01*
X187889D01*
X187886Y151327D01*
X187429Y151516D01*
X186677D01*
Y155736D01*
X204721Y173779D01*
X204942Y174110D01*
X205020Y174500D01*
Y181898D01*
X206953D01*
X207412Y182088D01*
X207602Y182547D01*
Y188453D01*
X207412Y188912D01*
X206953Y189102D01*
X201047D01*
X200588Y188912D01*
X200398Y188453D01*
Y182547D01*
X200588Y182088D01*
X201047Y181898D01*
X202980D01*
Y174922D01*
X184937Y156879D01*
X184716Y156548D01*
X184638Y156158D01*
Y151516D01*
X183886D01*
X183430Y151327D01*
X183427Y151326D01*
X182889D01*
X182886Y151327D01*
X182430Y151516D01*
X181677D01*
Y155736D01*
X194721Y168779D01*
X194942Y169110D01*
X195020Y169500D01*
Y181898D01*
X196953D01*
X197412Y182088D01*
X197602Y182547D01*
Y188453D01*
X197412Y188912D01*
X196953Y189102D01*
X191047D01*
X190588Y188912D01*
X190398Y188453D01*
Y182547D01*
X190588Y182088D01*
X191047Y181898D01*
X192980D01*
Y169922D01*
X179937Y156879D01*
X179716Y156548D01*
X179638Y156158D01*
Y151516D01*
X178886D01*
X178429Y151327D01*
X178427Y151326D01*
X177889D01*
X177886Y151327D01*
X177429Y151516D01*
X176677D01*
Y159736D01*
X184721Y167779D01*
X184942Y168110D01*
X185020Y168500D01*
Y181898D01*
X186953D01*
X187412Y182088D01*
X187602Y182547D01*
Y188453D01*
X187412Y188912D01*
X186953Y189102D01*
X181047D01*
X180588Y188912D01*
X180398Y188453D01*
Y182547D01*
X180588Y182088D01*
X181047Y181898D01*
X182980D01*
Y168922D01*
X174937Y160879D01*
X174716Y160548D01*
X174638Y160158D01*
Y151516D01*
X173886D01*
X173430Y151327D01*
X173427Y151326D01*
X172889D01*
X172886Y151327D01*
X172430Y151516D01*
X171677D01*
Y165735D01*
X174721Y168779D01*
X174942Y169110D01*
X175020Y169500D01*
Y181898D01*
X176953D01*
X177412Y182088D01*
X177602Y182547D01*
Y188453D01*
X177412Y188912D01*
X176953Y189102D01*
X171047D01*
X170588Y188912D01*
X170398Y188453D01*
Y182547D01*
X170588Y182088D01*
X171047Y181898D01*
X172980D01*
Y169922D01*
X169937Y166879D01*
X169716Y166548D01*
X169638Y166158D01*
Y151516D01*
X168886D01*
X168430Y151327D01*
X168427Y151326D01*
X167889D01*
X167886Y151327D01*
X167429Y151516D01*
X166677D01*
Y158842D01*
X166600Y159232D01*
X166379Y159563D01*
X165020Y160922D01*
Y181898D01*
X166953D01*
X167412Y182088D01*
X167602Y182547D01*
Y188453D01*
X167412Y188912D01*
X166953Y189102D01*
X161047D01*
X160588Y188912D01*
X160398Y188453D01*
Y182547D01*
X160588Y182088D01*
X161047Y181898D01*
X162980D01*
Y160500D01*
X163058Y160110D01*
X163279Y159779D01*
X164638Y158420D01*
Y151516D01*
X163886D01*
X163429Y151327D01*
X163427Y151326D01*
X162889D01*
X162886Y151327D01*
X162429Y151516D01*
X161677D01*
Y155842D01*
X161600Y156232D01*
X161379Y156563D01*
X160020Y157922D01*
Y174500D01*
X159942Y174890D01*
X159721Y175221D01*
X155020Y179922D01*
Y181898D01*
X156953D01*
X157412Y182088D01*
X157602Y182547D01*
Y188453D01*
X157412Y188912D01*
X156953Y189102D01*
X151047D01*
X150588Y188912D01*
X150398Y188453D01*
Y182547D01*
X150588Y182088D01*
X151047Y181898D01*
X152980D01*
Y179500D01*
X153058Y179110D01*
X153279Y178779D01*
X157980Y174078D01*
Y157500D01*
X158058Y157110D01*
X158279Y156779D01*
X159638Y155420D01*
Y151516D01*
X158886D01*
X158430Y151327D01*
X158427Y151326D01*
X157889D01*
X157886Y151327D01*
X157430Y151516D01*
X156677D01*
Y169842D01*
X156600Y170232D01*
X156379Y170563D01*
X145506Y181436D01*
X145697Y181898D01*
X146953D01*
X147412Y182088D01*
X147602Y182547D01*
Y188453D01*
X147412Y188912D01*
X146953Y189102D01*
X144800D01*
X144721Y189221D01*
X142375Y191567D01*
X142044Y191788D01*
X141654Y191866D01*
X135618D01*
Y193012D01*
X135428Y193471D01*
X134968Y193661D01*
X131032D01*
X130572Y193471D01*
X130382Y193012D01*
Y188681D01*
X130572Y188222D01*
X131032Y188032D01*
X134968D01*
X135428Y188222D01*
X135618Y188681D01*
Y189827D01*
X141103D01*
X141279Y189602D01*
X141047Y189102D01*
X140588Y188912D01*
X140398Y188453D01*
Y182547D01*
X140588Y182088D01*
X141047Y181898D01*
X142980D01*
Y181500D01*
X143058Y181110D01*
X143279Y180779D01*
X154638Y169420D01*
Y151516D01*
X153886D01*
X153429Y151327D01*
X153427Y151326D01*
X152889D01*
X152886Y151327D01*
X152429Y151516D01*
X152289D01*
Y152842D01*
X152165Y153466D01*
X151811Y153996D01*
X150978Y154829D01*
Y155882D01*
X151512D01*
X151971Y156072D01*
X152161Y156532D01*
Y160468D01*
X151971Y160928D01*
X151512Y161118D01*
X150978D01*
Y162882D01*
X151512D01*
X151971Y163072D01*
X152161Y163531D01*
Y167469D01*
X151971Y167928D01*
X151512Y168118D01*
X150978D01*
Y170153D01*
X150854Y170778D01*
X150500Y171307D01*
X146153Y175654D01*
X145624Y176007D01*
X145000Y176131D01*
X134376D01*
Y181339D01*
X134968D01*
X135428Y181529D01*
X135618Y181988D01*
Y186319D01*
X135428Y186778D01*
X134968Y186968D01*
X131032D01*
X130572Y186778D01*
X130382Y186319D01*
Y181988D01*
X130572Y181529D01*
X131032Y181339D01*
X131624D01*
Y176131D01*
X124000D01*
X123376Y176007D01*
X122846Y175654D01*
X118320Y171127D01*
X109713Y179733D01*
X109267Y180032D01*
X108740Y180136D01*
X106474D01*
X106365Y180400D01*
X105905Y180590D01*
X102559D01*
X102100Y180400D01*
X101990Y180136D01*
X95751D01*
X95729Y180169D01*
X95996Y180669D01*
X97441D01*
X97900Y180860D01*
X98010Y181124D01*
X110000D01*
X110527Y181228D01*
X110973Y181527D01*
X112973Y183527D01*
X113272Y183973D01*
X113376Y184500D01*
X113376Y184500D01*
Y196124D01*
X117623D01*
Y193661D01*
X117032D01*
X116572Y193471D01*
X116382Y193012D01*
Y188681D01*
X116572Y188222D01*
X117032Y188032D01*
X120968D01*
X121428Y188222D01*
X121618Y188681D01*
Y193012D01*
X121428Y193471D01*
X120968Y193661D01*
X120376D01*
Y196124D01*
X124624D01*
Y193661D01*
X124031D01*
X123572Y193471D01*
X123382Y193012D01*
Y188681D01*
X123572Y188222D01*
X124031Y188032D01*
X127969D01*
X128428Y188222D01*
X128618Y188681D01*
Y193012D01*
X128428Y193471D01*
X127969Y193661D01*
X127376D01*
Y196124D01*
X163000D01*
X163000Y196124D01*
X163000Y196124D01*
X211500D01*
X212027Y196228D01*
X212473Y196527D01*
X213895Y197948D01*
X213895Y197948D01*
X214193Y198395D01*
X214298Y198921D01*
X214298Y198921D01*
Y202049D01*
X214405Y202189D01*
X214667Y202821D01*
X214756Y203500D01*
X214667Y204179D01*
X214405Y204811D01*
X213988Y205354D01*
X213445Y205771D01*
X212813Y206033D01*
X212134Y206122D01*
D02*
G37*
G36*
X168130Y203000D02*
X165670D01*
X165707Y202717D01*
X166009Y201987D01*
X166490Y201360D01*
X167117Y200880D01*
X167847Y200577D01*
X168130Y200540D01*
Y203000D01*
D02*
G37*
G36*
X171590D02*
X169130D01*
Y200540D01*
X169413Y200577D01*
X170143Y200880D01*
X170770Y201360D01*
X171250Y201987D01*
X171553Y202717D01*
X171590Y203000D01*
D02*
G37*
G36*
X118130D02*
X115670D01*
X115707Y202717D01*
X116009Y201987D01*
X116490Y201360D01*
X117117Y200880D01*
X117847Y200577D01*
X118130Y200540D01*
Y203000D01*
D02*
G37*
G36*
X121590D02*
X119130D01*
Y200540D01*
X119413Y200577D01*
X120143Y200880D01*
X120770Y201360D01*
X121250Y201987D01*
X121553Y202717D01*
X121590Y203000D01*
D02*
G37*
G36*
X221590D02*
X219130D01*
Y200540D01*
X219413Y200577D01*
X220143Y200880D01*
X220770Y201360D01*
X221250Y201987D01*
X221553Y202717D01*
X221590Y203000D01*
D02*
G37*
G36*
X125500Y187338D02*
X124031D01*
X123641Y187261D01*
X123310Y187040D01*
X123090Y186709D01*
X123012Y186319D01*
Y184654D01*
X125500D01*
Y187338D01*
D02*
G37*
G36*
X118500D02*
X117032D01*
X116641Y187261D01*
X116311Y187040D01*
X116089Y186709D01*
X116012Y186319D01*
Y184654D01*
X118500D01*
Y187338D01*
D02*
G37*
G36*
X55539Y206122D02*
X54861Y206033D01*
X54228Y205771D01*
X53685Y205354D01*
X53268Y204811D01*
X53006Y204179D01*
X52917Y203500D01*
X53006Y202821D01*
X53268Y202189D01*
X53685Y201646D01*
X54228Y201229D01*
X54861Y200967D01*
X55539Y200878D01*
X56218Y200967D01*
X56851Y201229D01*
X57394Y201646D01*
X57810Y202189D01*
X58073Y202821D01*
X58162Y203500D01*
X58073Y204179D01*
X57810Y204811D01*
X57394Y205354D01*
X56851Y205771D01*
X56218Y206033D01*
X55539Y206122D01*
D02*
G37*
G36*
X120968Y187338D02*
X119500D01*
Y184654D01*
X121988D01*
Y186319D01*
X121911Y186709D01*
X121689Y187040D01*
X121359Y187261D01*
X120968Y187338D01*
D02*
G37*
G36*
X17000Y215640D02*
X14944Y215479D01*
X12939Y214997D01*
X11034Y214208D01*
X9276Y213131D01*
X7708Y211792D01*
X6369Y210224D01*
X5292Y208466D01*
X4503Y206561D01*
X4021Y204556D01*
X3859Y202500D01*
X4021Y200444D01*
X4503Y198439D01*
X5292Y196534D01*
X6369Y194776D01*
X7708Y193208D01*
X9276Y191869D01*
X11034Y190792D01*
X12939Y190003D01*
X14944Y189521D01*
X17000Y189359D01*
X19056Y189521D01*
X21061Y190003D01*
X22966Y190792D01*
X24724Y191869D01*
X26292Y193208D01*
X27631Y194776D01*
X28708Y196534D01*
X29497Y198439D01*
X29979Y200444D01*
X30141Y202500D01*
X29979Y204556D01*
X29497Y206561D01*
X28708Y208466D01*
X27631Y210224D01*
X26292Y211792D01*
X24724Y213131D01*
X22966Y214208D01*
X21061Y214997D01*
X19056Y215479D01*
X17000Y215640D01*
D02*
G37*
G36*
X127969Y187338D02*
X126500D01*
Y184654D01*
X128988D01*
Y186319D01*
X128911Y186709D01*
X128690Y187040D01*
X128359Y187261D01*
X127969Y187338D01*
D02*
G37*
G36*
X218130Y203000D02*
X215670D01*
X215707Y202717D01*
X216009Y201987D01*
X216490Y201360D01*
X217117Y200880D01*
X217847Y200577D01*
X218130Y200540D01*
Y203000D01*
D02*
G37*
G36*
X246953Y169102D02*
X241047D01*
X240588Y168912D01*
X240398Y168453D01*
Y166520D01*
X239000D01*
X238610Y166442D01*
X238279Y166221D01*
X230259Y158201D01*
X230038Y157871D01*
X229961Y157480D01*
Y145603D01*
X224414Y140056D01*
X221799D01*
Y140808D01*
X221609Y141267D01*
X221150Y141457D01*
X213670D01*
X213210Y141267D01*
X213020Y140808D01*
Y137264D01*
X213209Y136808D01*
X213210Y136805D01*
Y136267D01*
X213209Y136264D01*
X213020Y135808D01*
Y132264D01*
X213209Y131808D01*
X213210Y131805D01*
Y131267D01*
X213209Y131264D01*
X213020Y130808D01*
Y127264D01*
X213209Y126808D01*
X213210Y126805D01*
Y126267D01*
X213209Y126264D01*
X213020Y125808D01*
Y122264D01*
X213209Y121808D01*
X213210Y121805D01*
Y121267D01*
X213209Y121264D01*
X213020Y120808D01*
Y117264D01*
X213209Y116808D01*
X213210Y116805D01*
Y116267D01*
X213209Y116264D01*
X213020Y115808D01*
Y112264D01*
X213209Y111808D01*
X213210Y111805D01*
Y111267D01*
X213209Y111264D01*
X213020Y110808D01*
Y107264D01*
X213209Y106808D01*
X213210Y106805D01*
Y106267D01*
X213209Y106264D01*
X213020Y105808D01*
Y102264D01*
X213209Y101808D01*
X213210Y101805D01*
Y101267D01*
X213209Y101264D01*
X213020Y100808D01*
Y97264D01*
X213209Y96808D01*
X213210Y96805D01*
Y96267D01*
X213209Y96264D01*
X213020Y95808D01*
Y92264D01*
X213209Y91808D01*
X213210Y91805D01*
Y91267D01*
X213209Y91264D01*
X213020Y90808D01*
Y87264D01*
X213209Y86808D01*
X213210Y86805D01*
Y86267D01*
X213209Y86264D01*
X213020Y85808D01*
Y82264D01*
X213210Y81805D01*
X213670Y81615D01*
X221150D01*
X221609Y81805D01*
X221625Y81845D01*
X222116Y81942D01*
X227980Y76078D01*
Y68100D01*
X228058Y67710D01*
X228279Y67379D01*
X234879Y60779D01*
X235210Y60558D01*
X235600Y60480D01*
X237578D01*
X240859Y57200D01*
X240539Y56427D01*
X240417Y55500D01*
X240539Y54573D01*
X240897Y53708D01*
X241466Y52966D01*
X242208Y52397D01*
X243073Y52039D01*
X244000Y51917D01*
X244927Y52039D01*
X245792Y52397D01*
X246534Y52966D01*
X247103Y53708D01*
X247461Y54573D01*
X247583Y55500D01*
X247461Y56427D01*
X247103Y57292D01*
X246534Y58034D01*
X245792Y58603D01*
X244927Y58961D01*
X244000Y59083D01*
X243073Y58961D01*
X242300Y58641D01*
X238721Y62221D01*
X238390Y62442D01*
X238000Y62520D01*
X236022D01*
X230020Y68522D01*
Y76500D01*
X229942Y76890D01*
X229721Y77221D01*
X222185Y84757D01*
X221854Y84978D01*
X221799Y84989D01*
Y85808D01*
X221610Y86264D01*
X221609Y86267D01*
Y86805D01*
X221610Y86808D01*
X221799Y87264D01*
Y87552D01*
X222299Y87759D01*
X227475Y82583D01*
X227359Y82000D01*
X227522Y81181D01*
X227986Y80486D01*
X228681Y80022D01*
X229500Y79859D01*
X230083Y79975D01*
X231980Y78078D01*
Y68500D01*
X232058Y68110D01*
X232279Y67779D01*
X235279Y64779D01*
X235610Y64558D01*
X236000Y64480D01*
X240398D01*
Y62547D01*
X240588Y62088D01*
X241047Y61898D01*
X246953D01*
X247412Y62088D01*
X247602Y62547D01*
Y68453D01*
X247412Y68912D01*
X246953Y69102D01*
X241047D01*
X240588Y68912D01*
X240398Y68453D01*
Y66520D01*
X236422D01*
X234020Y68922D01*
Y78500D01*
X233942Y78890D01*
X233721Y79221D01*
X231525Y81417D01*
X231641Y82000D01*
X231478Y82819D01*
X231014Y83514D01*
X230319Y83978D01*
X229500Y84141D01*
X228917Y84025D01*
X223185Y89757D01*
X222854Y89978D01*
X222464Y90056D01*
X221799D01*
Y90808D01*
X221610Y91264D01*
X221609Y91267D01*
Y91805D01*
X221610Y91808D01*
X221799Y92264D01*
Y93016D01*
X222642D01*
X232980Y82678D01*
Y81500D01*
X233058Y81110D01*
X233279Y80779D01*
X239279Y74779D01*
X239610Y74558D01*
X240000Y74480D01*
X240398D01*
Y72547D01*
X240588Y72088D01*
X241047Y71898D01*
X246953D01*
X247412Y72088D01*
X247602Y72547D01*
Y78453D01*
X247412Y78912D01*
X246953Y79102D01*
X241047D01*
X240588Y78912D01*
X240398Y78453D01*
Y77197D01*
X239936Y77006D01*
X235020Y81922D01*
Y83100D01*
X234942Y83490D01*
X234721Y83821D01*
X223785Y94757D01*
X223454Y94978D01*
X223064Y95056D01*
X221799D01*
Y95808D01*
X221610Y96264D01*
X221609Y96267D01*
Y96805D01*
X221610Y96808D01*
X221799Y97264D01*
Y98016D01*
X223042D01*
X224975Y96083D01*
X224859Y95500D01*
X225022Y94681D01*
X225486Y93986D01*
X226181Y93522D01*
X227000Y93359D01*
X227583Y93475D01*
X236279Y84779D01*
X236610Y84558D01*
X237000Y84480D01*
X240398D01*
Y82547D01*
X240588Y82088D01*
X241047Y81898D01*
X246953D01*
X247412Y82088D01*
X247602Y82547D01*
Y88453D01*
X247412Y88912D01*
X246953Y89102D01*
X241047D01*
X240588Y88912D01*
X240398Y88453D01*
Y86520D01*
X237422D01*
X229025Y94917D01*
X229141Y95500D01*
X228978Y96319D01*
X228514Y97014D01*
X227819Y97478D01*
X227000Y97641D01*
X226417Y97525D01*
X224185Y99757D01*
X223854Y99978D01*
X223464Y100056D01*
X221799D01*
Y100808D01*
X221610Y101264D01*
X221609Y101267D01*
Y101805D01*
X221610Y101808D01*
X221799Y102264D01*
Y103016D01*
X228042D01*
X236279Y94779D01*
X236610Y94558D01*
X237000Y94480D01*
X240398D01*
Y92547D01*
X240588Y92088D01*
X241047Y91898D01*
X246953D01*
X247412Y92088D01*
X247602Y92547D01*
Y98453D01*
X247412Y98912D01*
X246953Y99102D01*
X241047D01*
X240588Y98912D01*
X240398Y98453D01*
Y96520D01*
X237422D01*
X229185Y104757D01*
X228854Y104978D01*
X228464Y105056D01*
X221799D01*
Y105808D01*
X221610Y106264D01*
X221609Y106267D01*
Y106805D01*
X221610Y106808D01*
X221799Y107264D01*
Y108016D01*
X234042D01*
X237279Y104779D01*
X237610Y104558D01*
X238000Y104480D01*
X240398D01*
Y102547D01*
X240588Y102088D01*
X241047Y101898D01*
X246953D01*
X247412Y102088D01*
X247602Y102547D01*
Y108453D01*
X247412Y108912D01*
X246953Y109102D01*
X241047D01*
X240588Y108912D01*
X240398Y108453D01*
Y106520D01*
X238422D01*
X235185Y109757D01*
X234854Y109978D01*
X234464Y110056D01*
X221799D01*
Y110808D01*
X221610Y111264D01*
X221609Y111267D01*
Y111805D01*
X221610Y111808D01*
X221799Y112264D01*
Y113016D01*
X240398D01*
Y112547D01*
X240588Y112088D01*
X241047Y111898D01*
X246953D01*
X247412Y112088D01*
X247602Y112547D01*
Y118453D01*
X247412Y118912D01*
X246953Y119102D01*
X241047D01*
X240588Y118912D01*
X240398Y118453D01*
Y115056D01*
X221799D01*
Y115808D01*
X221610Y116264D01*
X221609Y116267D01*
Y116805D01*
X221610Y116808D01*
X221799Y117264D01*
Y118016D01*
X237536D01*
X237926Y118094D01*
X238257Y118315D01*
X241840Y121898D01*
X246953D01*
X247412Y122088D01*
X247602Y122547D01*
Y128453D01*
X247412Y128912D01*
X246953Y129102D01*
X241047D01*
X240588Y128912D01*
X240398Y128453D01*
Y123340D01*
X237114Y120056D01*
X221799D01*
Y120808D01*
X221610Y121264D01*
X221609Y121267D01*
Y121805D01*
X221610Y121808D01*
X221799Y122264D01*
Y123016D01*
X229536D01*
X229926Y123094D01*
X230257Y123315D01*
X239936Y132994D01*
X240398Y132803D01*
Y132547D01*
X240588Y132088D01*
X241047Y131898D01*
X246953D01*
X247412Y132088D01*
X247602Y132547D01*
Y138453D01*
X247412Y138912D01*
X246953Y139102D01*
X241047D01*
X240588Y138912D01*
X240398Y138453D01*
Y136300D01*
X240279Y136221D01*
X229114Y125056D01*
X221799D01*
Y125808D01*
X221610Y126264D01*
X221609Y126267D01*
Y126805D01*
X221610Y126808D01*
X221799Y127264D01*
Y128016D01*
X228536D01*
X228926Y128094D01*
X229257Y128315D01*
X237721Y136779D01*
X237942Y137110D01*
X238020Y137500D01*
Y143078D01*
X239422Y144480D01*
X240398D01*
Y142547D01*
X240588Y142088D01*
X241047Y141898D01*
X246953D01*
X247412Y142088D01*
X247602Y142547D01*
Y148453D01*
X247412Y148912D01*
X246953Y149102D01*
X241047D01*
X240588Y148912D01*
X240398Y148453D01*
Y146520D01*
X239000D01*
X238610Y146442D01*
X238279Y146221D01*
X236279Y144221D01*
X236058Y143890D01*
X235980Y143500D01*
Y137922D01*
X228114Y130056D01*
X221799D01*
Y130808D01*
X221610Y131264D01*
X221609Y131267D01*
Y131805D01*
X221610Y131808D01*
X221799Y132264D01*
Y133016D01*
X227536D01*
X227926Y133094D01*
X228257Y133315D01*
X234721Y139779D01*
X234942Y140110D01*
X235020Y140500D01*
Y148078D01*
X239936Y152994D01*
X240398Y152803D01*
Y152547D01*
X240588Y152088D01*
X241047Y151898D01*
X246953D01*
X247412Y152088D01*
X247602Y152547D01*
Y158453D01*
X247412Y158912D01*
X246953Y159102D01*
X241047D01*
X240588Y158912D01*
X240398Y158453D01*
Y156300D01*
X240279Y156221D01*
X233279Y149221D01*
X233058Y148890D01*
X232980Y148500D01*
Y140922D01*
X227114Y135056D01*
X221799D01*
Y135808D01*
X221610Y136264D01*
X221609Y136267D01*
Y136805D01*
X221610Y136808D01*
X221799Y137264D01*
Y138016D01*
X224836D01*
X225226Y138094D01*
X225557Y138315D01*
X231701Y144459D01*
X231922Y144790D01*
X232000Y145180D01*
Y157058D01*
X239422Y164480D01*
X240398D01*
Y162547D01*
X240588Y162088D01*
X241047Y161898D01*
X246953D01*
X247412Y162088D01*
X247602Y162547D01*
Y168453D01*
X247412Y168912D01*
X246953Y169102D01*
D02*
G37*
G36*
X187811Y130331D02*
X176500D01*
Y118000D01*
X188831D01*
Y129311D01*
X188753Y129701D01*
X188532Y130032D01*
X188201Y130253D01*
X187811Y130331D01*
D02*
G37*
G36*
X99500Y121819D02*
X97736D01*
X97346Y121741D01*
X97015Y121520D01*
X96794Y121189D01*
X96717Y120799D01*
Y118898D01*
X99500D01*
Y121819D01*
D02*
G37*
G36*
X175500Y130331D02*
X164189D01*
X163799Y130253D01*
X163468Y130032D01*
X163247Y129701D01*
X163169Y129311D01*
Y118000D01*
X175500D01*
Y130331D01*
D02*
G37*
G36*
X103283Y117898D02*
X100500D01*
Y114977D01*
X102264D01*
X102654Y115054D01*
X102985Y115275D01*
X103206Y115606D01*
X103283Y115996D01*
Y117898D01*
D02*
G37*
G36*
X142154Y158000D02*
X139469D01*
Y156532D01*
X139546Y156141D01*
X139767Y155810D01*
X140098Y155589D01*
X140488Y155512D01*
X142154D01*
Y158000D01*
D02*
G37*
G36*
X102264Y121819D02*
X100500D01*
Y118898D01*
X103283D01*
Y120799D01*
X103206Y121189D01*
X102985Y121520D01*
X102654Y121741D01*
X102264Y121819D01*
D02*
G37*
G36*
X145158Y147414D02*
X142867D01*
Y144961D01*
X142944Y144571D01*
X143165Y144240D01*
X143496Y144019D01*
X143886Y143942D01*
X145158D01*
Y147414D01*
D02*
G37*
G36*
X106925Y138260D02*
X104732D01*
Y136559D01*
X105905D01*
X106296Y136637D01*
X106626Y136858D01*
X106848Y137189D01*
X106925Y137579D01*
Y138260D01*
D02*
G37*
G36*
X103732D02*
X101540D01*
Y137579D01*
X101617Y137189D01*
X101838Y136858D01*
X102169Y136637D01*
X102559Y136559D01*
X103732D01*
Y138260D01*
D02*
G37*
G36*
X262000Y156083D02*
X261073Y155961D01*
X260208Y155603D01*
X259466Y155034D01*
X258897Y154292D01*
X258539Y153427D01*
X258417Y152500D01*
X258539Y151573D01*
X258897Y150708D01*
X259466Y149966D01*
X260208Y149397D01*
X261073Y149039D01*
X262000Y148917D01*
X262927Y149039D01*
X263792Y149397D01*
X264534Y149966D01*
X265103Y150708D01*
X265461Y151573D01*
X265583Y152500D01*
X265461Y153427D01*
X265103Y154292D01*
X264534Y155034D01*
X263792Y155603D01*
X262927Y155961D01*
X262000Y156083D01*
D02*
G37*
G36*
X145158Y151886D02*
X143886D01*
X143496Y151809D01*
X143165Y151588D01*
X142944Y151257D01*
X142867Y150867D01*
Y148414D01*
X145158D01*
Y151886D01*
D02*
G37*
G36*
X145838Y158000D02*
X143154D01*
Y155512D01*
X144819D01*
X145209Y155589D01*
X145540Y155810D01*
X145761Y156141D01*
X145838Y156532D01*
Y158000D01*
D02*
G37*
G36*
X105539Y206122D02*
X104861Y206033D01*
X104228Y205771D01*
X103685Y205354D01*
X103268Y204811D01*
X103147Y204520D01*
X77616D01*
X77495Y204811D01*
X77079Y205354D01*
X76536Y205771D01*
X75903Y206033D01*
X75224Y206122D01*
X74546Y206033D01*
X73913Y205771D01*
X73370Y205354D01*
X72953Y204811D01*
X72691Y204179D01*
X72602Y203500D01*
X72691Y202821D01*
X72953Y202189D01*
X73370Y201646D01*
X73913Y201229D01*
X74546Y200967D01*
X75224Y200878D01*
X75903Y200967D01*
X76536Y201229D01*
X77079Y201646D01*
X77495Y202189D01*
X77616Y202480D01*
X103147D01*
X103268Y202189D01*
X103685Y201646D01*
X104228Y201229D01*
X104861Y200967D01*
X105539Y200878D01*
X106218Y200967D01*
X106851Y201229D01*
X107394Y201646D01*
X107810Y202189D01*
X108072Y202821D01*
X108162Y203500D01*
X108072Y204179D01*
X107810Y204811D01*
X107394Y205354D01*
X106851Y205771D01*
X106218Y206033D01*
X105539Y206122D01*
D02*
G37*
G36*
X188831Y117000D02*
X176500D01*
Y104669D01*
X187811D01*
X188201Y104747D01*
X188532Y104968D01*
X188753Y105299D01*
X188831Y105689D01*
Y117000D01*
D02*
G37*
G36*
X155539Y206122D02*
X154861Y206033D01*
X154228Y205771D01*
X153685Y205354D01*
X153268Y204811D01*
X153147Y204520D01*
X127616D01*
X127496Y204811D01*
X127079Y205354D01*
X126536Y205771D01*
X125903Y206033D01*
X125224Y206122D01*
X124546Y206033D01*
X123913Y205771D01*
X123370Y205354D01*
X122953Y204811D01*
X122691Y204179D01*
X122602Y203500D01*
X122691Y202821D01*
X122953Y202189D01*
X123370Y201646D01*
X123913Y201229D01*
X124546Y200967D01*
X125224Y200878D01*
X125903Y200967D01*
X126536Y201229D01*
X127079Y201646D01*
X127496Y202189D01*
X127616Y202480D01*
X153147D01*
X153268Y202189D01*
X153685Y201646D01*
X154228Y201229D01*
X154861Y200967D01*
X155539Y200878D01*
X156218Y200967D01*
X156851Y201229D01*
X157394Y201646D01*
X157810Y202189D01*
X158072Y202821D01*
X158162Y203500D01*
X158072Y204179D01*
X157810Y204811D01*
X157394Y205354D01*
X156851Y205771D01*
X156218Y206033D01*
X155539Y206122D01*
D02*
G37*
G36*
X264953Y146102D02*
X259047D01*
X258588Y145912D01*
X258398Y145453D01*
Y139547D01*
X258588Y139088D01*
X259047Y138898D01*
X260369D01*
Y101102D01*
X259047D01*
X258588Y100912D01*
X258398Y100453D01*
Y94547D01*
X258588Y94088D01*
X259047Y93898D01*
X264953D01*
X265412Y94088D01*
X265602Y94547D01*
Y100453D01*
X265412Y100912D01*
X264953Y101102D01*
X263631D01*
Y138898D01*
X264953D01*
X265412Y139088D01*
X265602Y139547D01*
Y145453D01*
X265412Y145912D01*
X264953Y146102D01*
D02*
G37*
G36*
X175500Y117000D02*
X163169D01*
Y105689D01*
X163247Y105299D01*
X163468Y104968D01*
X163799Y104747D01*
X164189Y104669D01*
X175500D01*
Y117000D01*
D02*
G37*
G36*
X219130Y206460D02*
Y204000D01*
X221590D01*
X221553Y204283D01*
X221250Y205013D01*
X220770Y205640D01*
X220143Y206120D01*
X219413Y206423D01*
X219130Y206460D01*
D02*
G37*
G36*
X142154Y161488D02*
X140488D01*
X140098Y161410D01*
X139767Y161189D01*
X139546Y160859D01*
X139469Y160468D01*
Y159000D01*
X142154D01*
Y161488D01*
D02*
G37*
G36*
X262000Y166083D02*
X261073Y165961D01*
X260208Y165603D01*
X259466Y165034D01*
X258897Y164292D01*
X258539Y163427D01*
X258417Y162500D01*
X258539Y161573D01*
X258897Y160708D01*
X259466Y159966D01*
X260208Y159397D01*
X261073Y159039D01*
X262000Y158917D01*
X262927Y159039D01*
X263792Y159397D01*
X264534Y159966D01*
X265103Y160708D01*
X265461Y161573D01*
X265583Y162500D01*
X265461Y163427D01*
X265103Y164292D01*
X264534Y165034D01*
X263792Y165603D01*
X262927Y165961D01*
X262000Y166083D01*
D02*
G37*
G36*
X205539Y206122D02*
X204861Y206033D01*
X204228Y205771D01*
X203685Y205354D01*
X203268Y204811D01*
X203148Y204520D01*
X177616D01*
X177496Y204811D01*
X177079Y205354D01*
X176536Y205771D01*
X175903Y206033D01*
X175224Y206122D01*
X174546Y206033D01*
X173913Y205771D01*
X173370Y205354D01*
X172953Y204811D01*
X172691Y204179D01*
X172602Y203500D01*
X172691Y202821D01*
X172953Y202189D01*
X173370Y201646D01*
X173913Y201229D01*
X174546Y200967D01*
X175224Y200878D01*
X175903Y200967D01*
X176536Y201229D01*
X177079Y201646D01*
X177496Y202189D01*
X177616Y202480D01*
X203148D01*
X203268Y202189D01*
X203685Y201646D01*
X204228Y201229D01*
X204861Y200967D01*
X205539Y200878D01*
X206218Y200967D01*
X206851Y201229D01*
X207394Y201646D01*
X207810Y202189D01*
X208072Y202821D01*
X208162Y203500D01*
X208072Y204179D01*
X207810Y204811D01*
X207394Y205354D01*
X206851Y205771D01*
X206218Y206033D01*
X205539Y206122D01*
D02*
G37*
G36*
X99500Y117898D02*
X96717D01*
Y115996D01*
X96794Y115606D01*
X97015Y115275D01*
X97346Y115054D01*
X97736Y114977D01*
X99500D01*
Y117898D01*
D02*
G37*
G36*
X144819Y161488D02*
X143154D01*
Y159000D01*
X145838D01*
Y160468D01*
X145761Y160859D01*
X145540Y161189D01*
X145209Y161410D01*
X144819Y161488D01*
D02*
G37*
%LPD*%
G36*
X73400Y-53400D02*
Y-69700D01*
X48900D01*
X46400Y-67200D01*
Y-57488D01*
X46847D01*
Y-54500D01*
Y-51512D01*
X46400D01*
Y-50600D01*
X47000Y-50000D01*
X70000D01*
X73400Y-53400D01*
D02*
G37*
%LPC*%
G36*
X49512Y-51512D02*
X47846D01*
Y-54000D01*
X50531D01*
Y-52531D01*
X50454Y-52141D01*
X50233Y-51810D01*
X49902Y-51590D01*
X49512Y-51512D01*
D02*
G37*
G36*
X50531Y-55000D02*
X47846D01*
Y-57488D01*
X49512D01*
X49902Y-57411D01*
X50233Y-57189D01*
X50454Y-56859D01*
X50531Y-56468D01*
Y-55000D01*
D02*
G37*
G36*
X56492Y-65945D02*
X52528D01*
Y-67610D01*
X52605Y-68000D01*
X52826Y-68331D01*
X53157Y-68552D01*
X53547Y-68630D01*
X56492D01*
Y-65945D01*
D02*
G37*
G36*
X60437Y-62260D02*
X57492D01*
Y-64945D01*
X61457D01*
Y-63279D01*
X61379Y-62889D01*
X61158Y-62559D01*
X60827Y-62338D01*
X60437Y-62260D01*
D02*
G37*
G36*
X56492D02*
X53547D01*
X53157Y-62338D01*
X52826Y-62559D01*
X52605Y-62889D01*
X52528Y-63279D01*
Y-64945D01*
X56492D01*
Y-62260D01*
D02*
G37*
G36*
X61457Y-65945D02*
X57492D01*
Y-68630D01*
X60437D01*
X60827Y-68552D01*
X61158Y-68331D01*
X61379Y-68000D01*
X61457Y-67610D01*
Y-65945D01*
D02*
G37*
%LPD*%
G36*
X258897Y79292D02*
X258539Y78427D01*
X258417Y77500D01*
X258539Y76573D01*
X258858Y75800D01*
X257279Y74221D01*
X257058Y73890D01*
X256980Y73500D01*
Y43922D01*
X246078Y33020D01*
X149922D01*
X135020Y47922D01*
Y51898D01*
X136953D01*
X137412Y52088D01*
X137602Y52547D01*
Y58453D01*
X137412Y58912D01*
X136953Y59102D01*
X135697D01*
X135506Y59564D01*
X138722Y62780D01*
X154800D01*
X155190Y62858D01*
X155521Y63079D01*
X161379Y68937D01*
X161600Y69268D01*
X161677Y69658D01*
Y71442D01*
X162429D01*
X162889Y71632D01*
X163427Y71632D01*
X163886Y71442D01*
X164638D01*
Y70580D01*
X155878Y61820D01*
X145800D01*
X145410Y61742D01*
X145079Y61521D01*
X143279Y59721D01*
X143058Y59390D01*
X143001Y59102D01*
X141047D01*
X140588Y58912D01*
X140398Y58453D01*
Y52547D01*
X140588Y52088D01*
X141047Y51898D01*
X142980D01*
Y47500D01*
X143058Y47110D01*
X143279Y46779D01*
X154279Y35779D01*
X154610Y35558D01*
X155000Y35480D01*
X239000D01*
X239390Y35558D01*
X239721Y35779D01*
X254501Y50559D01*
X254722Y50890D01*
X254799Y51280D01*
Y75858D01*
X258486Y79544D01*
X258897Y79292D01*
D02*
G37*
G36*
X74207Y138707D02*
X74207Y138707D01*
X74571Y138464D01*
X75000Y138378D01*
X75000Y138378D01*
X75839D01*
Y137531D01*
X75980Y137190D01*
X75758Y136690D01*
X73396D01*
X72061Y138025D01*
X71697Y138268D01*
X71268Y138354D01*
X71268Y138354D01*
X56457D01*
Y144516D01*
Y144606D01*
X53075D01*
Y145606D01*
X56457D01*
Y145697D01*
X56667Y145953D01*
X66961D01*
X74207Y138707D01*
D02*
G37*
G36*
X52528Y-81700D02*
Y-83055D01*
X56992D01*
Y-83555D01*
X57492D01*
Y-86740D01*
X58400D01*
X58400Y-94100D01*
X53100Y-99400D01*
X46554Y-99400D01*
X46200Y-99046D01*
X46200Y-97488D01*
X46847D01*
Y-94500D01*
Y-91512D01*
X46200D01*
X46200Y-84900D01*
X49400Y-81700D01*
X52528D01*
D02*
G37*
G36*
X47169Y72272D02*
X44020D01*
Y69122D01*
X37721D01*
Y78571D01*
X47169D01*
Y72272D01*
D02*
G37*
G36*
X99833Y163721D02*
Y146961D01*
X99333Y146754D01*
X94862Y151225D01*
X94498Y151468D01*
X94068Y151553D01*
X94068Y151553D01*
X88531D01*
Y153000D01*
X85346D01*
Y154000D01*
X88531D01*
Y155468D01*
X88463Y155810D01*
X88485Y155933D01*
X88736Y156337D01*
X89030Y156395D01*
X89394Y156638D01*
X93619Y160863D01*
X93635Y160860D01*
X94095Y160670D01*
X97441D01*
X97900Y160860D01*
X98090Y161319D01*
Y163681D01*
X97900Y164140D01*
X97441Y164330D01*
X94095D01*
X93635Y164140D01*
X93445Y163681D01*
Y163577D01*
X93240Y163536D01*
X92876Y163293D01*
X88993Y159410D01*
X88531Y159601D01*
Y160000D01*
X85346D01*
X82161D01*
Y158553D01*
X81468D01*
Y162469D01*
X81278Y162928D01*
X80819Y163118D01*
X76488D01*
X76029Y162928D01*
X75839Y162469D01*
Y161621D01*
X72000D01*
X71571Y161536D01*
X71207Y161293D01*
X71207Y161293D01*
X65413Y155499D01*
X65403Y155503D01*
X65001Y155794D01*
X65141Y156500D01*
X64978Y157319D01*
X64514Y158014D01*
X64173Y158242D01*
X64124Y158740D01*
X70721Y165337D01*
X70865Y165552D01*
X71514Y165986D01*
X71844Y166480D01*
X75839D01*
Y165532D01*
X76029Y165072D01*
X76488Y164882D01*
X80819D01*
X81278Y165072D01*
X81468Y165532D01*
Y169468D01*
X81810Y169711D01*
X81849Y169684D01*
X82161Y169292D01*
Y168000D01*
X85347D01*
X88531D01*
Y169468D01*
X88501Y169623D01*
X88832Y170124D01*
X93430D01*
X99833Y163721D01*
D02*
G37*
G36*
X100207Y168707D02*
X100207Y168707D01*
X100571Y168464D01*
X101000Y168378D01*
X101996D01*
X102100Y167880D01*
X101910Y167421D01*
Y166190D01*
X101448Y165999D01*
X94973Y172473D01*
X94527Y172772D01*
X94000Y172876D01*
X88428D01*
X88097Y173377D01*
X88161Y173531D01*
Y177469D01*
X87971Y177928D01*
X87512Y178118D01*
X86468D01*
Y178154D01*
X86383Y178583D01*
X86140Y178947D01*
X86140Y178947D01*
X85704Y179382D01*
X85710Y179473D01*
X85866Y179882D01*
X87512D01*
X87971Y180072D01*
X88067Y180303D01*
X88560Y180354D01*
X100207Y168707D01*
D02*
G37*
G36*
X44020Y168728D02*
X47169D01*
Y162429D01*
X37721D01*
Y171878D01*
X44020D01*
Y168728D01*
D02*
G37*
G36*
X221279Y-11221D02*
X221610Y-11442D01*
X222000Y-11520D01*
X254947D01*
Y-14903D01*
X255043Y-15135D01*
X255112Y-15500D01*
X255043Y-15865D01*
X254947Y-16097D01*
Y-19480D01*
X227422D01*
X196025Y11917D01*
X196141Y12500D01*
X195978Y13319D01*
X195871Y13480D01*
X196259Y13799D01*
X221279Y-11221D01*
D02*
G37*
G36*
X69911Y169624D02*
X69181Y169478D01*
X68486Y169014D01*
X68022Y168319D01*
X67859Y167500D01*
X68022Y166681D01*
X68486Y165986D01*
X62520Y160020D01*
X61964D01*
X61574Y159942D01*
X61520Y159905D01*
X57505D01*
X57314Y160367D01*
X67070Y170124D01*
X69862D01*
X69911Y169624D01*
D02*
G37*
G36*
X103213Y188845D02*
Y188071D01*
X102559D01*
X102100Y187881D01*
X101910Y187421D01*
Y185059D01*
X102100Y184600D01*
X102559Y184410D01*
X105905D01*
X106365Y184600D01*
X106555Y185059D01*
Y185221D01*
X107329D01*
X107486Y184986D01*
X108181Y184522D01*
X108912Y184376D01*
X108862Y183876D01*
X98010D01*
X97900Y184140D01*
X97441Y184330D01*
X94095D01*
X93635Y184140D01*
X93445Y183681D01*
Y182655D01*
X92983Y182464D01*
X92376Y183070D01*
Y187500D01*
X92272Y188027D01*
X91973Y188473D01*
X91973Y188473D01*
X90973Y189473D01*
X90527Y189772D01*
X90000Y189876D01*
X88161D01*
Y190469D01*
X87971Y190928D01*
X87844Y190980D01*
X87943Y191480D01*
X100578D01*
X103213Y188845D01*
D02*
G37*
G36*
X97849Y145064D02*
X97823Y144615D01*
X97441Y144331D01*
X94095D01*
X93635Y144140D01*
X93449Y143690D01*
X88754D01*
X88479Y144103D01*
X88463Y144190D01*
X88531Y144532D01*
Y146000D01*
X85346D01*
Y147000D01*
X88531D01*
Y148468D01*
X88463Y148810D01*
X88479Y148897D01*
X88754Y149310D01*
X93604D01*
X97849Y145064D01*
D02*
G37*
G36*
X75207Y145707D02*
X75207Y145707D01*
X75571Y145464D01*
X75839Y145411D01*
Y144532D01*
X76029Y144072D01*
X76488Y143882D01*
X78154D01*
X78306Y143382D01*
X78275Y143362D01*
X78275Y143361D01*
X77860Y142947D01*
X77617Y142583D01*
X77532Y142154D01*
X77054Y142118D01*
X76488D01*
X76029Y141928D01*
X75839Y141469D01*
Y140925D01*
X75339Y140747D01*
X68664Y147422D01*
X68871Y147922D01*
X72992D01*
X75207Y145707D01*
D02*
G37*
G36*
X75839Y158531D02*
X76029Y158072D01*
X76488Y157882D01*
X78143D01*
X78334Y157420D01*
X77860Y156947D01*
X77617Y156583D01*
X77532Y156154D01*
X77054Y156118D01*
X76488D01*
X76029Y155928D01*
X75839Y155468D01*
Y154592D01*
X75559Y154536D01*
X75195Y154293D01*
X75195Y154293D01*
X73035Y152133D01*
X65927D01*
X65719Y152633D01*
X72465Y159378D01*
X75839D01*
Y158531D01*
D02*
G37*
G36*
X71440Y177130D02*
X71469Y176989D01*
X71022Y176319D01*
X70859Y175500D01*
X71022Y174681D01*
X71486Y173986D01*
X72181Y173522D01*
X72912Y173376D01*
X72862Y172876D01*
X66500D01*
X66500Y172877D01*
X65973Y172772D01*
X65527Y172473D01*
X55256Y162203D01*
X51153D01*
X50962Y162665D01*
X65786Y177489D01*
X71297D01*
X71440Y177130D01*
D02*
G37*
G36*
X116373Y169180D02*
X112247Y165053D01*
X111893Y164524D01*
X111769Y163900D01*
Y149676D01*
X108346Y146254D01*
X107993Y145724D01*
X107869Y145100D01*
Y143776D01*
X102670D01*
X102585Y143861D01*
Y144410D01*
X105905D01*
X106365Y144600D01*
X106555Y145059D01*
Y147421D01*
X106365Y147880D01*
X105905Y148071D01*
X105354D01*
Y149803D01*
X106782Y151231D01*
X107351Y151189D01*
X107486Y150986D01*
X108181Y150522D01*
X109000Y150359D01*
X109819Y150522D01*
X110514Y150986D01*
X110978Y151681D01*
X111141Y152500D01*
X110978Y153319D01*
X110514Y154014D01*
X110122Y154276D01*
Y165500D01*
X110036Y165929D01*
X109793Y166293D01*
X109793Y166293D01*
X109053Y167033D01*
X108689Y167276D01*
X108260Y167362D01*
X108260Y167362D01*
X106555D01*
Y167421D01*
X106365Y167880D01*
X105905Y168071D01*
X105778D01*
X105354Y168268D01*
X105269Y168697D01*
X105025Y169061D01*
X105025Y169061D01*
X103793Y170293D01*
X103429Y170536D01*
X103000Y170622D01*
X103000Y170622D01*
X101465D01*
X95203Y176883D01*
X95410Y177383D01*
X101990D01*
X102100Y177120D01*
X102559Y176929D01*
X105905D01*
X106365Y177120D01*
X106474Y177383D01*
X108170D01*
X116373Y169180D01*
D02*
G37*
G36*
X107878Y165035D02*
Y154276D01*
X107486Y154014D01*
X107224Y153622D01*
X106465D01*
X106465Y153622D01*
X106035Y153536D01*
X105672Y153293D01*
X103439Y151061D01*
X103196Y150697D01*
X103111Y150268D01*
X103111Y150268D01*
Y148071D01*
X102585D01*
Y156559D01*
X103732D01*
Y158760D01*
Y160960D01*
X102585D01*
Y164291D01*
X102585Y164291D01*
X102683Y164410D01*
X105905D01*
X106365Y164600D01*
X106555Y165059D01*
Y165119D01*
X107795D01*
X107878Y165035D01*
D02*
G37*
%LPC*%
G36*
X56492Y-84055D02*
X52528D01*
Y-85720D01*
X52605Y-86111D01*
X52826Y-86441D01*
X53157Y-86662D01*
X53547Y-86740D01*
X56492D01*
Y-84055D01*
D02*
G37*
G36*
X49512Y-91512D02*
X47846D01*
Y-94000D01*
X50531D01*
Y-92532D01*
X50454Y-92141D01*
X50233Y-91811D01*
X49902Y-91589D01*
X49512Y-91512D01*
D02*
G37*
G36*
X50531Y-95000D02*
X47846D01*
Y-97488D01*
X49512D01*
X49902Y-97411D01*
X50233Y-97189D01*
X50454Y-96859D01*
X50531Y-96469D01*
Y-95000D01*
D02*
G37*
G36*
X84847Y167000D02*
X82161D01*
Y165532D01*
X82239Y165141D01*
X82460Y164811D01*
X82791Y164590D01*
X83181Y164512D01*
X84847D01*
Y167000D01*
D02*
G37*
G36*
X87512Y163488D02*
X85846D01*
Y161000D01*
X88531D01*
Y162469D01*
X88454Y162859D01*
X88233Y163189D01*
X87902Y163410D01*
X87512Y163488D01*
D02*
G37*
G36*
X84846D02*
X83181D01*
X82791Y163410D01*
X82460Y163189D01*
X82239Y162859D01*
X82161Y162469D01*
Y161000D01*
X84846D01*
Y163488D01*
D02*
G37*
G36*
X88531Y167000D02*
X85847D01*
Y164512D01*
X87512D01*
X87902Y164590D01*
X88233Y164811D01*
X88454Y165141D01*
X88531Y165532D01*
Y167000D01*
D02*
G37*
G36*
X106925Y158260D02*
X104732D01*
Y156559D01*
X105905D01*
X106296Y156637D01*
X106626Y156858D01*
X106848Y157189D01*
X106925Y157579D01*
Y158260D01*
D02*
G37*
G36*
X105905Y160960D02*
X104732D01*
Y159260D01*
X106925D01*
Y159941D01*
X106848Y160331D01*
X106626Y160662D01*
X106296Y160883D01*
X105905Y160960D01*
D02*
G37*
%LPD*%
D10*
X217154Y-98500D02*
D03*
X223847D02*
D03*
X134653D02*
D03*
X141347D02*
D03*
X181346D02*
D03*
X174653D02*
D03*
X40653Y-94500D02*
D03*
X47346D02*
D03*
X40653Y-54500D02*
D03*
X47346D02*
D03*
X78654Y69500D02*
D03*
X85347D02*
D03*
X149346Y165500D02*
D03*
X142654D02*
D03*
Y158500D02*
D03*
X149346D02*
D03*
X78654Y76500D02*
D03*
X85347D02*
D03*
Y104500D02*
D03*
X78654D02*
D03*
X85347Y118500D02*
D03*
X78654D02*
D03*
X85347Y125500D02*
D03*
X78654D02*
D03*
X85347Y132500D02*
D03*
X78654D02*
D03*
X85347Y175500D02*
D03*
X78654D02*
D03*
X78654Y83500D02*
D03*
X85347D02*
D03*
X78654Y90500D02*
D03*
X85347D02*
D03*
X78654Y97500D02*
D03*
X85347D02*
D03*
Y111500D02*
D03*
X78654D02*
D03*
Y139500D02*
D03*
X85347D02*
D03*
X78654Y146500D02*
D03*
X85347D02*
D03*
X78654Y153500D02*
D03*
X85347D02*
D03*
X78654Y160500D02*
D03*
X85347D02*
D03*
X78654Y188500D02*
D03*
X85347D02*
D03*
X78654Y182500D02*
D03*
X85347D02*
D03*
X85347Y167500D02*
D03*
X78654D02*
D03*
Y62500D02*
D03*
X85347D02*
D03*
X78654Y56500D02*
D03*
X85347D02*
D03*
X96653Y-98500D02*
D03*
X103347D02*
D03*
D13*
X40870Y73700D02*
X48570D01*
X39479D02*
X40870D01*
Y75421D01*
Y66330D02*
Y73700D01*
X60000Y65500D02*
X64000D01*
X103347Y-99500D02*
X104347Y-98500D01*
X149600Y69100D02*
X150658Y70158D01*
X122600Y69100D02*
X149600D01*
X114000Y60500D02*
X122600Y69100D01*
X145800Y60800D02*
X156300D01*
X144000Y59000D02*
X145800Y60800D01*
X144000Y55500D02*
Y59000D01*
X154800Y63800D02*
X160658Y69658D01*
X138300Y63800D02*
X154800D01*
X134000Y59500D02*
X138300Y63800D01*
X156300Y60800D02*
X165658Y70158D01*
X234000Y81500D02*
Y83100D01*
X223064Y94036D02*
X234000Y83100D01*
X217410Y94036D02*
X223064D01*
X235600Y61500D02*
X238000D01*
X229000Y68100D02*
X235600Y61500D01*
X229000Y68100D02*
Y76500D01*
X234000Y55500D02*
Y58800D01*
X227700Y65100D02*
X234000Y58800D01*
X217300Y65100D02*
X227700D01*
X221464Y84036D02*
X229000Y76500D01*
X217410Y84036D02*
X221464D01*
X230980Y145180D02*
Y157480D01*
X224836Y139036D02*
X230980Y145180D01*
X217410Y139036D02*
X224836D01*
X230980Y157480D02*
X239000Y165500D01*
X214900Y62500D02*
X222000D01*
X205658Y71742D02*
X214900Y62500D01*
X205658Y71742D02*
Y75044D01*
X210658Y71742D02*
X217300Y65100D01*
X210658Y71742D02*
Y75044D01*
X158600Y59100D02*
X170658Y71158D01*
X158600Y56100D02*
Y59100D01*
X158000Y55500D02*
X158600Y56100D01*
X104347Y-98500D02*
X115500D01*
X141347Y-99500D02*
X142347Y-98500D01*
X155500D01*
X212402Y-110000D02*
X213402Y-111000D01*
X155500Y-98500D02*
X157598Y-100598D01*
X115500Y-98500D02*
X117598Y-100598D01*
X216500Y-111000D02*
X223847Y-103654D01*
X213402Y-111000D02*
X216500D01*
X249300Y-60500D02*
X260000D01*
X246000Y-63800D02*
X249300Y-60500D01*
X246000Y-78500D02*
Y-63800D01*
X249300Y-60500D02*
Y-45900D01*
X157598Y-111000D02*
Y-100598D01*
X117598Y-111000D02*
Y-100598D01*
X172402Y-111000D02*
Y-104598D01*
X174653Y-102347D01*
Y-98500D01*
X222000Y-10500D02*
X260000D01*
X194000Y17500D02*
X222000Y-10500D01*
X240366Y-84134D02*
X246000Y-78500D01*
X258000Y73500D02*
X262000Y77500D01*
X144000Y47500D02*
X155000Y36500D01*
X239000D01*
X78654Y188500D02*
Y191154D01*
X104232Y186240D02*
Y189268D01*
X114000Y55500D02*
Y60500D01*
X150658Y70158D02*
Y75044D01*
X124000Y55500D02*
Y60500D01*
X134000Y55500D02*
Y59500D01*
X165658Y70158D02*
Y75044D01*
X180658Y66158D02*
Y75044D01*
X174000Y59500D02*
X180658Y66158D01*
X174000Y55500D02*
Y59500D01*
X185658Y64158D02*
Y75044D01*
X184000Y62500D02*
X185658Y64158D01*
X184000Y55500D02*
Y62500D01*
X190658Y65842D02*
Y75044D01*
Y65842D02*
X194000Y62500D01*
Y55500D02*
Y62500D01*
X195658Y68842D02*
Y75044D01*
Y68842D02*
X204000Y60500D01*
Y55500D02*
Y60500D01*
X200658Y69842D02*
Y75044D01*
Y69842D02*
X210000Y60500D01*
X213000D01*
X214000Y59500D01*
Y55500D02*
Y59500D01*
X222000Y62500D02*
X224000Y60500D01*
Y55500D02*
Y60500D01*
X236000Y65500D02*
X244000D01*
X233000Y68500D02*
X236000Y65500D01*
X233000Y68500D02*
Y78500D01*
X217410Y89036D02*
X222464D01*
X217410Y99036D02*
X223464D01*
X237000Y85500D02*
X244000D01*
X217410Y104036D02*
X228464D01*
X237000Y95500D01*
X244000D01*
X217410Y109036D02*
X234464D01*
X238000Y105500D01*
X244000D01*
X217410Y114036D02*
X242536D01*
X244000Y115500D01*
X217410Y119036D02*
X237536D01*
X244000Y125500D01*
X217410Y124036D02*
X229536D01*
X241000Y135500D01*
X244000D01*
X217410Y129036D02*
X228536D01*
X237000Y137500D01*
Y143500D01*
X239000Y145500D01*
X244000D01*
X217410Y134036D02*
X227536D01*
X234000Y140500D01*
Y148500D01*
X241000Y155500D01*
X244000D01*
X200658Y147914D02*
Y152158D01*
X185658Y156158D02*
X204000Y174500D01*
X185658Y147914D02*
Y156158D01*
X180658D02*
X194000Y169500D01*
X180658Y147914D02*
Y156158D01*
X175658Y160158D02*
X184000Y168500D01*
X175658Y147914D02*
Y160158D01*
X170658Y166158D02*
X174000Y169500D01*
X170658Y147914D02*
Y166158D01*
X165658Y147914D02*
Y158842D01*
X164000Y160500D02*
X165658Y158842D01*
X60000Y157500D02*
Y158886D01*
X59386Y156886D02*
X60000Y157500D01*
X53106Y156886D02*
X59386D01*
X53075Y158886D02*
X60000D01*
X53075Y156917D02*
X53106Y156886D01*
X155658Y147914D02*
Y169842D01*
X223847Y-103654D02*
Y-98500D01*
X227000Y-20500D02*
X260000D01*
X194000Y12500D02*
X227000Y-20500D01*
X53075Y82114D02*
X58386D01*
X53075Y84083D02*
X53158Y84000D01*
X60000Y65500D02*
Y66500D01*
X58386Y82114D02*
X60000Y80500D01*
Y79500D02*
Y80500D01*
X53075Y91957D02*
X57422D01*
X57000Y76500D02*
X62000D01*
X30000Y94500D02*
X36000D01*
X36575Y93925D02*
X53075D01*
X36000Y94500D02*
X36575Y93925D01*
X53075Y95894D02*
X57606D01*
X61449Y154949D02*
X63000Y156500D01*
X53075Y154949D02*
X61449D01*
X70000Y167500D02*
X78654D01*
Y191154D02*
X80000Y192500D01*
X101000D01*
X104232Y189268D01*
X73000Y175500D02*
X78654D01*
X104232Y186240D02*
X108740D01*
X109000Y186500D01*
X57606Y95894D02*
X59000Y94500D01*
X133000Y190847D02*
X141654D01*
X144000Y188500D01*
Y185500D02*
Y188500D01*
X159000Y157500D02*
Y174500D01*
Y157500D02*
X160658Y155842D01*
Y147914D02*
Y155842D01*
X190658Y147914D02*
Y156158D01*
X214000Y179500D01*
X195658Y147914D02*
Y155158D01*
X224000Y183500D02*
Y185500D01*
X195658Y155158D02*
X198000Y157500D01*
X200658Y152158D02*
X216000Y167500D01*
X234000Y185500D01*
X239000Y165500D02*
X244000D01*
X222464Y89036D02*
X229500Y82000D01*
X233000Y78500D01*
X223464Y99036D02*
X227000Y95500D01*
X237000Y85500D01*
X21000Y62500D02*
X78654D01*
X17500Y59000D02*
X21000Y62500D01*
X16000Y56500D02*
X78654D01*
X14000Y58500D02*
X16000Y56500D01*
X14000Y58500D02*
Y61500D01*
X154000Y55500D02*
X158000D01*
X170658Y71158D02*
Y75044D01*
X164000Y59000D02*
X175658Y70658D01*
Y75044D01*
X164000Y55500D02*
Y59000D01*
X124000Y60500D02*
X130000Y66500D01*
X153000D01*
X155658Y69158D01*
Y75044D01*
X160658Y69658D02*
Y75044D01*
X56000Y70500D02*
Y71500D01*
X48169Y76331D02*
X54000Y70500D01*
X56000D01*
X49569Y77431D02*
X53500Y73500D01*
X60000D01*
X48988Y89988D02*
X53075D01*
X48169Y89169D02*
X48988Y89988D01*
X48169Y76331D02*
Y89169D01*
X49569Y77431D02*
Y87569D01*
X50020Y88020D01*
X53075D01*
X64000Y65500D02*
X70500Y72000D01*
Y78879D01*
X57422Y91957D02*
X70500Y78879D01*
X62000Y76500D02*
X63000Y77500D01*
X59035Y84000D02*
X63000Y80036D01*
X53158Y84000D02*
X59035D01*
X63000Y77500D02*
Y80036D01*
X144000Y47500D02*
Y55500D01*
X198000Y157500D02*
X224000Y183500D01*
X144000Y181500D02*
Y185500D01*
Y181500D02*
X155658Y169842D01*
X164000Y160500D02*
Y185500D01*
X154000Y179500D02*
Y185500D01*
Y179500D02*
X159000Y174500D01*
X214000Y179500D02*
Y185500D01*
X174000Y169500D02*
Y185500D01*
X204000Y174500D02*
Y185500D01*
X194000Y169500D02*
Y185500D01*
X134000Y47500D02*
Y55500D01*
X184000Y168500D02*
Y185500D01*
X238000Y61500D02*
X244000Y55500D01*
X240000Y75500D02*
X244000D01*
X234000Y81500D02*
X240000Y75500D01*
X70000Y166058D02*
Y167500D01*
X60000Y158886D02*
X61850D01*
X61964Y159000D01*
X62942D01*
X70000Y166058D01*
X239000Y36500D02*
X253780Y51280D01*
Y76280D01*
X134000Y47500D02*
X149500Y32000D01*
X246500D01*
X258000Y43500D01*
Y73500D01*
X258953Y81453D02*
X264047D01*
X253780Y76280D02*
X258953Y81453D01*
X262000Y67500D02*
X266000Y71500D01*
Y79500D01*
X264047Y81453D02*
X266000Y79500D01*
X40870Y165579D02*
Y174670D01*
X31779Y165579D02*
X40870D01*
Y156487D02*
Y165579D01*
X49961D01*
X40900Y76400D02*
Y85491D01*
X31779Y75421D02*
X40870D01*
X244000Y75500D02*
X246100D01*
X125224Y203500D02*
X155539D01*
X175224D02*
X205539D01*
X75224D02*
X105539D01*
X55000Y78500D02*
X57000Y76500D01*
X7000Y66700D02*
G03*
X9800Y69500I0J2800D01*
G01*
X4000Y66700D02*
G03*
X0Y62700I0J-4000D01*
G01*
X9800Y171500D02*
G03*
X6400Y174900I-3400J0D01*
G01*
X0Y178300D02*
G03*
X3400Y174900I3400J0D01*
G01*
X0Y-113500D02*
G03*
X10000Y-123500I10000J0D01*
G01*
X10000Y219500D02*
G03*
X0Y209500I0J-10000D01*
G01*
X274500Y209500D02*
G03*
X264500Y219500I-10000J0D01*
G01*
X264500Y-123500D02*
G03*
X274500Y-113500I0J10000D01*
G01*
X0Y178300D02*
Y209500D01*
X9800Y69500D02*
Y171500D01*
X0Y-113500D02*
Y62700D01*
X10000Y-123500D02*
X264500D01*
X274500Y-113500D02*
Y209500D01*
D14*
X113400Y149000D02*
Y163900D01*
X109500Y145100D02*
X113400Y149000D01*
X109500Y99000D02*
Y145100D01*
X113400Y163900D02*
X118500Y169000D01*
X124000Y174500D01*
X85347Y56500D02*
Y62500D01*
X104000D02*
Y93500D01*
X85347Y62500D02*
X104000D01*
X150658Y147914D02*
Y152842D01*
X149346Y154154D02*
X150658Y152842D01*
X149346Y154154D02*
Y158500D01*
Y165500D02*
Y170153D01*
Y158500D02*
Y165500D01*
X145000Y174500D02*
X149346Y170153D01*
X231192Y-92500D02*
X234825Y-88866D01*
X235634D01*
X217154Y-98500D02*
Y-92654D01*
X217000Y-92500D02*
X217154Y-92654D01*
X217000Y-92500D02*
X231192D01*
X181346Y-98500D02*
Y-92847D01*
X181000Y-92500D02*
X181346Y-92847D01*
X181000Y-92500D02*
X217000D01*
X134000D02*
X181000D01*
X124000Y174500D02*
X133000D01*
X145000D01*
X262000Y97500D02*
Y142500D01*
X104000Y93500D02*
X109500Y99000D01*
X104000Y33000D02*
Y62500D01*
Y25500D02*
Y33000D01*
Y-43000D02*
Y25500D01*
X79000Y-68000D02*
X104000Y-43000D01*
X56992Y-83555D02*
X79000D01*
Y-68000D01*
X96653Y-98500D02*
Y-92500D01*
X134000D01*
X79000Y-87000D02*
Y-83555D01*
Y-87000D02*
X84500Y-92500D01*
X96653D01*
D15*
X65000Y197500D02*
X112000D01*
X119000D02*
X126000D01*
X126000Y197500D02*
X126000Y197500D01*
X126000Y190847D02*
Y197500D01*
X119000D02*
X119000Y197500D01*
X119000Y190847D02*
Y197500D01*
X104232Y178760D02*
X108740D01*
X118500Y169000D01*
X48850Y141288D02*
Y143500D01*
Y159523D02*
X50153Y160826D01*
X48850Y143500D02*
Y159523D01*
X94000Y171500D02*
X101209Y164291D01*
Y143291D02*
Y164291D01*
X112000Y184500D02*
Y197500D01*
X95768Y182500D02*
X110000D01*
X112000Y184500D01*
X94740Y178760D02*
X104232D01*
X91000Y182500D02*
X94740Y178760D01*
X91000Y182500D02*
Y187500D01*
X90000Y188500D02*
X91000Y187500D01*
X85347Y188500D02*
X90000D01*
X133000Y174500D02*
Y184153D01*
X162921Y197579D02*
X163000Y197500D01*
X126000D02*
X163000D01*
X211500D01*
X212921Y198921D01*
X50153Y160826D02*
X55826D01*
X66500Y171500D01*
X94000D01*
X101209Y143291D02*
X102100Y142400D01*
X109500D01*
X134653Y-98500D02*
Y-93154D01*
X134000Y-92500D02*
X134653Y-93154D01*
X62134Y200366D02*
X65000Y197500D01*
X62134Y200366D02*
Y202713D01*
X112134Y197500D02*
Y202713D01*
X112000Y197500D02*
X112134D01*
X119000D01*
X62134Y202713D02*
X62921Y203500D01*
X112134Y202713D02*
X112921Y203500D01*
X162921Y197579D02*
Y203500D01*
X212921Y198921D02*
Y203500D01*
X26000Y39500D02*
X55000D01*
X61500Y33000D01*
X104000D01*
X226000Y-500D02*
X260000D01*
X200000Y25500D02*
X226000Y-500D01*
X104000Y25500D02*
X200000D01*
D16*
X48299Y139201D02*
X53075D01*
X104232Y146240D02*
Y150268D01*
X78654Y149153D02*
X79931Y150432D01*
X78654Y146500D02*
Y149153D01*
X79931Y157431D02*
X88601D01*
X78654Y156154D02*
X79931Y157431D01*
X78654Y153500D02*
Y156154D01*
X93669Y162500D02*
X95768D01*
X88601Y157431D02*
X93669Y162500D01*
X78654Y142154D02*
X79068Y142569D01*
X78654Y139500D02*
Y142154D01*
X53075Y103768D02*
X56732D01*
X53075Y105736D02*
X57026D01*
X53075Y107705D02*
X57321D01*
X53075Y109673D02*
X57615D01*
X53075Y111642D02*
X57909D01*
X53075Y113610D02*
X58204D01*
X53075Y115579D02*
X58498D01*
X53075Y117547D02*
X58953D01*
X75932Y100568D01*
X74000Y111500D02*
X78654D01*
X62047Y123453D02*
X74000Y111500D01*
X53075Y123453D02*
X62047D01*
X85347Y111500D02*
Y114154D01*
X84931Y114568D02*
X85347Y114154D01*
X73263Y118500D02*
X78654D01*
X64373Y127390D02*
X73263Y118500D01*
X53075Y127390D02*
X64373D01*
X85347Y118500D02*
Y121085D01*
X84863Y121569D02*
X85347Y121085D01*
X76033Y121569D02*
X84863D01*
X75964Y121500D02*
X76033Y121569D01*
X74000Y121500D02*
X75964D01*
X66142Y129358D02*
X74000Y121500D01*
X53075Y129358D02*
X66142D01*
X74000Y125500D02*
X78654D01*
X68173Y131327D02*
X74000Y125500D01*
X53075Y131327D02*
X68173D01*
X53075Y133295D02*
X69205D01*
X73931Y128568D01*
X73000Y132500D02*
X78654D01*
X70236Y135264D02*
X73000Y132500D01*
X53075Y135264D02*
X70236D01*
X85347Y132500D02*
Y135153D01*
X84931Y135568D02*
X85347Y135153D01*
X72931Y135568D02*
X84931D01*
X71268Y137232D02*
X72931Y135568D01*
X53075Y137232D02*
X71268D01*
X64480Y152980D02*
X72000Y160500D01*
X78654D01*
X73931Y128568D02*
X84931D01*
X85347Y128154D01*
Y125500D02*
Y128154D01*
X75932Y100568D02*
X84931D01*
X85347Y100154D01*
Y97500D02*
Y100154D01*
X84931Y107569D02*
X85347Y107153D01*
Y104500D02*
Y107153D01*
X84931Y93568D02*
X85347Y93154D01*
Y90500D02*
Y93154D01*
X84931Y86568D02*
X85347Y86154D01*
Y83500D02*
Y86154D01*
X84931Y79568D02*
X85347Y79154D01*
Y76500D02*
Y79154D01*
X75000Y97500D02*
X78654D01*
X75932Y93568D02*
X84931D01*
X76000Y90500D02*
X78654D01*
X53075Y121484D02*
X61016D01*
X74932Y107569D01*
X84931D01*
X53075Y119516D02*
X59984D01*
X75000Y104500D01*
X78654D01*
X53075Y125421D02*
X63079D01*
X73931Y114568D01*
X84931D01*
X76000Y69500D02*
X78654D01*
X74000Y71500D02*
X76000Y69500D01*
X47000Y140500D02*
X48299Y139201D01*
X76895Y86568D02*
X84931D01*
X76000Y83500D02*
X78654D01*
X76895Y79568D02*
X84931D01*
X76233Y77969D02*
X77185D01*
X78654Y76500D01*
X74000Y71500D02*
Y77500D01*
Y98500D02*
X75000Y97500D01*
X74000Y98500D02*
Y100076D01*
X58498Y115579D02*
X74000Y100076D01*
X72000Y97500D02*
X75932Y93568D01*
X72000Y97500D02*
Y99814D01*
X58204Y113610D02*
X72000Y99814D01*
X70000Y96500D02*
X76000Y90500D01*
X70000Y96500D02*
Y99551D01*
X57909Y111642D02*
X70000Y99551D01*
X53075Y97862D02*
X60375D01*
X73457Y149043D02*
X76000Y146500D01*
X78654D01*
X67425Y147075D02*
X75000Y139500D01*
X78654D01*
X53075Y152980D02*
X64480D01*
X53075Y151012D02*
X73500D01*
X53075Y149043D02*
X73457D01*
X53075Y147075D02*
X67425D01*
X48968Y141169D02*
X53075D01*
X48850Y141288D02*
X48968Y141169D01*
X49212Y143138D02*
X53075D01*
X48850Y143500D02*
X49212Y143138D01*
X47000Y140500D02*
Y160289D01*
X84890Y178610D02*
X85347Y178154D01*
Y175500D02*
Y178154D01*
X104232Y150268D02*
X106465Y152500D01*
X109000D01*
X104232Y166240D02*
X108260D01*
X109000Y165500D01*
Y152500D02*
Y165500D01*
X99000Y131602D02*
X100000Y130602D01*
X79931Y150432D02*
X94068D01*
X99000Y145500D01*
Y131602D02*
Y145500D01*
X57615Y109673D02*
X68400Y98888D01*
Y95064D02*
X76895Y86568D01*
X68400Y95064D02*
Y98888D01*
X57321Y107705D02*
X66800Y98225D01*
Y92700D02*
X76000Y83500D01*
X66800Y92700D02*
Y98225D01*
X65000Y91464D02*
X76895Y79568D01*
X65000Y91464D02*
Y97763D01*
X57026Y105736D02*
X65000Y97763D01*
X63400Y90801D02*
X76233Y77969D01*
X63400Y90801D02*
Y97100D01*
X56732Y103768D02*
X63400Y97100D01*
X60375Y97862D02*
X61800Y96437D01*
Y89700D02*
X74000Y77500D01*
X61800Y89700D02*
Y96437D01*
X85347Y182500D02*
X86347Y181500D01*
X104232Y166240D02*
Y168268D01*
X101000Y169500D02*
X103000D01*
X104232Y168268D01*
X89000Y181500D02*
X101000Y169500D01*
X86347Y181500D02*
X89000D01*
X73500Y151012D02*
X75988Y153500D01*
X78654D01*
X47000Y160289D02*
X65321Y178610D01*
X84890D01*
X79068Y142569D02*
X95768D01*
X312725Y137841D02*
Y131843D01*
X315724D01*
X316723Y132842D01*
Y133842D01*
X315724Y134842D01*
X312725D01*
X315724D01*
X316723Y135841D01*
Y136841D01*
X315724Y137841D01*
X312725D01*
X319722Y131843D02*
X321722D01*
X322722Y132842D01*
Y134842D01*
X321722Y135841D01*
X319722D01*
X318723Y134842D01*
Y132842D01*
X319722Y131843D01*
X325721Y136841D02*
Y135841D01*
X324721D01*
X326720D01*
X325721D01*
Y132842D01*
X326720Y131843D01*
X330719Y136841D02*
Y135841D01*
X329719D01*
X331719D01*
X330719D01*
Y132842D01*
X331719Y131843D01*
X335717D02*
X337717D01*
X338716Y132842D01*
Y134842D01*
X337717Y135841D01*
X335717D01*
X334718Y134842D01*
Y132842D01*
X335717Y131843D01*
X340716D02*
Y135841D01*
X341715D01*
X342715Y134842D01*
Y131843D01*
Y134842D01*
X343715Y135841D01*
X344714Y134842D01*
Y131843D01*
X352712Y137841D02*
Y131843D01*
X356711D01*
X359710Y135841D02*
X361709D01*
X362708Y134842D01*
Y131843D01*
X359710D01*
X358710Y132842D01*
X359710Y133842D01*
X362708D01*
X364708Y135841D02*
Y132842D01*
X365708Y131843D01*
X368707D01*
Y130843D01*
X367707Y129843D01*
X366707D01*
X368707Y131843D02*
Y135841D01*
X373705Y131843D02*
X371706D01*
X370706Y132842D01*
Y134842D01*
X371706Y135841D01*
X373705D01*
X374705Y134842D01*
Y133842D01*
X370706D01*
X376704Y135841D02*
Y131843D01*
Y133842D01*
X377704Y134842D01*
X378703Y135841D01*
X379703D01*
D17*
X4000Y66700D02*
X7000D01*
X3400Y174900D02*
X6400D01*
X10000Y219500D02*
X264500D01*
D18*
X256063Y-74713D02*
D03*
X92677D02*
D03*
Y23713D02*
D03*
X256063D02*
D03*
X14500Y-109500D02*
D03*
Y-39500D02*
D03*
X69500Y-109500D02*
D03*
Y-39500D02*
D03*
D19*
X260000Y9500D02*
D03*
Y-500D02*
D03*
D20*
Y-10500D02*
D03*
Y-20500D02*
D03*
Y-30500D02*
D03*
Y-40500D02*
D03*
Y-50500D02*
D03*
Y-60500D02*
D03*
X14500Y-74500D02*
D03*
Y-94500D02*
D03*
Y-84500D02*
D03*
Y-54500D02*
D03*
Y-64500D02*
D03*
D21*
X262000Y67500D02*
D03*
Y77500D02*
D03*
Y87500D02*
D03*
X244000Y185500D02*
D03*
X262000Y152500D02*
D03*
Y162500D02*
D03*
X244000Y55500D02*
D03*
D22*
X262000Y97500D02*
D03*
X244000Y165500D02*
D03*
Y85500D02*
D03*
X234000Y185500D02*
D03*
X194000D02*
D03*
X184000D02*
D03*
X174000D02*
D03*
X124000Y55500D02*
D03*
X244000Y95500D02*
D03*
Y115500D02*
D03*
X262000Y142500D02*
D03*
X244000Y175500D02*
D03*
Y155500D02*
D03*
X214000Y55500D02*
D03*
X204000D02*
D03*
X194000D02*
D03*
X184000D02*
D03*
X164000D02*
D03*
X154000D02*
D03*
X144000D02*
D03*
D23*
X224000Y185500D02*
D03*
X214000D02*
D03*
X204000D02*
D03*
X234000Y55500D02*
D03*
X244000Y105500D02*
D03*
Y125500D02*
D03*
Y135500D02*
D03*
Y145500D02*
D03*
X144000Y185500D02*
D03*
X224000Y55500D02*
D03*
X154000Y185500D02*
D03*
X164000D02*
D03*
X134000Y55500D02*
D03*
X114000D02*
D03*
X244000Y75500D02*
D03*
Y65500D02*
D03*
X174000Y55500D02*
D03*
D24*
X54000Y-1500D02*
D03*
D25*
X172402Y-111000D02*
D03*
X197598D02*
D03*
X117598D02*
D03*
X92402D02*
D03*
X157598D02*
D03*
X132402D02*
D03*
X212402D02*
D03*
X237598D02*
D03*
D26*
X42000Y23902D02*
D03*
Y49098D02*
D03*
X60000Y49098D02*
D03*
Y23902D02*
D03*
D27*
X257500Y202500D02*
D03*
Y-106500D02*
D03*
X17000Y202500D02*
D03*
Y-500D02*
D03*
D28*
X75224Y203500D02*
D03*
X68630D02*
D03*
X62134D02*
D03*
X55539D02*
D03*
X105539D02*
D03*
X112134D02*
D03*
X118630D02*
D03*
X125224D02*
D03*
X175224D02*
D03*
X168630D02*
D03*
X162134D02*
D03*
X155539D02*
D03*
X205539D02*
D03*
X212134D02*
D03*
X218630D02*
D03*
X225224D02*
D03*
D29*
X214000Y195000D02*
D03*
X199000Y192000D02*
D03*
X250000Y-35000D02*
D03*
X90300Y175500D02*
D03*
X65000Y-74500D02*
D03*
X70000D02*
D03*
X71000Y-65500D02*
D03*
X31000Y-85500D02*
D03*
X24000Y-72500D02*
D03*
X194000Y17500D02*
D03*
Y12500D02*
D03*
X60000Y79500D02*
D03*
X58500Y86500D02*
D03*
X56000Y70500D02*
D03*
X60000Y73500D02*
D03*
Y66500D02*
D03*
X30000Y94500D02*
D03*
X60000Y143500D02*
D03*
X119000Y178500D02*
D03*
X126000D02*
D03*
X63000Y156500D02*
D03*
X66000Y79500D02*
D03*
X86000Y50500D02*
D03*
X109000Y152500D02*
D03*
X70000Y167500D02*
D03*
X73000Y175500D02*
D03*
X67000Y141000D02*
D03*
X109000Y186500D02*
D03*
X59000Y94500D02*
D03*
X198000Y157500D02*
D03*
X216000Y167500D02*
D03*
X229500Y82000D02*
D03*
X227000Y95500D02*
D03*
X17500Y59000D02*
D03*
X14000Y61500D02*
D03*
X257500Y112000D02*
D03*
X127500Y151500D02*
D03*
Y161000D02*
D03*
X143000Y170500D02*
D03*
X139000Y151000D02*
D03*
X104500Y154500D02*
D03*
X91500D02*
D03*
Y146500D02*
D03*
Y139500D02*
D03*
X105000Y134500D02*
D03*
X100000Y112500D02*
D03*
X91000Y69500D02*
D03*
X140000Y72000D02*
D03*
X135500D02*
D03*
X96500Y187000D02*
D03*
X110000Y170500D02*
D03*
X91500Y167000D02*
D03*
X73000Y156000D02*
D03*
X72500Y146000D02*
D03*
X63000Y172500D02*
D03*
X61000Y161500D02*
D03*
X139000Y47500D02*
D03*
X250000Y-15000D02*
D03*
X174000Y47500D02*
D03*
X201000D02*
D03*
X183000D02*
D03*
X214000D02*
D03*
X224000D02*
D03*
X248500Y39000D02*
D03*
X249300Y-45900D02*
D03*
X232000Y47500D02*
D03*
X191000D02*
D03*
X50500Y201000D02*
D03*
X34000Y181000D02*
D03*
X36000Y141000D02*
D03*
X31000Y66000D02*
D03*
X188500Y62000D02*
D03*
X66000Y-65500D02*
D03*
X26000Y39500D02*
D03*
X20500Y53000D02*
D03*
X23500Y49000D02*
D03*
X55000Y78500D02*
D03*
D30*
X95768Y162500D02*
D03*
X104232Y158760D02*
D03*
Y166240D02*
D03*
X95768Y142500D02*
D03*
X104232Y138760D02*
D03*
Y146240D02*
D03*
Y186240D02*
D03*
Y178760D02*
D03*
X95768Y182500D02*
D03*
D31*
X31008Y-74500D02*
D03*
D32*
X56992Y-83555D02*
D03*
Y-74500D02*
D03*
D33*
Y-65445D02*
D03*
D34*
X145658Y75044D02*
D03*
X150658D02*
D03*
X155658D02*
D03*
X160658D02*
D03*
X165658D02*
D03*
X170658D02*
D03*
X175658D02*
D03*
X180658D02*
D03*
X185658D02*
D03*
X190658D02*
D03*
X195658D02*
D03*
X200658D02*
D03*
X205658D02*
D03*
X210658D02*
D03*
Y147914D02*
D03*
X205658D02*
D03*
X200658D02*
D03*
X195658D02*
D03*
X190658D02*
D03*
X185658D02*
D03*
X180658D02*
D03*
X175658D02*
D03*
X170658D02*
D03*
X165658D02*
D03*
X160658D02*
D03*
X155658D02*
D03*
X150658D02*
D03*
X145658D02*
D03*
D35*
X176000Y117500D02*
D03*
D36*
X217410Y84036D02*
D03*
Y89036D02*
D03*
D37*
Y94036D02*
D03*
Y99036D02*
D03*
Y104036D02*
D03*
Y109036D02*
D03*
Y114036D02*
D03*
Y119036D02*
D03*
Y124036D02*
D03*
Y129036D02*
D03*
Y134036D02*
D03*
Y139036D02*
D03*
D38*
X100000Y130602D02*
D03*
Y118398D02*
D03*
D39*
X133000Y184153D02*
D03*
Y190847D02*
D03*
X126000Y190847D02*
D03*
Y184153D02*
D03*
X119000Y190847D02*
D03*
Y184153D02*
D03*
D40*
X235634Y-88866D02*
D03*
X240366Y-84134D02*
D03*
D41*
X53075Y82114D02*
D03*
Y84083D02*
D03*
Y86051D02*
D03*
Y88020D02*
D03*
Y89988D02*
D03*
Y91957D02*
D03*
Y93925D02*
D03*
Y95894D02*
D03*
Y97862D02*
D03*
Y99831D02*
D03*
Y101799D02*
D03*
Y103768D02*
D03*
Y105736D02*
D03*
Y107705D02*
D03*
Y109673D02*
D03*
Y111642D02*
D03*
Y113610D02*
D03*
Y115579D02*
D03*
Y117547D02*
D03*
Y119516D02*
D03*
Y121484D02*
D03*
Y123453D02*
D03*
Y125421D02*
D03*
Y127390D02*
D03*
Y129358D02*
D03*
Y131327D02*
D03*
Y133295D02*
D03*
Y135264D02*
D03*
Y137232D02*
D03*
Y139201D02*
D03*
Y141169D02*
D03*
Y143138D02*
D03*
Y145106D02*
D03*
Y147075D02*
D03*
Y149043D02*
D03*
Y151012D02*
D03*
Y152980D02*
D03*
Y154949D02*
D03*
Y156917D02*
D03*
Y158886D02*
D03*
D42*
X40870Y75421D02*
D03*
Y165579D02*
D03*
D43*
X209400Y151900D02*
X212050Y154550D01*
X209400Y149172D02*
Y151900D01*
Y149172D02*
X210658Y147914D01*
X212050Y154550D02*
X214978D01*
X206900Y151451D02*
X211449Y156000D01*
X206900Y149156D02*
Y151451D01*
X211449Y156000D02*
X214378D01*
X244100Y181450D02*
X257601D01*
X239828D02*
X244100D01*
X244000Y181550D02*
X244100Y181450D01*
X244000Y181550D02*
Y185500D01*
X243900Y180000D02*
X257000D01*
X240428D02*
X243900D01*
X244000Y179900D01*
Y175500D02*
Y179900D01*
X266601Y-86850D02*
X270325Y-83126D01*
X249650Y-86850D02*
X266601D01*
X218000Y-118500D02*
X249650Y-86850D01*
X266000Y-85400D02*
X268875Y-82525D01*
X249049Y-85400D02*
X266000D01*
X217399Y-117050D02*
X249049Y-85400D01*
X98050Y-105050D02*
X111500Y-118500D01*
X218000D01*
X270325Y-83126D02*
Y168726D01*
X268875Y-82525D02*
Y168125D01*
X24050Y-99101D02*
Y-84456D01*
X20594Y-81000D02*
X24050Y-84456D01*
X18000Y-81000D02*
X20594D01*
X25500Y-98500D02*
X32050Y-105050D01*
X25500Y-98500D02*
Y-83500D01*
X20000Y-78000D02*
X25500Y-83500D01*
X18000Y-78000D02*
X20000D01*
X24050Y-99101D02*
X31449Y-106500D01*
X62457Y-100000D02*
X83000D01*
X55956Y-106500D02*
X62457Y-100000D01*
X31449Y-106500D02*
X55956D01*
X61856Y-98550D02*
X83601D01*
X55356Y-105050D02*
X61856Y-98550D01*
X32050Y-105050D02*
X55356D01*
X88050Y-105050D02*
X98050D01*
X83000Y-100000D02*
X88050Y-105050D01*
X98651Y-103600D02*
X112101Y-117050D01*
X88651Y-103600D02*
X98651D01*
X83601Y-98550D02*
X88651Y-103600D01*
X205658Y147914D02*
X206900Y149156D01*
X214978Y154550D02*
X240428Y180000D01*
X214378Y156000D02*
X239828Y181450D01*
X257601D02*
X270325Y168726D01*
X257000Y180000D02*
X268875Y168125D01*
X14500Y-74500D02*
X18000Y-78000D01*
X16000Y-83000D02*
X18000Y-81000D01*
X112101Y-117050D02*
X217399D01*
X14000Y-74500D02*
X14500D01*
M02*
