M48
;Layer_Color=9474304
;FILE_FORMAT=2:5
INCH,LZ
;TYPE=PLATED
T1F00S00C0.01500
T2F00S00C0.03500
T3F00S00C0.03543
T4F00S00C0.04724
T5F00S00C0.06339
T6F00S00C0.07087
T7F00S00C0.07874
T8F00S00C0.14400
T9F00S00C0.26378
%
T01
X0031Y-00855
X0024Y-00725
X0026Y00395
X00235Y0049
X00205Y0053
X00175Y0059
X0014Y00615
X0086Y00505
X0139Y00475
X0174
X0183
X0191
X01975Y0022
X0071Y-00655
X0066
X0065Y-00745
X007
X02493Y-00459
X025Y-0035
Y-0015
X02485Y0039
X0232Y00475
X0224
X0214
X0201
Y00195
X02265
X02295Y0082
X0227Y00955
X02575Y0112
X0216Y01675
X0198Y01575
X0199Y01915
X02006Y02106
X0225Y01935
X0143Y01705
X0139Y0151
X01275Y01515
Y0161
X0126Y01785
X0119
X011Y01705
X0109Y01865
X00965Y0187
X0081Y01715
X0051Y0167
X00515Y01615
X0051309Y01571
X005Y0153
X00495Y01485
X0049Y0101
X00505Y0097
X0049Y0093
X0047Y0073
X00425Y0075
X0081Y00745
Y00845
Y00915
Y0099
Y01065
X01Y01125
X0105Y01345
X01045Y01545
X0109Y01525
X00505Y0201
X01355Y0072
X014
X01885Y0062
X0028Y0147
T02
X0205539Y02035
X0212134
X021863
X0225224
X0175224
X016863
X0162134
X0155539
X0125224
X011863
X0112134
X0105539
X0075224
X006863
X0062134
X0055539
T03
X00755Y-00225
Y-00125
Y-0001
Y0009
X0114Y00555
X0124
X0134
X0144
X0154
X0164
X0174
X0184
X0194
X0204
X0214
X0224
X0234
X0244
Y00655
Y00755
Y00855
Y00955
Y01055
Y01155
Y01255
Y01355
Y01455
Y01555
Y01655
Y01755
Y01855
X0234
X0224
X0214
X0204
X0262Y01625
Y01525
Y01425
Y00975
Y00875
Y00775
Y00675
X0194Y01855
X0184
X0174
X0164
X0154
X0144
T04
X0197598Y-0111
X0212402
X0237598
X0172402
X0157598
X0132402
X0117598
X0092402
X006Y0023902
X0042Y0023902
Y0049098
X006Y0049098
T05
X00145Y-00945
Y-00845
Y-00745
Y-00645
Y-00545
T06
X026Y-00605
Y-00505
Y-00405
Y-00305
Y-00205
Y-00105
Y-00005
Y00095
T07
X00695Y-01095
X00145
Y-00395
X00695
X0092677Y-0074713
Y0023713
X0256063
Y-0074713
T08
X02575Y-01065
X0017Y-00005
X02575Y02025
X0017
T09
X0054Y-00015
M30
